<svg width="14" height="11" viewBox="0 0 14 11" fill="none" xmlns="http://www.w3.org/2000/svg">
<path d="M2.23438 4.79544e-09H11.5156C12.0863 -3.73634e-05 12.6354 0.218318 13.0503 0.610274C13.4651 1.00223 13.7143 1.53807 13.7466 2.10787L13.75 2.23438V8.76562C13.75 9.33634 13.5317 9.88544 13.1397 10.3003C12.7478 10.7151 12.2119 10.9643 11.6421 10.9966L11.5156 11H2.23438C1.66366 11 1.11456 10.7817 0.699716 10.3897C0.284877 9.99777 0.0357491 9.46193 0.00343758 8.89213L4.79544e-09 8.76562V2.23438C-3.73634e-05 1.66366 0.218318 1.11456 0.610274 0.699716C1.00223 0.284877 1.53807 0.0357491 2.10787 0.00343758L2.23438 4.79544e-09H11.5156H2.23438ZM12.7188 3.69394L7.11563 6.64331C7.05236 6.67673 6.98283 6.69662 6.91145 6.70171C6.84008 6.7068 6.76843 6.69698 6.70106 6.67288L6.63506 6.644L1.03125 3.69462V8.76562C1.03126 9.06757 1.14481 9.35847 1.34934 9.58058C1.55388 9.80269 1.83446 9.93978 2.13538 9.96462L2.23438 9.96875H11.5156C11.8177 9.96872 12.1087 9.85509 12.3308 9.6504C12.5529 9.44572 12.6899 9.16498 12.7146 8.86394L12.7188 8.76562V3.69394ZM11.5156 1.03125H2.23438C1.93243 1.03126 1.64153 1.14481 1.41942 1.34934C1.19731 1.55388 1.06022 1.83446 1.03537 2.13538L1.03125 2.23438V2.52931L6.875 5.6045L12.7188 2.52863V2.23438C12.7187 1.93232 12.6051 1.64133 12.4004 1.4192C12.1957 1.19707 11.915 1.06006 11.6139 1.03537L11.5156 1.03125Z" fill="currentColor"/>
</svg>
