<svg width="11" height="15" viewBox="0 0 11 15" fill="none" xmlns="http://www.w3.org/2000/svg">
<path d="M5.43359 3.43756C5.03803 3.43756 4.65135 3.55486 4.32245 3.77462C3.99356 3.99438 3.73721 4.30674 3.58584 4.67219C3.43446 5.03765 3.39485 5.43978 3.47202 5.82774C3.54919 6.2157 3.73968 6.57207 4.01938 6.85177C4.29909 7.13148 4.65545 7.32196 5.04341 7.39913C5.43138 7.4763 5.83351 7.4367 6.19896 7.28532C6.56441 7.13394 6.87677 6.8776 7.09653 6.5487C7.3163 6.2198 7.43359 5.83312 7.43359 5.43756C7.43299 4.90731 7.22208 4.39896 6.84714 4.02401C6.4722 3.64907 5.96384 3.43816 5.43359 3.43756ZM5.43359 6.43756C5.23581 6.43756 5.04247 6.37891 4.87802 6.26903C4.71358 6.15915 4.5854 6.00297 4.50971 5.82024C4.43403 5.63752 4.41422 5.43645 4.45281 5.24247C4.49139 5.04849 4.58664 4.87031 4.72649 4.73045C4.86634 4.5906 5.04452 4.49536 5.2385 4.45678C5.43249 4.41819 5.63355 4.43799 5.81628 4.51368C5.999 4.58937 6.15518 4.71754 6.26506 4.88199C6.37495 5.04644 6.43359 5.23978 6.43359 5.43756C6.43329 5.70268 6.32783 5.95686 6.14036 6.14433C5.95289 6.3318 5.69872 6.43725 5.43359 6.43756Z" fill="currentColor"/>
<path d="M9.27776 1.59141C8.32753 0.641424 7.05909 0.0770931 5.71725 0.00733486C4.37541 -0.0624234 3.05529 0.367336 2.01167 1.21367C0.968061 2.06 0.274938 3.26291 0.0660779 4.59023C-0.142782 5.91756 0.147428 7.2752 0.880697 8.40113L4.65904 14.2015C4.74312 14.3306 4.85809 14.4366 4.99351 14.5101C5.12894 14.5835 5.28055 14.6219 5.43459 14.6219C5.58863 14.6219 5.74023 14.5835 5.87566 14.5101C6.01109 14.4366 6.12605 14.3306 6.21013 14.2015L9.9886 8.40113C10.669 7.35666 10.9697 6.11006 10.8403 4.87027C10.7108 3.63047 10.1592 2.47284 9.27776 1.59141ZM9.15073 7.85529L5.4346 13.56L1.71845 7.85529C0.580947 6.10907 0.824916 3.77219 2.29854 2.2985C2.71037 1.88666 3.19929 1.55997 3.73737 1.33709C4.27546 1.1142 4.85218 0.999479 5.4346 0.999479C6.01703 0.999479 6.59375 1.1142 7.13183 1.33709C7.66992 1.55997 8.15884 1.88666 8.57067 2.2985C10.0443 3.77219 10.2882 6.10907 9.15073 7.85529Z" fill="currentColor"/>
</svg>
