<svg width="380" height="275" viewBox="0 0 380 275" fill="none" xmlns="http://www.w3.org/2000/svg">
<path fill-rule="evenodd" clip-rule="evenodd" d="M38.9394 239.504C39.1283 240.07 38.9394 240.448 38.3727 240.448H33.6503C33.0837 240.448 32.517 240.07 32.3281 239.504L30.2502 232.326H11.9275L7.96076 239.504C7.58297 240.07 7.01629 240.448 6.4496 240.448H1.72726C0.97168 240.448 0.782786 240.07 1.16057 239.504L21.1833 203.614C21.5611 203.047 21.9389 202.669 22.6945 202.669H27.6057C28.1724 202.669 28.5502 203.047 28.928 203.614L38.9394 239.504ZM14.1943 228.359H29.1169L24.2056 210.414L14.1943 228.359ZM79.3627 202.669C79.9294 202.669 80.1183 203.047 79.7405 203.614L59.7177 239.504C59.3399 240.07 58.7732 240.448 58.2066 240.448H53.2953C52.5397 240.448 52.1619 240.07 51.9731 239.504L41.9617 203.614C41.7728 203.047 41.9617 202.669 42.7172 202.669H47.4396C48.0063 202.669 48.573 203.047 48.7619 203.614L56.8843 232.515L73.1292 203.614C73.507 203.047 73.8848 202.669 74.6403 202.669H79.3627ZM121.486 202.669C122.053 202.669 122.431 203.047 122.431 203.614L117.33 239.504C117.141 240.07 116.953 240.448 116.197 240.448H111.286C110.53 240.448 110.341 240.07 110.341 239.504L114.497 210.036L101.274 227.415C101.085 227.792 100.897 227.792 100.708 227.792C100.519 227.792 100.33 227.603 100.141 227.415L91.8297 210.036L87.674 239.504C87.4851 240.07 87.2962 240.448 86.5406 240.448H81.6294C80.8738 240.448 80.6849 240.07 80.6849 239.504L85.7851 203.614C85.7851 203.047 86.1629 202.669 86.9184 202.669H91.8297C92.3964 202.669 92.9631 203.047 93.3408 203.614L101.652 220.992L114.875 203.614C115.253 203.047 115.819 202.669 116.575 202.669H121.486ZM169.843 236.481C170.41 236.481 170.787 236.859 170.598 237.426L170.41 239.315C170.221 239.882 170.032 240.259 169.276 240.259H143.209C142.453 240.259 142.264 239.882 142.264 239.315L147.365 203.425C147.365 202.858 147.742 202.481 148.498 202.481H153.409C153.976 202.481 154.354 202.858 154.354 203.425L149.82 236.293H169.843V236.481ZM200.255 213.059C204.033 213.059 205.544 214.948 204.977 218.537L202.71 234.781C202.144 238.559 200.066 240.259 196.477 240.259H180.232C176.454 240.259 174.943 238.37 175.51 234.781L177.776 218.537C178.343 214.759 180.421 213.059 184.01 213.059H200.255ZM195.91 234.592L198.177 218.914C198.366 217.592 197.799 217.025 196.477 217.025H186.654C185.332 217.025 184.577 217.592 184.388 218.914L182.121 234.592C181.932 235.915 182.499 236.481 183.821 236.481H193.644C194.966 236.481 195.721 235.915 195.91 234.592ZM233.878 213.059C237.656 213.059 239.167 214.948 238.6 218.537L234.822 245.359C234.256 249.137 232.178 250.837 228.589 250.837H214.233C213.477 250.837 213.289 250.46 213.289 249.893L213.477 248.004C213.666 247.437 214.044 247.059 214.611 247.059H225.756C227.078 247.059 227.833 246.493 228.022 245.171L228.589 240.637H213.855C210.077 240.637 208.566 238.748 209.133 235.159L211.4 218.914C211.966 215.136 214.044 213.436 217.633 213.436H233.878V213.059ZM229.344 236.481L231.8 218.914C231.989 217.592 231.422 217.025 230.1 217.025H220.655C219.333 217.025 218.578 217.592 218.389 218.914L216.122 234.592C215.933 235.915 216.5 236.481 217.822 236.481H229.344ZM252.578 213.059C253.145 213.059 253.523 213.436 253.523 214.003L249.934 239.504C249.745 240.07 249.556 240.448 248.801 240.448H243.889C243.134 240.448 242.945 240.07 242.945 239.504L246.534 214.003C246.534 213.436 246.912 213.059 247.667 213.059H252.578ZM254.467 200.025C255.034 200.025 255.412 200.403 255.412 200.969L254.467 207.581C254.278 208.147 253.901 208.525 253.334 208.525H248.423C247.856 208.525 247.478 208.147 247.667 207.581L248.612 200.969C248.612 200.403 248.989 200.025 249.745 200.025H254.467ZM279.59 226.092C283.179 226.659 284.879 228.737 284.313 232.326L283.935 234.97C283.368 238.748 281.29 240.448 277.701 240.448H257.49C256.734 240.448 256.545 240.07 256.545 239.504L256.734 237.615C256.923 237.048 257.301 236.67 257.867 236.67H274.868C276.19 236.67 276.946 236.104 277.135 234.781L277.512 232.137C277.701 230.815 277.135 229.87 276.001 229.681L263.157 227.415C259.568 226.848 258.056 224.77 258.434 221.181L258.812 218.537C259.379 214.759 261.456 213.059 265.045 213.059H283.368C283.935 213.059 284.313 213.436 284.313 214.003L284.124 215.892C283.935 216.459 283.557 216.836 282.99 216.836H268.068C266.745 216.836 265.99 217.403 265.801 218.725L265.423 221.37C265.234 222.692 265.801 223.637 267.123 223.826L279.59 226.092ZM304.902 240.448H294.513C290.735 240.448 289.224 238.559 289.791 234.97L293.38 208.903C293.568 208.336 293.946 207.958 294.513 207.958H299.424C299.991 207.958 300.369 208.336 300.18 208.903L299.613 213.059H307.358C307.924 213.059 308.302 213.436 308.302 214.003L308.113 215.892C307.924 216.459 307.547 216.836 306.98 216.836H299.235L296.78 234.404C296.591 235.726 297.157 236.293 298.48 236.293H305.658C306.224 236.293 306.602 236.67 306.413 237.237L306.224 239.126C305.847 240.07 305.469 240.448 304.902 240.448ZM320.391 213.059C320.958 213.059 321.336 213.436 321.336 214.003L317.747 239.504C317.558 240.07 317.369 240.448 316.614 240.448H311.702C310.947 240.448 310.758 240.07 310.758 239.504L314.347 214.003C314.347 213.436 314.725 213.059 315.48 213.059H320.391ZM322.28 200.025C322.847 200.025 323.225 200.403 323.225 200.969L322.28 207.581C322.091 208.147 321.714 208.525 321.147 208.525H316.236C315.669 208.525 315.291 208.147 315.48 207.581L316.425 200.969C316.425 200.403 316.802 200.025 317.558 200.025H322.28ZM347.592 236.481C348.159 236.481 348.537 236.859 348.348 237.426L348.159 239.315C347.97 239.882 347.781 240.259 347.025 240.259H330.025C326.247 240.259 324.736 238.37 325.303 234.781L327.569 218.537C328.136 214.759 330.214 213.059 333.803 213.059H350.048C350.614 213.059 350.992 213.436 350.992 214.003L350.803 215.892C350.614 216.459 350.237 216.836 349.67 216.836H336.636C335.314 216.836 334.558 217.403 334.37 218.725L332.103 234.404C331.914 235.726 332.481 236.293 333.803 236.293H347.592V236.481ZM375.171 226.092C378.76 226.659 380.46 228.737 379.893 232.326L379.515 234.97C378.949 238.748 376.871 240.448 373.282 240.448H353.07C352.314 240.448 352.126 240.07 352.126 239.504L352.314 237.615C352.503 237.048 352.881 236.67 353.448 236.67H370.448C371.771 236.67 372.526 236.104 372.715 234.781L373.093 232.137C373.282 230.815 372.715 229.87 371.582 229.681L358.737 227.415C355.148 226.848 353.637 224.77 354.014 221.181L354.392 218.537C354.959 214.759 357.037 213.059 360.626 213.059H378.949C379.515 213.059 379.893 213.436 379.893 214.003L379.704 215.892C379.515 216.459 379.137 216.836 378.571 216.836H363.648C362.326 216.836 361.57 217.403 361.381 218.725L361.004 221.37C360.815 222.692 361.381 223.637 362.704 223.826L375.171 226.092Z" fill="black"/>
<path fill-rule="evenodd" clip-rule="evenodd" d="M118.841 80.8331L146.042 59.677V178.114H119.219L118.841 80.8331Z" fill="url(#paint0_linear)"/>
<path d="M146.798 178.869H118.464V178.113L118.086 80.4551L146.798 58.3545V178.869ZM119.975 177.358H145.287V61.1879L119.408 81.2107L119.975 177.358Z" fill="white"/>
<path fill-rule="evenodd" clip-rule="evenodd" d="M173.243 80.8331L146.042 59.677V178.114H146.231L172.865 157.713L173.243 80.8331Z" fill="url(#paint1_linear)"/>
<path d="M146.42 178.869H145.098V58.3545L173.81 80.4551V80.8329L173.432 158.279L146.42 178.869ZM146.798 61.1879V176.791L172.11 157.335L172.487 81.0218L146.798 61.1879Z" fill="white"/>
<path fill-rule="evenodd" clip-rule="evenodd" d="M164.176 50.2311L191.377 29.075V89.1432V147.511V178.112H164.554L164.176 50.2311Z" fill="url(#paint2_linear)"/>
<path d="M192.133 178.869H163.799L163.421 49.8543L192.133 27.7537V178.869ZM165.31 177.358H190.622V30.5871L164.932 50.6098L165.31 177.358Z" fill="white"/>
<path fill-rule="evenodd" clip-rule="evenodd" d="M218.577 49.8554L191.377 28.8882V59.6779V147.136V178.114H191.566L218.2 157.714L218.577 49.8554Z" fill="url(#paint3_linear)"/>
<path d="M191.943 178.87H190.621V27.3772L219.333 49.4778V49.8556L218.955 158.092L218.577 158.281L191.943 178.87ZM192.132 30.3995V176.792L217.444 157.336L217.822 50.2334L192.132 30.3995Z" fill="white"/>
<path fill-rule="evenodd" clip-rule="evenodd" d="M207.999 22.653L235.2 1.68579V65.7208V119.933V178.113H208.377L207.999 22.653Z" fill="url(#paint4_linear)"/>
<path d="M235.956 178.869H207.811L207.244 22.465L235.956 0.175537V178.869ZM209.133 177.358H234.445V3.19784L208.755 23.0317L209.133 177.358Z" fill="white"/>
<path fill-rule="evenodd" clip-rule="evenodd" d="M262.401 22.653L235.2 1.68579V59.6762V119.933V178.113H235.389L262.023 157.712L262.401 22.653Z" fill="url(#paint5_linear)"/>
<path d="M235.578 178.869H234.256V0.175537L262.968 22.2761L262.59 158.091L235.578 178.869ZM235.956 3.19784V176.791L261.268 157.335L261.646 22.8428L235.956 3.19784Z" fill="white"/>
<path fill-rule="evenodd" clip-rule="evenodd" d="M118.841 80.8331L146.042 59.677V178.114H119.219L118.841 80.8331Z" fill="url(#paint6_radial)"/>
<path d="M146.798 178.869H118.464V178.113L118.086 80.4551L146.798 58.3545V178.869ZM119.975 177.358H145.287V61.1879L119.408 81.2107L119.975 177.358Z" fill="white"/>
<path fill-rule="evenodd" clip-rule="evenodd" d="M173.243 80.8331L146.042 59.677V178.114H146.231L172.865 157.713L173.243 80.8331Z" fill="url(#paint7_radial)"/>
<path d="M146.42 178.869H145.098V58.3545L173.81 80.4551V80.8329L173.432 158.279L146.42 178.869ZM146.798 61.1879V176.791L172.11 157.335L172.487 81.0218L146.798 61.1879Z" fill="white"/>
<path fill-rule="evenodd" clip-rule="evenodd" d="M164.176 50.2311L191.377 29.075V89.1432V147.511V178.112H164.554L164.176 50.2311Z" fill="url(#paint8_radial)"/>
<path d="M192.133 178.869H163.799L163.421 49.8543L192.133 27.7537V178.869ZM165.31 177.358H190.622V30.5871L164.932 50.6098L165.31 177.358Z" fill="white"/>
<path fill-rule="evenodd" clip-rule="evenodd" d="M218.577 49.8554L191.377 28.8882V59.6779V147.136V178.114H191.566L218.2 157.714L218.577 49.8554Z" fill="url(#paint9_radial)"/>
<path d="M191.943 178.87H190.621V27.3772L219.333 49.4778V49.8556L218.955 158.092L218.577 158.281L191.943 178.87ZM192.132 30.3995V176.792L217.444 157.336L217.822 50.2334L192.132 30.3995Z" fill="white"/>
<path fill-rule="evenodd" clip-rule="evenodd" d="M207.999 22.653L235.2 1.68579V65.7208V119.933V178.113H208.377L207.999 22.653Z" fill="url(#paint10_radial)"/>
<path d="M235.956 178.869H207.811L207.244 22.465L235.956 0.175537V178.869ZM209.133 177.358H234.445V3.19784L208.755 23.0317L209.133 177.358Z" fill="white"/>
<path fill-rule="evenodd" clip-rule="evenodd" d="M262.401 22.653L235.2 1.68579V59.6762V119.933V178.113H235.389L262.023 157.712L262.401 22.653Z" fill="url(#paint11_radial)"/>
<path d="M235.578 178.869H234.256V0.175537L262.968 22.2761L262.59 158.091L235.578 178.869ZM235.956 3.19784V176.791L261.268 157.335L261.646 22.8428L235.956 3.19784Z" fill="white"/>
<path fill-rule="evenodd" clip-rule="evenodd" d="M24.9609 256.126C24.3942 256.693 24.0164 257.448 23.4497 258.015C23.072 258.77 22.5053 259.526 22.1275 260.282C20.9941 262.359 20.2385 263.493 20.0496 264.059C19.2941 265.193 18.7274 265.948 18.1607 266.326C18.1607 266.326 17.9718 266.326 17.9718 266.515C17.9718 266.704 18.1607 266.704 18.7274 266.893C19.1052 267.082 19.6719 267.082 20.0496 267.082C21.183 267.082 22.3164 266.704 23.4497 265.571C24.5831 264.626 25.5276 263.493 26.2831 261.982C27.0387 260.47 27.4165 259.148 27.6054 258.015C27.6054 256.504 27.2276 255.37 26.472 254.615C25.5276 253.859 24.5831 253.481 23.6386 253.481C22.1275 253.481 20.6163 254.615 19.1052 257.07L17.2162 255.748C18.1607 254.615 19.1052 253.67 20.2385 252.915C21.183 252.159 22.5053 251.97 23.8275 251.97C24.5831 251.97 25.3387 252.159 26.0943 252.348C26.8498 252.537 27.6054 253.104 28.1721 253.67C28.7388 254.237 29.3055 254.993 29.4943 255.748C29.8721 256.504 29.8721 257.448 29.8721 258.393C29.8721 259.715 29.6832 260.848 29.1166 262.17C28.5499 263.493 27.9832 264.626 27.0387 265.571C26.0943 266.515 25.1498 267.46 24.0164 268.026C22.8831 268.593 21.7497 268.971 20.6163 268.971C19.8608 268.971 19.2941 268.782 19.1052 268.782C18.9163 268.782 18.7274 268.593 18.5385 268.593C18.3496 268.593 18.1607 268.404 17.9718 268.404C17.7829 268.404 17.594 268.215 17.4051 268.215C17.2162 268.215 17.0273 268.026 16.8384 268.026C16.0829 268.593 15.1384 268.971 14.1939 268.971C13.4384 268.971 13.0606 268.971 12.8717 268.593L12.6828 267.648C12.4939 267.271 12.8717 266.893 13.8161 266.515C14.5717 266.137 15.5162 265.948 16.2718 265.948C16.6496 265.948 16.8384 265.948 16.8384 265.948H17.0273C17.2162 265.948 17.594 265.571 18.1607 264.815C18.7274 264.059 19.1052 263.493 19.2941 263.115C19.6719 262.548 19.8608 261.982 20.0496 261.604C20.2385 261.226 20.4274 260.848 20.6163 260.47C21.5608 258.582 22.8831 256.881 24.2053 255.559L24.9609 256.126ZM28.7388 265.571L28.1721 267.082L29.1166 266.515C29.1166 267.082 29.3055 267.46 29.8721 267.837C30.4388 268.215 31.0055 268.404 31.5722 268.404C32.3278 268.404 33.2722 268.215 34.2167 268.026C35.1612 267.648 35.9167 267.46 36.4834 266.893L37.0501 265.193C36.4834 265.571 35.7278 265.948 34.9723 266.137C34.2167 266.515 33.4611 266.704 32.8944 266.704C32.3278 266.704 31.95 266.515 31.7611 266.326C31.5722 266.137 31.3833 265.759 31.5722 265.382C34.2167 264.626 36.1056 263.871 37.0501 262.926C38.1835 261.982 38.5613 261.226 38.5613 260.282C38.5613 259.904 38.3724 259.526 37.9946 259.148C37.6168 258.77 37.239 258.77 36.6723 258.77C36.1056 258.77 35.3501 258.959 34.5945 259.148C33.8389 259.526 33.0833 259.904 32.3278 260.47C31.5722 261.037 31.0055 261.793 30.4388 262.359C29.8721 263.115 29.4943 263.871 29.3055 264.626L28.7388 265.571ZM31.95 264.248C32.3278 263.304 32.8944 262.548 33.8389 261.793C34.5945 261.037 35.3501 260.659 35.9167 260.659C36.2945 260.659 36.2945 260.848 36.2945 261.037C36.2945 261.415 35.9167 261.982 34.9723 262.737C34.0278 263.493 33.0833 264.059 31.95 264.248ZM45.1726 258.582L46.8726 259.337L45.3614 262.548C45.1726 262.737 45.1725 263.115 44.9837 263.304C44.7948 263.493 44.7948 263.871 44.6059 264.059C44.417 264.437 44.2281 264.815 44.2281 265.004C44.2281 265.193 44.2281 265.382 44.2281 265.571C44.2281 265.948 44.417 266.137 44.6059 266.137C44.9837 266.137 45.7392 265.948 46.8726 265.193L46.3059 266.893C44.7948 267.837 43.6614 268.404 43.2836 268.404C42.9058 268.404 42.7169 268.215 42.3391 268.026C42.1502 267.837 41.9614 267.46 41.9614 267.082C41.9614 266.515 42.1502 265.759 42.7169 264.815C42.7169 264.815 42.9058 264.626 42.9058 264.437C42.9058 264.437 42.9058 264.248 43.0947 264.059L42.9058 263.871C42.9058 263.871 42.9058 263.871 42.7169 264.059C42.7169 264.059 42.7169 264.059 42.528 264.248C42.3391 264.437 42.3391 264.626 42.1502 264.815C41.2058 265.948 40.4502 266.893 39.6946 267.46C38.939 268.026 38.1835 268.404 37.4279 268.404C36.2945 268.404 35.7278 267.837 35.7278 266.893C35.7278 266.515 35.7278 266.137 35.9167 265.948L37.8057 265.004C37.8057 265.193 37.8057 265.571 37.8057 265.759C37.8057 265.948 37.8057 266.137 37.8057 266.326C37.8057 266.515 37.9946 266.515 38.1835 266.515C38.939 266.515 39.8835 265.571 41.3947 263.682C43.0947 261.982 44.2281 260.282 45.1726 258.582ZM56.6951 259.526L58.3951 260.47L56.3173 264.626C55.9395 265.382 55.7506 265.759 55.7506 266.137C55.7506 266.326 55.9395 266.515 56.1284 266.515C56.3173 266.515 56.6951 266.326 57.4507 265.948C58.2062 265.571 58.584 265.382 58.7729 265.382L58.2062 267.082C56.884 268.026 55.7506 268.593 54.995 268.593C54.6172 268.593 54.2395 268.404 54.0506 268.215C53.8617 268.026 53.6728 267.648 53.6728 267.271C53.6728 267.082 53.6728 266.515 54.0506 265.948C54.0506 265.948 54.0506 265.948 54.0506 265.759V265.571H53.8617C53.8617 265.571 53.8617 265.571 53.6728 265.759C52.9172 266.515 52.1616 267.271 51.4061 267.648C50.6505 268.026 49.8949 268.404 49.3282 268.404C48.7615 268.404 48.3837 268.215 48.006 267.837C47.6282 267.46 47.4393 266.893 47.4393 265.948C47.4393 265.004 47.8171 264.059 48.7615 262.926C49.5171 261.793 50.4616 260.848 51.5949 260.093C52.7283 259.337 53.6728 258.959 54.4284 258.959C55.3728 258.959 55.9395 259.148 56.5062 259.904L56.6951 259.526ZM55.7506 261.037C55.5617 260.659 55.1839 260.47 54.6172 260.47C54.0506 260.47 53.295 260.848 52.5394 261.415C51.7838 261.982 51.0283 262.737 50.4616 263.493C49.8949 264.248 49.5171 265.004 49.5171 265.571C49.5171 266.137 49.706 266.515 50.2727 266.515C50.6505 266.515 51.0283 266.326 51.7838 265.948C52.3505 265.571 52.9172 265.004 53.4839 264.437C54.0506 263.871 54.4284 263.493 54.6172 263.115L55.7506 261.037ZM77.2845 259.715L78.9846 260.659C77.0956 264.059 75.5845 267.082 74.2622 269.537C73.1289 271.993 72.3733 273.693 71.9955 274.449L69.7288 273.693C70.4843 272.182 71.051 271.048 71.6177 270.104C72.1844 269.16 72.7511 268.215 73.3178 267.271C73.5066 267.082 73.5066 266.893 73.6955 266.704C73.6955 266.704 73.6955 266.704 73.6955 266.515V266.326C73.6955 266.326 73.6955 266.137 73.8844 266.137C73.8844 266.137 73.6955 266.137 73.6955 266.326L73.5066 266.515L73.3178 266.704C71.8066 268.026 70.4843 268.782 69.351 268.782C68.7843 268.782 68.4065 268.593 68.0287 268.404C67.6509 268.026 67.462 267.648 67.2731 266.893C67.2731 265.948 67.6509 264.815 68.4065 263.682C69.1621 262.548 70.2955 261.604 71.6177 260.659C72.94 259.904 74.0733 259.526 75.0178 259.526C75.7734 259.526 76.3401 259.904 76.9067 260.47L77.2845 259.715ZM76.3401 261.226C76.1512 260.848 75.7734 260.659 75.3956 260.659C74.8289 260.659 74.2622 261.037 73.3178 261.604C72.3733 262.17 71.6177 262.926 71.051 263.682C70.4843 264.437 70.1066 265.193 70.1066 265.948C70.1066 266.326 70.2955 266.704 70.6732 266.704C71.051 266.704 71.6177 266.515 72.3733 266.137C73.1289 265.759 73.6955 265.004 74.4511 264.248C75.2067 263.304 75.7734 262.17 76.3401 261.226ZM85.407 258.582C83.3291 259.337 81.6291 260.282 80.3068 261.793C78.9846 263.115 78.229 264.626 78.229 266.137C78.229 267.837 79.1735 268.782 80.8735 268.782C82.0069 268.782 82.9513 268.404 84.0847 267.648C85.2181 266.893 85.9736 265.948 86.5403 264.626C87.107 263.304 87.2959 261.982 87.107 260.659L84.8403 261.226C85.0292 262.359 84.8403 263.304 84.4625 264.248C84.0847 265.193 83.7069 265.948 83.1402 266.326C82.5736 266.893 82.0069 267.082 81.6291 267.082C81.0624 267.082 80.6846 266.704 80.6846 266.137C80.4957 265.571 80.6846 264.815 81.0624 264.059C81.4402 263.304 82.1958 262.359 82.9513 261.604C83.8958 260.848 84.8403 260.282 85.7848 259.904L85.407 258.582ZM91.2627 258.959L92.7738 259.904L90.1293 264.626L90.3182 264.437L90.5071 264.248C90.696 264.059 90.8849 263.871 91.0738 263.871C91.2627 263.682 91.2627 263.493 91.4516 263.493C92.2072 262.737 92.9627 261.982 93.9072 261.226C94.8517 260.47 95.7961 259.715 97.1184 258.959L98.0629 260.47C97.1184 260.848 95.985 261.415 95.0406 262.17C94.0961 262.737 93.1516 263.493 92.5849 264.059V264.248C92.7738 264.248 92.9627 264.248 93.1516 264.248C93.7183 264.248 93.9072 264.626 93.7183 265.193C93.7183 265.382 93.5294 265.571 93.3405 265.948C93.3405 266.137 93.1516 266.326 93.1516 266.515V266.704C93.1516 266.893 93.3405 267.082 93.5294 267.271C93.9072 267.271 94.4739 267.082 95.0406 266.704C95.7961 266.326 96.3628 265.948 96.9295 265.382L96.3628 267.082C94.8517 268.404 93.5294 268.971 92.2072 268.971C91.2627 268.971 90.8849 268.404 90.8849 267.46C90.8849 267.082 90.8849 266.704 91.0738 266.326C91.0738 266.326 91.0738 266.137 91.2627 266.137C91.2627 266.137 91.2627 265.948 91.4516 265.948V265.759C91.4516 265.571 91.4516 265.571 91.2627 265.571C91.0738 265.571 90.5071 265.948 89.7515 266.704C88.996 267.46 88.4293 268.215 87.8626 268.782L86.1625 268.404L91.2627 258.959ZM107.13 259.526L106.752 260.093C106.185 259.526 105.619 259.148 104.674 259.148C103.919 259.148 102.785 259.526 101.841 260.282C100.707 261.037 99.7629 261.982 99.0073 263.115C98.2518 264.248 97.874 265.193 97.6851 266.137C97.6851 266.893 97.874 267.648 98.2518 268.026C98.6295 268.404 99.1962 268.593 99.574 268.593C100.141 268.593 100.896 268.404 101.652 267.837C102.407 267.46 103.163 266.704 103.919 265.948C104.107 265.759 104.107 265.759 104.107 265.759H104.296V265.948C104.296 265.948 104.296 265.948 104.296 266.137C103.919 266.704 103.919 267.271 103.919 267.46C103.919 267.837 104.107 268.215 104.296 268.404C104.485 268.593 104.863 268.782 105.241 268.782C105.996 268.782 107.13 268.215 108.452 267.271L109.019 265.571C108.83 265.759 108.452 265.948 107.696 266.137C106.941 266.515 106.563 266.704 106.374 266.704C106.185 266.704 105.996 266.515 105.996 266.326C105.996 266.137 106.185 265.571 106.563 264.815L108.641 260.659L107.13 259.526ZM106.374 261.037L105.241 263.304C105.052 263.682 104.674 264.059 104.107 264.626C103.541 265.193 102.974 265.571 102.407 266.137C101.841 266.704 101.274 266.704 100.896 266.704C100.33 266.704 100.141 266.326 100.141 265.759C100.141 265.193 100.518 264.437 101.085 263.682C101.652 262.926 102.407 262.17 103.163 261.604C103.919 261.037 104.674 260.659 105.241 260.659C105.619 260.47 105.996 260.659 106.374 261.037ZM112.041 260.093C112.797 259.526 113.552 259.148 114.119 258.959C114.686 258.77 115.063 258.77 115.252 258.77C116.386 258.77 116.952 259.337 116.763 260.47C116.763 261.226 116.386 262.17 115.63 263.115C115.63 263.115 115.441 263.304 115.441 263.493C115.441 263.493 115.441 263.682 115.252 263.682C115.252 263.682 115.252 263.871 115.063 263.871H115.252C115.819 263.304 116.574 262.737 117.519 261.793C118.275 260.848 119.03 260.093 119.597 259.337L120.73 260.093L119.408 262.548C119.03 263.304 118.841 263.682 118.841 263.871H119.03C119.219 263.682 119.597 263.493 120.163 262.926C120.73 262.548 121.297 261.982 121.675 261.793C122.052 261.415 122.619 261.037 123.186 260.659C123.752 260.282 124.508 259.904 125.075 259.526L125.83 260.848C124.13 261.793 122.997 262.548 122.43 263.493C121.864 264.248 121.486 265.004 121.486 265.571C121.486 266.137 121.675 266.515 122.052 266.515C122.241 266.515 123.375 266.137 125.264 265.004L124.697 266.704C123.186 267.648 121.864 268.215 121.108 268.215C120.352 268.215 119.975 268.026 119.786 267.648C119.597 267.271 119.597 266.893 119.597 266.515C119.597 265.759 119.786 265.193 120.163 264.626C120.163 264.626 120.163 264.626 120.163 264.437C120.163 264.437 120.163 264.437 120.163 264.248C120.163 264.248 120.163 264.248 120.163 264.059C119.408 264.626 118.652 265.382 118.086 266.137C117.519 266.893 116.952 267.648 116.574 268.404L115.252 267.837L117.519 263.493H117.33C117.141 263.682 116.952 263.871 116.952 263.871C116.763 264.059 116.574 264.248 116.197 264.626C113.552 267.082 111.663 268.404 110.341 268.404C109.774 268.404 109.397 268.215 109.019 267.837C108.641 267.46 108.452 266.893 108.452 266.326C108.452 265.948 108.452 265.571 108.641 265.382L110.53 264.626C110.341 265.004 110.341 265.382 110.152 265.759C110.152 266.137 110.152 266.326 110.341 266.515C110.53 266.704 110.719 266.704 110.908 266.704C111.285 266.704 111.852 266.326 112.608 265.571C113.174 264.815 113.93 263.871 114.308 262.926C114.874 261.982 115.063 261.226 115.063 260.848C115.063 260.47 114.874 260.282 114.497 260.282C114.308 260.282 113.741 260.47 112.797 261.037L112.041 260.093ZM129.041 258.582C128.286 260.093 127.341 261.604 126.397 263.304C125.452 265.004 125.075 266.326 125.075 267.082C125.075 268.026 125.452 268.404 126.208 268.404C127.153 268.593 128.664 267.46 130.93 265.193H131.119C130.742 265.759 130.553 266.137 130.175 266.704C129.986 266.893 129.608 267.648 128.853 268.782C127.908 270.482 127.341 271.993 126.775 273.504L128.853 273.882C129.986 270.671 132.253 266.137 135.275 260.47L133.575 259.715C133.575 259.904 133.386 260.093 133.197 260.093C133.008 260.282 133.008 260.282 133.008 260.47C132.63 261.226 132.064 261.793 131.686 262.359C130.93 263.304 130.175 264.059 129.419 265.004C128.475 265.759 127.908 266.137 127.53 266.137C127.341 266.137 127.153 265.948 127.153 265.759V265.571C127.153 265.382 127.153 265.382 127.341 265.193C127.53 264.815 127.53 264.626 127.719 264.437C127.719 264.437 127.719 264.248 127.908 264.248C127.908 264.248 127.908 264.059 128.097 264.059C128.097 264.059 128.097 263.871 128.286 263.871V263.682L130.553 259.526L129.041 258.582ZM138.297 258.959L139.997 259.904L138.108 263.493L138.297 263.682C138.675 263.304 139.053 263.115 139.242 262.737C139.62 262.359 139.808 262.17 139.808 262.17C140.564 261.415 141.131 260.848 141.508 260.659C142.075 260.282 142.453 260.093 143.02 260.093C143.397 260.093 143.586 260.282 143.964 260.47C144.153 260.659 144.342 260.848 144.342 261.226C144.342 261.415 144.342 261.793 144.153 261.982C144.153 262.17 143.775 262.548 143.397 263.115C143.209 263.304 143.02 263.682 143.02 263.871V264.059C143.02 264.059 143.02 264.059 142.831 264.248L143.02 264.437C144.342 263.115 145.286 262.359 146.042 261.982C146.609 261.604 147.175 261.415 147.364 261.604C147.931 261.604 148.309 261.982 148.309 262.548C148.309 263.115 147.931 263.871 147.364 264.815C147.364 265.004 147.175 265.004 146.986 265.382C146.798 265.571 146.798 265.759 146.609 265.948C146.42 266.326 146.231 266.704 146.231 266.704C146.231 266.893 146.231 266.893 146.42 266.893C146.42 266.893 146.42 266.893 146.609 266.893C146.986 266.893 147.364 266.704 148.12 266.326C148.309 266.326 148.498 266.137 148.686 266.137C148.875 266.137 149.064 265.948 149.442 265.759L148.875 267.46C148.498 267.648 148.12 267.837 147.553 268.026C146.986 268.404 146.609 268.593 146.231 268.782C145.664 268.971 145.286 268.971 144.909 268.971C144.531 268.971 144.153 268.782 143.964 268.593C143.775 268.404 143.775 268.026 143.775 267.46C143.964 267.082 144.342 266.326 144.909 265.193L145.097 265.004L145.286 264.815C145.475 264.437 145.475 264.248 145.475 264.248C145.475 264.059 145.475 264.059 145.286 264.059C144.909 264.059 144.153 264.626 143.02 265.759C141.886 266.893 140.942 268.026 140.186 269.16L138.486 268.593L141.131 263.493C141.131 263.304 141.131 263.115 141.131 263.115C141.131 263.115 140.753 263.304 140.564 263.493C140.186 263.682 139.997 264.059 139.62 264.437C138.864 265.193 138.486 265.571 138.108 265.948C137.542 266.515 137.164 267.082 136.597 267.837C136.219 268.404 135.842 268.971 135.653 269.16L133.764 268.593L138.297 258.959ZM141.131 258.582L141.886 259.715C144.153 258.393 146.231 257.637 148.309 257.637C149.064 257.637 149.631 257.637 150.009 257.826L150.953 255.559C147.742 255.559 144.342 256.693 141.131 258.582ZM162.098 258.959L163.609 259.715L161.531 263.682L161.72 263.871C161.72 263.682 161.909 263.682 161.909 263.682L162.098 263.493C162.098 263.493 162.287 263.304 162.287 263.115C163.231 261.982 164.176 261.226 164.742 260.659C165.498 260.093 165.876 259.904 166.442 259.904C166.631 259.904 167.009 259.904 167.198 260.093C167.387 260.282 167.576 260.47 167.765 260.659C167.954 260.848 167.954 261.226 167.765 261.415C167.765 261.604 167.576 262.17 167.009 263.115C166.82 263.304 166.82 263.682 166.631 263.871C166.442 264.248 166.254 264.437 166.254 264.626C165.876 265.382 165.687 265.759 165.687 265.948C165.687 266.137 165.876 266.326 166.065 266.326C166.065 266.326 166.254 266.326 166.631 266.137C166.82 266.137 167.009 265.948 167.198 265.948C167.954 265.571 168.331 265.382 168.52 265.382L167.954 267.082C167.387 267.46 166.631 267.837 166.065 268.026C165.498 268.404 164.931 268.404 164.742 268.404C163.987 268.404 163.42 268.026 163.42 267.082C163.42 266.515 163.798 265.759 164.365 264.626C164.554 264.248 164.742 263.871 164.931 263.493C165.309 262.926 165.309 262.548 165.309 262.548C165.309 262.359 165.12 262.359 164.931 262.359C164.554 262.359 164.365 262.548 163.798 263.115C163.231 263.682 162.853 264.059 162.665 264.248C162.098 264.815 161.72 265.382 161.342 265.759C161.153 265.948 160.965 266.326 160.209 267.082C160.02 267.271 159.831 267.46 159.642 267.837C159.453 268.215 159.076 268.404 158.698 268.782L157.187 268.215L162.098 258.959ZM176.265 258.582L176.643 259.904C175.509 260.282 174.565 260.848 173.809 261.604C172.865 262.359 172.298 263.115 171.92 264.059C171.543 264.815 171.354 265.571 171.543 266.137C171.732 266.704 171.92 267.082 172.487 267.082C172.865 267.082 173.432 266.893 173.998 266.326C174.565 265.759 174.943 265.004 175.321 264.248C175.698 263.304 175.698 262.359 175.698 261.226L177.965 260.659C178.154 261.982 177.965 263.304 177.398 264.626C176.832 265.948 176.076 266.893 174.943 267.648C173.809 268.404 172.865 268.782 171.732 268.782C170.031 268.782 169.087 267.837 169.087 266.137C169.087 264.626 169.843 263.304 171.165 261.793C172.487 260.282 174.187 259.337 176.265 258.582ZM180.798 258.582L182.31 259.337L180.798 262.359C180.798 262.548 180.61 262.548 180.61 262.737C180.61 262.737 180.61 262.737 180.61 262.926C180.61 262.926 180.61 262.926 180.61 263.115C180.61 263.115 180.61 263.115 180.61 263.304C180.61 263.493 180.61 263.682 180.987 263.682C181.365 263.682 181.932 263.304 182.876 262.548C183.632 261.793 184.387 261.037 185.143 259.904L186.465 260.659L184.387 265.004C184.01 265.571 184.01 266.137 184.01 266.326C184.01 266.515 184.01 266.704 184.199 266.704C184.199 266.704 184.387 266.704 184.576 266.704C184.954 266.515 185.521 266.326 185.899 266.137C186.087 265.948 186.276 265.948 186.465 265.759C186.654 265.759 186.843 265.571 187.032 265.571L186.465 267.271C184.954 268.215 183.821 268.782 183.065 268.782C182.121 268.782 181.743 268.404 181.743 267.648C181.743 267.082 182.121 266.137 183.065 264.815C183.254 264.437 183.443 264.248 183.443 264.248C183.632 264.059 183.632 263.871 183.632 263.871H183.443C182.876 264.437 182.121 264.815 181.554 265.193C180.987 265.571 180.232 265.759 179.854 265.759C179.476 265.759 179.098 265.571 178.909 265.382C178.721 265.193 178.532 264.815 178.532 264.437C178.532 264.059 178.721 263.682 178.909 263.304L180.798 258.582ZM186.654 265.571L186.087 267.082L187.032 266.515C187.032 267.082 187.221 267.46 187.788 267.837C188.354 268.215 188.921 268.404 189.488 268.404C190.243 268.404 191.188 268.215 192.132 268.026C193.077 267.648 193.832 267.46 194.399 266.893L194.965 265.193C194.399 265.571 193.643 265.948 192.888 266.137C192.132 266.515 191.376 266.704 190.81 266.704C190.243 266.704 189.865 266.515 189.676 266.326C189.488 266.137 189.299 265.759 189.488 265.382C192.132 264.626 194.021 263.871 194.965 262.926C196.099 261.982 196.477 261.226 196.477 260.282C196.477 259.904 196.288 259.526 195.91 259.148C195.532 258.77 195.154 258.77 194.588 258.77C194.021 258.77 193.265 258.959 192.51 259.148C191.754 259.526 190.999 259.904 190.243 260.47C189.488 261.037 188.921 261.793 188.354 262.359C187.787 263.115 187.41 263.871 187.221 264.626L186.654 265.571ZM189.865 264.248C190.243 263.304 190.81 262.548 191.754 261.793C192.51 261.037 193.265 260.659 193.832 260.659C194.21 260.659 194.21 260.848 194.21 261.037C194.21 261.415 193.832 261.982 192.888 262.737C191.943 263.493 190.999 264.059 189.865 264.248ZM203.466 258.582L204.977 259.526L202.899 263.871C202.521 264.626 202.143 265.193 202.143 265.382V265.571C202.143 265.571 202.143 265.759 202.332 265.759C202.521 265.759 203.088 265.382 203.843 264.815C204.599 264.059 205.355 263.304 206.11 262.17C206.866 261.226 207.621 260.282 207.999 259.337L209.51 260.282L207.244 264.437C207.244 264.626 207.055 264.815 206.866 265.193C206.677 265.571 206.677 265.759 206.677 265.948C206.677 266.326 206.866 266.326 207.055 266.326C207.055 266.326 207.244 266.326 207.432 266.326C207.621 266.326 207.621 266.137 207.81 266.137C207.999 266.137 208.188 265.948 208.377 265.948C208.566 265.759 208.755 265.759 208.944 265.571C209.133 265.571 209.321 265.382 209.321 265.382L208.755 267.082C207.055 268.026 205.921 268.593 205.355 268.593C204.599 268.593 204.221 268.215 204.221 267.46C204.221 266.893 204.599 266.137 205.355 264.815L205.166 264.626C202.71 267.082 201.199 268.404 200.443 268.593C200.255 268.593 199.877 268.593 199.688 268.404C199.499 268.215 199.31 268.026 199.31 267.648C199.31 267.082 199.499 266.326 200.255 265.382C200.255 265.382 200.255 265.193 200.443 265.193C200.443 265.193 200.443 265.004 200.632 265.004C200.632 265.004 200.632 264.815 200.821 264.815V264.626L200.632 264.437C200.443 264.626 200.443 264.626 200.255 264.815C200.066 265.004 200.066 265.004 199.877 265.193C199.688 265.382 199.499 265.759 199.31 265.948C199.121 266.137 198.932 266.326 198.743 266.515C197.421 267.837 196.288 268.593 195.343 268.593C194.965 268.593 194.588 268.404 194.21 268.215C193.832 268.026 193.643 267.648 193.643 267.082C193.643 266.704 193.643 266.326 193.832 266.137L195.721 265.193C195.721 265.382 195.721 265.759 195.721 265.948C195.721 266.137 195.721 266.326 195.721 266.515C195.721 266.704 195.91 266.704 196.099 266.704C196.477 266.704 197.043 266.326 197.61 265.759C198.177 265.193 198.932 264.437 199.688 263.493C200.443 262.548 201.199 261.604 201.766 260.659C202.71 259.526 203.277 258.959 203.466 258.582ZM213.477 258.582L215.177 259.526L212.91 263.682V263.871C212.91 263.871 212.91 264.059 212.722 264.059C212.722 264.059 212.722 264.248 212.533 264.248C212.533 264.248 212.533 264.437 212.344 264.437C212.344 264.626 212.155 264.815 211.966 265.193C211.966 265.382 211.777 265.571 211.777 265.571V265.759C211.777 265.948 211.966 266.137 212.155 266.137C212.533 266.137 213.099 265.759 214.044 265.004C214.988 264.248 215.744 263.304 216.31 262.359C216.688 261.793 217.066 261.226 217.633 260.47C217.633 260.47 217.633 260.282 217.822 260.093C218.011 259.904 218.011 259.715 218.199 259.715L219.899 260.47C216.688 266.137 214.61 270.671 213.477 273.882L211.399 273.504C211.777 271.993 212.533 270.482 213.477 268.782C214.233 267.648 214.61 266.893 214.799 266.704C214.988 266.326 215.366 265.759 215.744 265.193H215.555C213.477 267.46 211.777 268.404 210.833 268.404C210.077 268.404 209.699 267.837 209.699 267.082C209.699 266.326 210.077 265.193 211.021 263.304C211.777 261.604 212.533 260.093 213.477 258.582ZM231.422 258.959L233.122 259.715L231.233 263.493H231.422H231.611C231.8 263.493 231.989 263.493 232.178 263.304C232.366 263.304 232.555 263.304 232.744 263.115C232.933 263.115 233.122 263.115 233.311 263.115C233.5 263.115 233.689 263.115 233.878 263.115H234.067H234.255L235.767 259.904L237.467 260.659L235.2 265.193C235.2 265.193 235.011 265.571 234.822 265.948V266.137V266.326C234.822 266.326 234.822 266.326 234.822 266.515C234.822 266.515 234.822 266.515 234.822 266.704C234.822 266.893 235.011 267.082 235.2 267.082C235.389 267.082 235.767 266.893 236.144 266.704C236.144 266.704 236.333 266.704 236.333 266.515C236.333 266.515 236.522 266.515 236.522 266.326C236.522 266.326 236.711 266.326 236.711 266.137C236.9 266.137 237.089 265.948 237.089 265.948C237.278 265.948 237.467 265.759 237.656 265.759L237.089 267.46C235.389 268.404 234.255 268.971 233.5 268.971C233.122 268.971 232.744 268.782 232.366 268.593C232.178 268.404 231.989 268.026 231.989 267.648C231.989 267.271 232.178 266.893 232.366 266.515C232.555 266.137 232.744 265.759 232.933 265.382C232.933 265.193 232.933 265.193 233.122 265.004C233.122 265.004 233.311 264.815 233.311 264.626C232.178 264.815 231.044 265.004 229.911 265.382L228.211 268.971L226.133 268.404L231.422 258.959Z" fill="black"/>
<path fill-rule="evenodd" clip-rule="evenodd" d="M247.856 259.527L249.556 260.472L247.478 264.627C247.1 265.383 246.911 265.761 246.911 266.139C246.911 266.328 247.1 266.516 247.289 266.516C247.478 266.516 247.856 266.328 248.611 265.95C249.367 265.572 249.745 265.383 249.933 265.383L249.367 267.083C248.044 268.028 246.911 268.594 246.156 268.594C245.778 268.594 245.4 268.405 245.211 268.216C245.022 268.028 244.833 267.65 244.833 267.272C244.833 267.083 244.833 266.516 245.211 265.95C245.211 265.95 245.211 265.95 245.211 265.761V265.572H245.022C245.022 265.572 245.022 265.572 244.833 265.761C244.078 266.516 243.322 267.272 242.567 267.65C241.811 268.028 241.055 268.405 240.489 268.405C239.922 268.405 239.544 268.216 239.166 267.839C238.789 267.461 238.6 266.894 238.6 265.95C238.6 265.005 238.978 264.061 239.922 262.927C240.678 261.794 241.622 260.85 242.755 260.094C243.889 259.338 244.833 258.961 245.589 258.961C246.533 258.961 247.1 259.15 247.667 259.905L247.856 259.527ZM247.1 261.038C246.911 260.661 246.533 260.472 245.967 260.472C245.4 260.472 244.644 260.85 243.889 261.416C243.133 261.983 242.378 262.739 241.811 263.494C241.244 264.25 240.867 265.005 240.867 265.572C240.867 266.139 241.055 266.516 241.622 266.516C242 266.516 242.378 266.328 243.133 265.95C243.7 265.572 244.267 265.005 244.833 264.439C245.4 263.872 245.778 263.494 245.967 263.116L247.1 261.038ZM258.056 258.583C257.867 258.772 257.489 259.527 256.734 260.472C255.978 261.416 255.222 262.361 254.656 263.305C253.9 264.25 253.145 265.005 252.578 265.572C252.011 266.139 251.445 266.516 251.067 266.516C250.878 266.516 250.689 266.516 250.689 266.327C250.689 266.139 250.689 265.95 250.689 265.761C250.689 265.383 250.689 265.194 250.689 265.005L248.8 265.95C248.611 266.328 248.611 266.516 248.611 266.894C248.611 267.461 248.8 267.839 249.178 268.028C249.556 268.216 249.933 268.405 250.311 268.405C251.256 268.405 252.389 267.65 253.711 266.327C253.9 266.139 254.089 265.95 254.278 265.761C254.467 265.572 254.656 265.383 254.845 265.005C255.034 264.816 255.034 264.816 255.222 264.627C255.411 264.439 255.411 264.439 255.6 264.25L255.789 264.439V264.627C255.789 264.627 255.789 264.816 255.6 264.816C255.6 264.816 255.6 265.005 255.411 265.005C255.411 265.005 255.411 265.194 255.222 265.194C254.656 266.139 254.278 267.083 254.278 267.461C254.278 267.839 254.467 268.028 254.656 268.216C254.845 268.405 255.034 268.405 255.411 268.405C256.167 268.405 257.678 267.083 260.134 264.439L260.323 264.627C259.567 265.761 259.189 266.705 259.189 267.272C259.189 268.028 259.567 268.405 260.323 268.405C260.889 268.405 262.023 267.839 263.723 266.894L264.289 265.194C264.1 265.194 264.1 265.383 263.912 265.383C263.723 265.383 263.534 265.572 263.345 265.761C263.156 265.95 262.778 265.95 262.778 265.95C262.589 265.95 262.589 266.139 262.4 266.139C262.212 266.139 262.023 266.139 262.023 266.139C261.834 266.139 261.645 265.95 261.645 265.761C261.645 265.761 261.645 265.383 261.834 265.005C262.023 264.627 262.212 264.439 262.212 264.25L264.478 260.094L262.967 259.15C262.4 259.905 261.834 260.85 261.078 261.983C260.323 262.927 259.567 263.872 258.811 264.627C258.056 265.383 257.678 265.572 257.3 265.572C257.3 265.572 257.111 265.572 257.111 265.383V265.194C257.111 265.005 257.3 264.439 257.867 263.683L259.945 259.338L258.056 258.583ZM276.756 258.961L278.268 259.716L276.19 263.683L276.379 263.872C276.379 263.683 276.567 263.683 276.567 263.683L276.756 263.494C276.756 263.494 276.945 263.305 276.945 263.116C277.89 261.983 278.834 261.227 279.401 260.661C280.156 260.094 280.534 259.905 281.101 259.905C281.29 259.905 281.668 259.905 281.856 260.094C282.045 260.283 282.234 260.472 282.423 260.661C282.612 260.85 282.612 261.227 282.423 261.416C282.423 261.605 282.234 262.172 281.668 263.116C281.479 263.305 281.479 263.683 281.29 263.872C281.101 264.25 280.912 264.439 280.912 264.627C280.534 265.383 280.345 265.761 280.345 265.95C280.345 266.139 280.534 266.327 280.723 266.327C280.723 266.327 280.912 266.328 281.29 266.139C281.479 266.139 281.668 265.95 281.856 265.95C282.612 265.572 282.99 265.383 283.179 265.383L282.612 267.083C282.045 267.461 281.29 267.839 280.723 268.028C280.156 268.405 279.59 268.405 279.401 268.405C278.645 268.405 278.079 268.028 278.079 267.083C278.079 266.516 278.456 265.761 279.023 264.627C279.212 264.25 279.401 263.872 279.59 263.494C279.968 262.927 279.968 262.55 279.968 262.55C279.968 262.361 279.779 262.361 279.59 262.361C279.212 262.361 279.023 262.55 278.456 263.116C277.89 263.683 277.512 264.061 277.323 264.25C276.756 264.816 276.379 265.383 276.001 265.761C275.812 265.95 275.623 266.328 274.867 267.083C274.679 267.272 274.49 267.461 274.301 267.839C274.112 268.216 273.734 268.405 273.356 268.783L271.845 268.216L276.756 258.961ZM290.923 258.583L291.301 259.905C290.168 260.283 289.223 260.85 288.468 261.605C287.523 262.361 286.957 263.116 286.579 264.061C286.201 264.816 286.012 265.572 286.201 266.139C286.39 266.705 286.579 267.083 287.146 267.083C287.523 267.083 288.09 266.894 288.657 266.327C289.223 265.761 289.601 265.005 289.979 264.25C290.357 263.305 290.357 262.361 290.357 261.227L292.623 260.661C292.812 261.983 292.623 263.305 292.057 264.627C291.49 265.95 290.735 266.894 289.601 267.65C288.468 268.405 287.523 268.783 286.39 268.783C284.69 268.783 283.745 267.839 283.745 266.139C283.745 264.627 284.501 263.305 285.823 261.794C287.146 260.283 288.846 259.338 290.923 258.583ZM305.09 258.961L306.602 259.716L304.524 263.683L304.713 263.872C304.713 263.683 304.902 263.683 304.902 263.683L305.09 263.494C305.09 263.494 305.279 263.305 305.279 263.116C306.224 261.983 307.168 261.227 307.735 260.661C308.491 260.094 308.868 259.905 309.435 259.905C309.624 259.905 310.002 259.905 310.191 260.094C310.379 260.283 310.568 260.472 310.757 260.661C310.946 260.85 310.946 261.227 310.757 261.416C310.757 261.605 310.568 262.172 310.002 263.116C309.813 263.305 309.813 263.683 309.624 263.872C309.435 264.25 309.246 264.439 309.246 264.627C308.868 265.383 308.679 265.761 308.679 265.95C308.679 266.139 308.868 266.327 309.057 266.327C309.057 266.327 309.246 266.328 309.624 266.139C309.813 266.139 310.002 265.95 310.191 265.95C310.946 265.572 311.324 265.383 311.513 265.383L310.946 267.083C310.38 267.461 309.624 267.839 309.057 268.028C308.491 268.405 307.924 268.405 307.735 268.405C306.979 268.405 306.413 268.028 306.413 267.083C306.413 266.516 306.791 265.761 307.357 264.627C307.546 264.25 307.735 263.872 307.924 263.494C308.302 262.927 308.302 262.55 308.302 262.55C308.302 262.361 308.113 262.361 307.924 262.361C307.546 262.361 307.357 262.55 306.79 263.116C306.224 263.683 305.846 264.061 305.657 264.25C305.09 264.816 304.713 265.383 304.335 265.761C304.146 265.95 303.957 266.328 303.202 267.083C303.013 267.272 302.824 267.461 302.635 267.839C302.446 268.216 302.068 268.405 301.69 268.783L300.179 268.216L305.09 258.961ZM315.669 258.583L317.369 259.527L315.102 263.683V263.872C315.102 263.872 315.102 264.061 314.913 264.061C314.913 264.061 314.913 264.25 314.724 264.25C314.724 264.25 314.724 264.439 314.535 264.439C314.535 264.627 314.346 264.816 314.157 265.194C314.157 265.383 313.968 265.572 313.968 265.572V265.761C313.968 265.95 314.157 266.139 314.346 266.139C314.724 266.139 315.291 265.761 316.235 265.005C317.18 264.25 317.935 263.305 318.502 262.361C318.88 261.794 319.258 261.227 319.824 260.472C319.824 260.472 319.824 260.283 320.013 260.094C320.202 259.905 320.202 259.716 320.391 259.716L322.091 260.472C318.88 266.139 316.802 270.672 315.669 273.883L313.591 273.505C313.968 271.994 314.724 270.483 315.669 268.783C316.424 267.65 316.802 266.894 316.991 266.705C317.18 266.328 317.557 265.761 317.935 265.194H317.746C315.669 267.461 313.968 268.405 313.024 268.405C312.268 268.405 311.891 267.839 311.891 267.083C311.891 266.328 312.268 265.194 313.213 263.305C313.968 261.605 314.913 260.094 315.669 258.583ZM325.113 258.961L320.391 268.216L322.28 268.783C322.469 268.594 322.658 268.216 323.224 267.461C323.602 266.894 324.169 266.139 324.735 265.572C325.113 265.194 325.491 264.627 326.247 264.061C326.624 263.683 327.002 263.305 327.191 263.116C327.569 262.927 327.758 262.739 327.758 262.739C327.947 262.739 327.947 262.927 327.758 263.116L325.113 268.216L326.813 268.783C327.569 267.65 328.513 266.516 329.647 265.383C330.78 264.25 331.536 263.683 331.913 263.683C332.102 263.683 332.102 263.683 332.102 263.872C332.102 263.872 332.102 264.061 331.913 264.439L331.725 264.627L331.536 264.816C330.969 265.761 330.591 266.516 330.402 267.083C330.402 267.461 330.402 267.839 330.591 268.216C330.78 268.405 331.158 268.594 331.536 268.594C331.913 268.594 332.291 268.594 332.858 268.405C333.236 268.216 333.802 268.028 334.18 267.65C334.747 267.461 335.125 267.083 335.502 267.083L336.069 265.383C335.88 265.572 335.502 265.572 335.313 265.761C335.125 265.761 334.936 265.95 334.747 265.95C334.18 266.139 333.613 266.328 333.236 266.516H333.047C332.858 266.516 332.858 266.516 332.858 266.327C332.858 266.327 333.047 265.95 333.236 265.572C333.425 265.383 333.425 265.194 333.613 265.005C333.802 264.816 333.802 264.627 333.991 264.439C334.558 263.305 334.936 262.55 334.936 262.172C334.936 261.605 334.558 261.227 333.991 261.227C333.802 261.227 333.236 261.416 332.669 261.605C332.102 261.983 330.969 262.739 329.647 264.061L329.458 263.872L329.647 263.683C329.647 263.683 329.647 263.683 329.647 263.494C329.836 263.305 330.024 263.116 330.024 262.739C330.402 262.172 330.591 261.794 330.78 261.605C330.969 261.227 330.969 261.038 330.969 260.85C330.969 260.472 330.78 260.283 330.591 260.094C330.402 259.905 330.024 259.716 329.647 259.716C329.269 259.716 328.702 259.905 328.136 260.283C327.758 260.472 327.191 261.038 326.435 261.794C326.435 261.794 326.247 261.983 325.869 262.361C325.491 262.739 325.113 262.927 324.924 263.305L324.735 263.116L326.624 259.527L325.113 258.961ZM327.947 258.583C331.158 256.694 334.369 255.561 337.958 255.561L337.014 257.827C336.636 257.638 336.069 257.638 335.313 257.638C333.236 257.638 331.158 258.394 328.891 259.716L327.947 258.583ZM345.325 259.716C344.569 261.038 343.247 262.55 341.547 264.061C341.358 264.25 341.169 264.439 340.98 264.627C340.791 264.816 340.603 265.005 340.603 265.005C340.225 265.194 340.036 265.572 339.847 265.572C339.658 265.761 339.469 265.761 339.28 265.761C339.091 265.761 339.091 265.572 339.091 265.572V265.383C339.091 265.194 339.091 265.005 339.28 264.816L342.114 259.527L340.414 258.583C338.714 261.605 337.769 263.683 337.202 264.816C336.636 265.95 336.447 266.705 336.447 267.083C336.447 267.839 336.825 268.216 337.391 268.216C338.336 268.216 339.847 267.272 341.925 265.194C342.114 265.005 342.491 264.627 342.869 264.439C342.869 264.439 342.869 264.25 343.058 264.25C342.68 264.816 342.303 265.194 342.114 265.761C341.925 266.139 341.736 266.516 341.736 266.894C341.736 267.083 341.736 267.083 341.736 267.272C341.736 267.839 342.114 268.216 342.869 268.216C343.436 268.216 344.569 267.65 346.458 266.705L347.025 265.005C346.647 265.194 346.269 265.383 346.08 265.383C346.08 265.383 345.703 265.572 345.325 265.761C344.947 265.95 344.758 265.95 344.569 265.95C344.38 265.95 344.192 265.761 344.192 265.572C344.192 265.572 344.192 265.383 344.38 265.005L347.025 260.094L345.325 259.716ZM350.425 266.327H351.181C351.747 266.327 351.936 266.516 351.936 266.894C351.936 267.272 351.747 267.65 351.369 268.216C350.992 268.594 350.614 268.783 350.047 268.783C349.481 268.783 349.292 268.594 349.292 268.216C349.292 267.839 349.481 267.461 349.669 267.083C349.858 266.516 350.236 266.327 350.425 266.327ZM358.925 266.327H359.681C360.247 266.327 360.436 266.516 360.436 266.894C360.436 267.272 360.247 267.65 359.87 268.216C359.492 268.594 359.114 268.783 358.547 268.783C357.981 268.783 357.792 268.594 357.792 268.216C357.792 267.839 357.981 267.461 358.17 267.083C358.359 266.516 358.736 266.327 358.925 266.327ZM367.425 266.327H368.181C368.748 266.327 368.937 266.516 368.937 266.894C368.937 267.272 368.748 267.65 368.37 268.216C367.992 268.594 367.614 268.783 367.048 268.783C366.481 268.783 366.292 268.594 366.292 268.216C366.292 267.839 366.481 267.461 366.67 267.083C366.859 266.516 367.237 266.327 367.425 266.327Z" fill="black"/>
<defs>
<linearGradient id="paint0_linear" x1="110.534" y1="127.282" x2="150.983" y2="117.738" gradientUnits="userSpaceOnUse">
<stop stop-color="#82CEE6"/>
<stop offset="1" stop-color="#0097AE"/>
</linearGradient>
<linearGradient id="paint1_linear" x1="135.603" y1="121.398" x2="172.765" y2="112.629" gradientUnits="userSpaceOnUse">
<stop stop-color="#82CEE6"/>
<stop offset="1" stop-color="#0097AE"/>
</linearGradient>
<linearGradient id="paint2_linear" x1="155.141" y1="110.403" x2="196.466" y2="102.657" gradientUnits="userSpaceOnUse">
<stop stop-color="#82CEE6"/>
<stop offset="1" stop-color="#0097AE"/>
</linearGradient>
<linearGradient id="paint3_linear" x1="180.85" y1="105.488" x2="219.529" y2="98.2493" gradientUnits="userSpaceOnUse">
<stop stop-color="#82CEE6"/>
<stop offset="1" stop-color="#0097AE"/>
</linearGradient>
<linearGradient id="paint4_linear" x1="198.624" y1="95.6401" x2="240.297" y2="89.0466" gradientUnits="userSpaceOnUse">
<stop stop-color="#82CEE6"/>
<stop offset="1" stop-color="#0097AE"/>
</linearGradient>
<linearGradient id="paint5_linear" x1="224.55" y1="91.5585" x2="264.069" y2="85.3057" gradientUnits="userSpaceOnUse">
<stop stop-color="#82CEE6"/>
<stop offset="1" stop-color="#0097AE"/>
</linearGradient>
<radialGradient id="paint6_radial" cx="0" cy="0" r="1" gradientUnits="userSpaceOnUse" gradientTransform="translate(141.088 101.171) scale(56.2968)">
<stop stop-color="#5BBECF"/>
<stop offset="1" stop-color="#0097AE"/>
</radialGradient>
<radialGradient id="paint7_radial" cx="0" cy="0" r="1" gradientUnits="userSpaceOnUse" gradientTransform="translate(157.977 170.967) scale(56.2957)">
<stop stop-color="#5BBECF"/>
<stop offset="1" stop-color="#0097AE"/>
</radialGradient>
<radialGradient id="paint8_radial" cx="0" cy="0" r="1" gradientUnits="userSpaceOnUse" gradientTransform="translate(186.487 81.272) scale(70.6679)">
<stop stop-color="#5BBECF"/>
<stop offset="1" stop-color="#0097AE"/>
</radialGradient>
<radialGradient id="paint9_radial" cx="0" cy="0" r="1" gradientUnits="userSpaceOnUse" gradientTransform="translate(203.376 169.117) scale(70.7816)">
<stop stop-color="#5BBECF"/>
<stop offset="1" stop-color="#0097AE"/>
</radialGradient>
<radialGradient id="paint10_radial" cx="0" cy="0" r="1" gradientUnits="userSpaceOnUse" gradientTransform="translate(230.256 63.398) scale(83.6062)">
<stop stop-color="#5BBECF"/>
<stop offset="1" stop-color="#0097AE"/>
</radialGradient>
<radialGradient id="paint11_radial" cx="0" cy="0" r="1" gradientUnits="userSpaceOnUse" gradientTransform="translate(247.144 167.48) scale(83.6058)">
<stop stop-color="#5BBECF"/>
<stop offset="1" stop-color="#0097AE"/>
</radialGradient>
</defs>
</svg>
