<svg width="279" height="343" viewBox="0 0 279 343" fill="none" xmlns="http://www.w3.org/2000/svg">
<path fill-rule="evenodd" clip-rule="evenodd" d="M3.61133 155.19L55.3417 115.369V340.526H4.35567L3.61133 155.19Z" fill="url(#paint0_linear)"/>
<path d="M57.5665 342.761H2.11451L0.998047 154.075L57.5665 110.532V342.761ZM6.95262 338.295H53.1006V120.209L5.83612 156.308L6.95262 338.295Z" fill="white"/>
<path fill-rule="evenodd" clip-rule="evenodd" d="M107.078 155.19L55.3477 115.369V340.526H55.7198L106.334 301.822L107.078 155.19Z" fill="url(#paint1_linear)"/>
<path d="M56.456 342.761H52.7344V110.532L109.303 154.075L108.559 302.94L56.456 342.761ZM57.5725 120.209V336.434L104.093 301.079L104.837 156.68L57.5725 120.209Z" fill="white"/>
<path fill-rule="evenodd" clip-rule="evenodd" d="M89.9512 97.1347L141.682 56.9413V171.195V282.099V340.528H90.6955L89.9512 97.1347Z" fill="url(#paint2_linear)"/>
<path d="M143.906 342.759H88.0822L87.3379 96.0164L143.906 52.4736V342.759ZM92.9203 338.293H139.44V61.7776L92.176 98.2494L92.9203 338.293Z" fill="white"/>
<path fill-rule="evenodd" clip-rule="evenodd" d="M193.402 96.7613L141.672 56.5679V115.369V281.725V340.527H142.044L192.658 301.822L193.402 96.7613Z" fill="url(#paint3_linear)"/>
<path d="M143.165 342.762H139.443V51.732L196.012 95.2748L195.268 302.941L143.165 342.762ZM143.909 61.4082V336.063L190.429 300.708L191.174 97.88L143.909 61.4082Z" fill="white"/>
<path fill-rule="evenodd" clip-rule="evenodd" d="M173.324 44.6572L225.055 4.83594V126.533V229.993V340.525H174.069L173.324 44.6572Z" fill="url(#paint4_linear)"/>
<path d="M227.279 342.76H171.827L170.711 43.5428L227.279 0V342.76ZM176.293 338.294H222.813V9.30402L175.549 45.7758L176.293 338.294Z" fill="white"/>
<path fill-rule="evenodd" clip-rule="evenodd" d="M276.775 44.6572L225.045 4.83594V115.368V229.993V340.525H225.417L276.031 301.82L276.775 44.6572Z" fill="url(#paint5_linear)"/>
<path d="M226.153 342.76H222.432V0L279 43.5428L278.256 302.939L226.153 342.76ZM227.27 9.30402V336.061L273.79 300.706L274.534 45.7758L227.27 9.30402Z" fill="white"/>
<path fill-rule="evenodd" clip-rule="evenodd" d="M3.61133 155.19L55.3417 115.369V340.526H4.35567L3.61133 155.19Z" fill="url(#paint6_radial)"/>
<path d="M57.5665 342.761H2.11451L0.998047 154.075L57.5665 110.532V342.761ZM6.95262 338.295H53.1006V120.209L5.83612 156.308L6.95262 338.295Z" fill="white"/>
<path fill-rule="evenodd" clip-rule="evenodd" d="M107.078 155.19L55.3477 115.369V340.526H55.7198L106.334 301.822L107.078 155.19Z" fill="url(#paint7_radial)"/>
<path d="M56.456 342.761H52.7344V110.532L109.303 154.075L108.559 302.94L56.456 342.761ZM57.5725 120.209V336.434L104.093 301.079L104.837 156.68L57.5725 120.209Z" fill="white"/>
<path fill-rule="evenodd" clip-rule="evenodd" d="M89.9512 97.1347L141.682 56.9413V171.195V282.099V340.528H90.6955L89.9512 97.1347Z" fill="url(#paint8_radial)"/>
<path d="M143.906 342.759H88.0822L87.3379 96.0164L143.906 52.4736V342.759ZM92.9203 338.293H139.44V61.7776L92.176 98.2494L92.9203 338.293Z" fill="white"/>
<path fill-rule="evenodd" clip-rule="evenodd" d="M193.402 96.7613L141.672 56.5679V115.369V281.725V340.527H142.044L192.658 301.822L193.402 96.7613Z" fill="url(#paint9_radial)"/>
<path d="M143.165 342.762H139.443V51.732L196.012 95.2748L195.268 302.941L143.165 342.762ZM143.909 61.4082V336.063L190.429 300.708L191.174 97.88L143.909 61.4082Z" fill="white"/>
<path fill-rule="evenodd" clip-rule="evenodd" d="M173.324 44.6572L225.055 4.83594V126.533V229.993V340.525H174.069L173.324 44.6572Z" fill="url(#paint10_radial)"/>
<path d="M227.279 342.76H171.827L170.711 43.5428L227.279 0V342.76ZM176.293 338.294H222.813V9.30402L175.549 45.7758L176.293 338.294Z" fill="white"/>
<path fill-rule="evenodd" clip-rule="evenodd" d="M276.775 44.6572L225.045 4.83594V115.368V229.993V340.525H225.417L276.031 301.82L276.775 44.6572Z" fill="url(#paint11_radial)"/>
<path d="M226.153 342.76H222.432V0L279 43.5428L278.256 302.939L226.153 342.76ZM227.27 9.30402V336.061L273.79 300.706L274.534 45.7758L227.27 9.30402Z" fill="white"/>
<defs>
<linearGradient id="paint0_linear" x1="-12.1538" y1="243.816" x2="64.8318" y2="225.651" gradientUnits="userSpaceOnUse">
<stop stop-color="#82CEE6"/>
<stop offset="1" stop-color="#0097AE"/>
</linearGradient>
<linearGradient id="paint1_linear" x1="35.5647" y1="232.617" x2="106.295" y2="215.928" gradientUnits="userSpaceOnUse">
<stop stop-color="#82CEE6"/>
<stop offset="1" stop-color="#0097AE"/>
</linearGradient>
<linearGradient id="paint2_linear" x1="72.7447" y1="211.696" x2="151.396" y2="196.953" gradientUnits="userSpaceOnUse">
<stop stop-color="#82CEE6"/>
<stop offset="1" stop-color="#0097AE"/>
</linearGradient>
<linearGradient id="paint3_linear" x1="121.666" y1="202.335" x2="195.281" y2="188.558" gradientUnits="userSpaceOnUse">
<stop stop-color="#82CEE6"/>
<stop offset="1" stop-color="#0097AE"/>
</linearGradient>
<linearGradient id="paint4_linear" x1="155.512" y1="183.594" x2="234.826" y2="171.045" gradientUnits="userSpaceOnUse">
<stop stop-color="#82CEE6"/>
<stop offset="1" stop-color="#0097AE"/>
</linearGradient>
<linearGradient id="paint5_linear" x1="204.847" y1="175.826" x2="280.061" y2="163.925" gradientUnits="userSpaceOnUse">
<stop stop-color="#82CEE6"/>
<stop offset="1" stop-color="#0097AE"/>
</linearGradient>
<radialGradient id="paint6_radial" cx="0" cy="0" r="1" gradientUnits="userSpaceOnUse" gradientTransform="translate(45.9997 194.12) scale(107.147)">
<stop stop-color="#5BBECF"/>
<stop offset="1" stop-color="#0097AE"/>
</radialGradient>
<radialGradient id="paint7_radial" cx="0" cy="0" r="1" gradientUnits="userSpaceOnUse" gradientTransform="translate(78.1492 326.96) scale(107.146)">
<stop stop-color="#5BBECF"/>
<stop offset="1" stop-color="#0097AE"/>
</radialGradient>
<radialGradient id="paint8_radial" cx="0" cy="0" r="1" gradientUnits="userSpaceOnUse" gradientTransform="translate(132.404 156.252) scale(134.499)">
<stop stop-color="#5BBECF"/>
<stop offset="1" stop-color="#0097AE"/>
</radialGradient>
<radialGradient id="paint9_radial" cx="0" cy="0" r="1" gradientUnits="userSpaceOnUse" gradientTransform="translate(164.538 323.438) scale(134.716)">
<stop stop-color="#5BBECF"/>
<stop offset="1" stop-color="#0097AE"/>
</radialGradient>
<radialGradient id="paint10_radial" cx="0" cy="0" r="1" gradientUnits="userSpaceOnUse" gradientTransform="translate(215.716 122.229) scale(159.124 159.124)">
<stop stop-color="#5BBECF"/>
<stop offset="1" stop-color="#0097AE"/>
</radialGradient>
<radialGradient id="paint11_radial" cx="0" cy="0" r="1" gradientUnits="userSpaceOnUse" gradientTransform="translate(247.85 320.323) scale(159.124)">
<stop stop-color="#5BBECF"/>
<stop offset="1" stop-color="#0097AE"/>
</radialGradient>
</defs>
</svg>
