<svg width="707" height="412" viewBox="0 0 707 412" fill="none" xmlns="http://www.w3.org/2000/svg">
<path d="M353.142 320.444C422.217 320.444 478.213 264.448 478.213 195.373C478.213 126.298 422.217 70.3016 353.142 70.3016C284.067 70.3016 228.07 126.298 228.07 195.373C228.07 264.448 284.067 320.444 353.142 320.444Z" fill="#D80027"/>
<path d="M296.518 146.419L307.315 179.641H342.248L314.009 200.209L324.806 233.432L296.518 212.912L268.231 233.432L279.077 200.209L250.789 179.641H285.721L296.518 146.419Z" fill="#FFDA44"/>
<path d="M376.348 264.015L368.092 253.853L355.878 258.592L362.962 247.6L354.705 237.389L367.359 240.76L374.492 229.767L375.176 242.861L387.878 246.232L375.615 250.922L376.348 264.015Z" fill="#FFDA44"/>
<path d="M392.764 234.213L396.672 221.706L385.973 214.133L399.066 213.938L402.926 201.431L407.176 213.84L420.27 213.694L409.766 221.51L413.967 233.92L403.268 226.347L392.764 234.213Z" fill="#FFDA44"/>
<path d="M414.896 162.101L409.131 173.876L418.512 183.012L405.565 181.155L399.8 192.881L397.552 179.983L384.557 178.126L396.184 172.019L393.937 159.072L403.317 168.208L414.896 162.101Z" fill="#FFDA44"/>
<path d="M376.69 126.437L375.713 139.481L387.878 144.416L375.127 147.542L374.199 160.636L367.31 149.497L354.559 152.624L363.011 142.608L356.073 131.518L368.238 136.452L376.69 126.437Z" fill="#FFDA44"/>
<path d="M192.939 237.802V281.435H167.373V322H119.99V281.435H7.1585V237.802L86.5838 83.3833H137.034L57.9498 237.802H119.99V181.216H167.373V237.802H192.939Z" fill="url(#paint0_linear)"/>
<path d="M701.4 237.802V281.435H675.833V322H628.451V281.435H515.619V237.802L595.045 83.3833H645.495L566.411 237.802H628.451V181.216H675.833V237.802H701.4Z" fill="url(#paint1_linear)"/>
<defs>
<linearGradient id="paint0_linear" x1="98.9127" y1="0" x2="98.9127" y2="412" gradientUnits="userSpaceOnUse">
<stop stop-color="#00AFC3"/>
<stop offset="1" stop-color="#0092AC"/>
</linearGradient>
<linearGradient id="paint1_linear" x1="607.374" y1="0" x2="607.374" y2="412" gradientUnits="userSpaceOnUse">
<stop stop-color="#00AFC3"/>
<stop offset="1" stop-color="#0092AC"/>
</linearGradient>
</defs>
</svg>
