<svg width="46" height="54" viewBox="0 0 46 54" fill="none" xmlns="http://www.w3.org/2000/svg">
<path d="M44.5078 9.07031V47.8828H10.7578V0.632812H36.0703L44.5078 9.07031Z" fill="white"/>
<path d="M36.0703 9.07031H44.5078V10.7578H36.0703V9.07031Z" fill="#DCE1E7"/>
<path d="M44.5078 47.8828H10.7578V46.1953H44.5078V47.8828Z" fill="#DCE1E7"/>
<path d="M44.5078 9.07031H36.0703V0.632812" fill="#95A4B6"/>
<path d="M15.8203 14.1328H39.4453V34.3828H15.8203V14.1328Z" fill="#DCE1E7"/>
<path d="M15.8203 32.6953H39.4453V34.3828H15.8203V32.6953Z" fill="#B9C2CF"/>
<path d="M27.6328 31.0078C31.3607 31.0078 34.3828 27.9857 34.3828 24.2578C34.3828 20.5299 31.3607 17.5078 27.6328 17.5078C23.9049 17.5078 20.8828 20.5299 20.8828 24.2578C20.8828 27.9857 23.9049 31.0078 27.6328 31.0078Z" fill="#95A4B6"/>
<path d="M27.6328 29.3203C24.1908 29.3203 21.3527 26.7435 20.9372 23.4141C20.9027 23.6907 20.8828 23.9719 20.8828 24.2578C20.8828 27.9857 23.9049 31.0078 27.6328 31.0078C31.3607 31.0078 34.3828 27.9857 34.3828 24.2578C34.3828 23.9719 34.363 23.6907 34.3284 23.4141C33.913 26.7435 31.0748 29.3203 27.6328 29.3203Z" fill="#72869E"/>
<path d="M0.632812 43.2422H10.7578V53.3672H0.632812V43.2422Z" fill="#B9C2CF"/>
<path d="M9.07031 43.2422H10.7578V53.3672H9.07031V43.2422Z" fill="#95A4B6"/>
<path d="M20.8828 46.6172H31.0078V53.3672H20.8828V46.6172Z" fill="#B9C2CF"/>
<path d="M29.3203 46.6172H31.0078V53.3672H29.3203V46.6172Z" fill="#95A4B6"/>
<path d="M10.7578 39.8672H20.8828V53.3672H10.7578V39.8672Z" fill="#B9C2CF"/>
<path d="M19.1953 39.8672H20.8828V53.3672H19.1953V39.8672Z" fill="#95A4B6"/>
<path d="M27.6328 16.875C23.5619 16.875 20.25 20.1869 20.25 24.2578C20.25 28.3287 23.5619 31.6406 27.6328 31.6406C31.7037 31.6406 35.0156 28.3287 35.0156 24.2578C35.0156 20.1869 31.7037 16.875 27.6328 16.875ZM27.6328 30.375C24.2598 30.375 21.5156 27.6308 21.5156 24.2578C21.5156 20.8848 24.2598 18.1406 27.6328 18.1406C31.0058 18.1406 33.75 20.8848 33.75 24.2578C33.75 27.6308 31.0058 30.375 27.6328 30.375Z" fill="#012D4A"/>
<path d="M15.1875 35.0156H40.0781V13.5H15.1875V35.0156ZM16.4531 14.7656H38.8125V33.75H16.4531V14.7656Z" fill="#012D4A"/>
<path d="M22.5703 37.125H39.4453V38.3906H22.5703V37.125Z" fill="#012D4A"/>
<path d="M24.2578 40.5H39.4453V41.7656H24.2578V40.5Z" fill="#012D4A"/>
<path d="M15.8203 6.75H32.6953V8.01562H15.8203V6.75Z" fill="#012D4A"/>
<path d="M15.8203 10.125H29.3203V11.3906H15.8203V10.125Z" fill="#012D4A"/>
<path d="M45.1406 8.80822L36.3324 0H10.125V42.6094H0V54H31.6406V48.5156H45.1406V8.80822ZM36.7031 2.16053L42.9801 8.4375H36.7031V2.16053ZM11.3906 40.5H20.25V42.6094H11.3906V40.5ZM30.375 49.3594H21.5156V47.25H30.375V49.3594ZM20.25 49.3594H11.3906V47.25H20.25V49.3594ZM20.25 50.625V52.7344H11.3906V50.625H20.25ZM11.3906 45.9844V43.875H20.25V45.9844H11.3906ZM1.26562 43.875H10.125V45.9844H1.26562V43.875ZM10.125 47.25V49.3594H1.26562V47.25H10.125ZM1.26562 50.625H10.125V52.7344H1.26562V50.625ZM21.5156 52.7344V50.625H30.375V52.7344H21.5156ZM31.6406 47.25V45.9844H21.5156V39.2344H11.3906V1.26562H35.4375V9.70312H43.875V47.25H31.6406Z" fill="#012D4A"/>
</svg>
