<svg width="46" height="56" viewBox="0 0 46 56" fill="none" xmlns="http://www.w3.org/2000/svg">
<path d="M45.3549 9.24303V48.7944H10.9624V0.644897H36.7568L45.3549 9.24303Z" fill="white"/>
<path d="M10.9624 47.0747H45.3549V48.7943H10.9624V47.0747Z" fill="#DCE1E7"/>
<path d="M36.7568 9.24292H45.355V10.9625H36.7568V9.24292Z" fill="#DCE1E7"/>
<path d="M45.355 9.24303H36.7568V0.644897" fill="#95A4B6"/>
<path d="M16.1216 16.1216H19.5608V19.5608H16.1216V16.1216Z" fill="#95A4B6"/>
<path d="M16.1216 24.7197H19.5608V28.159H16.1216V24.7197Z" fill="#95A4B6"/>
<path d="M10.9628 54.3832C16.6611 54.3832 21.2805 49.7638 21.2805 44.0654C21.2805 38.3671 16.6611 33.7477 10.9628 33.7477C5.26444 33.7477 0.64502 38.3671 0.64502 44.0654C0.64502 49.7638 5.26444 54.3832 10.9628 54.3832Z" fill="#B9C2CF"/>
<path d="M10.9627 52.6635C5.55391 52.6635 1.11781 48.5015 0.680917 43.2056C0.657487 43.4891 0.64502 43.7757 0.64502 44.0654C0.64502 49.7637 5.26447 54.3831 10.9628 54.3831C16.6611 54.3831 21.2805 49.7637 21.2805 44.0654C21.2805 43.7757 21.268 43.4891 21.2445 43.2056C20.8075 48.5015 16.3714 52.6635 10.9627 52.6635Z" fill="#95A4B6"/>
<path d="M10.9627 47.5047C12.8621 47.5047 14.4019 45.9649 14.4019 44.0655C14.4019 42.166 12.8621 40.6262 10.9627 40.6262C9.06324 40.6262 7.52344 42.166 7.52344 44.0655C7.52344 45.9649 9.06324 47.5047 10.9627 47.5047Z" fill="white"/>
<path d="M10.9629 47.5046C7.96838 47.5046 5.42215 49.4187 4.47754 52.0897C6.24961 53.5237 8.50576 54.3831 10.9629 54.3831C13.42 54.3831 15.6762 53.5237 17.4482 52.0897C16.5036 49.4187 13.9574 47.5046 10.9629 47.5046Z" fill="white"/>
<path d="M11.4453 54.3716C11.5776 54.3655 11.7091 54.3568 11.8401 54.3457C11.8644 54.3437 11.8886 54.3414 11.9128 54.3393C12.0453 54.3271 12.1773 54.3131 12.3083 54.296C12.3229 54.294 12.3374 54.2918 12.352 54.2898C12.4845 54.272 12.6163 54.2519 12.7471 54.2291C12.7546 54.2278 12.7622 54.2268 12.7697 54.2254C12.9031 54.2017 13.0354 54.1752 13.1669 54.1465C13.1855 54.1424 13.2041 54.1385 13.2226 54.1343C13.3519 54.1054 13.4803 54.0741 13.6078 54.0404C13.6236 54.0362 13.6394 54.0319 13.6551 54.0276C13.9251 53.9547 14.1908 53.8715 14.4516 53.7778C14.4569 53.7759 14.4623 53.7741 14.4676 53.7721C14.5969 53.7254 14.7248 53.676 14.8515 53.6244C14.8621 53.6201 14.8728 53.6156 14.8834 53.6113C15.0109 53.5589 15.1373 53.5042 15.2622 53.4469C15.2651 53.4455 15.268 53.4441 15.271 53.4428C15.5301 53.3235 15.7835 53.1938 16.0306 53.0542C16.0318 53.0535 16.033 53.0529 16.0342 53.0521C16.1573 52.9825 16.2789 52.9103 16.399 52.8357C16.4013 52.8342 16.4037 52.8328 16.4062 52.8312C16.7692 52.6053 17.1172 52.3574 17.4482 52.0896C17.2907 51.644 17.0876 51.22 16.8462 50.8219C15.1773 51.9828 13.1497 52.6636 10.9629 52.6636C8.77607 52.6636 6.74852 51.9828 5.07962 50.8221C4.83823 51.2202 4.6351 51.6442 4.47754 52.0898C4.80867 52.3577 5.15668 52.6055 5.51963 52.8314C5.522 52.8329 5.52436 52.8344 5.52683 52.8359C5.64678 52.9105 5.76844 52.9826 5.89161 53.0524C5.89279 53.053 5.89397 53.0536 5.89516 53.0544C6.14225 53.194 6.39568 53.3236 6.6548 53.443C6.65781 53.4443 6.66071 53.4458 6.66361 53.4471C6.7885 53.5045 6.9149 53.5591 7.04236 53.6116C7.053 53.616 7.06364 53.6203 7.07428 53.6246C7.20111 53.6762 7.329 53.7256 7.4583 53.7723C7.46356 53.7743 7.46904 53.7761 7.47431 53.778C7.73505 53.8718 8.00084 53.9549 8.27082 54.0278C8.28662 54.0321 8.30231 54.0364 8.31811 54.0406C8.44558 54.0744 8.57401 54.1056 8.70331 54.1345C8.7219 54.1387 8.74039 54.1426 8.75898 54.1467C8.89053 54.1753 9.02283 54.2019 9.15621 54.2256C9.16374 54.2269 9.17126 54.2279 9.17878 54.2293C9.30958 54.2521 9.44135 54.2722 9.57387 54.2901C9.58848 54.292 9.60299 54.2943 9.61761 54.2962C9.74862 54.3133 9.8806 54.3274 10.0131 54.3395C10.0373 54.3416 10.0616 54.3439 10.0858 54.346C10.2168 54.357 10.3483 54.3657 10.4806 54.3719C10.5023 54.3728 10.5241 54.3735 10.5457 54.3743C10.6841 54.3798 10.8231 54.3835 10.9629 54.3835C11.1027 54.3835 11.2417 54.3799 11.3801 54.3743C11.4018 54.3732 11.4235 54.3727 11.4453 54.3716Z" fill="#DCE1E7"/>
<path d="M37.0241 0H10.3178V33.1223C4.57206 33.4573 0 38.2372 0 44.0654C0 50.1102 4.91781 55.028 10.9626 55.028C15.0561 55.028 18.6322 52.7724 20.5147 49.4393H46V8.97591L37.0241 0ZM37.4019 2.20166L43.7983 8.59813H37.4019V2.20166ZM10.9626 53.7383C8.83028 53.7383 6.85722 53.0442 5.25647 51.8708C6.24332 49.6226 8.46572 48.1495 10.9626 48.1495C13.4595 48.1495 15.6819 49.6226 16.6688 51.8708C15.068 53.0442 13.095 53.7383 10.9626 53.7383ZM8.16822 44.0654C8.16822 42.5246 9.42172 41.271 10.9626 41.271C12.5035 41.271 13.757 42.5246 13.757 44.0654C13.757 45.6062 12.5035 46.8598 10.9626 46.8598C9.42172 46.8598 8.16822 45.6062 8.16822 44.0654ZM17.6889 51.0096C16.8098 49.2515 15.2877 47.9276 13.4678 47.2875C14.4277 46.5395 15.0467 45.3737 15.0467 44.0654C15.0467 41.8135 13.2146 39.9813 10.9626 39.9813C8.71066 39.9813 6.8785 41.8135 6.8785 44.0654C6.8785 45.3737 7.49757 46.5395 8.45744 47.2875C6.63743 47.9276 5.11535 49.2515 4.2363 51.0096C2.42048 49.2502 1.28972 46.7876 1.28972 44.0654C1.28972 38.7318 5.62898 34.3925 10.9626 34.3925C16.2963 34.3925 20.6355 38.7318 20.6355 44.0654C20.6355 46.7876 19.5049 49.2502 17.6889 51.0096ZM44.7103 48.1495H21.1356C21.6444 46.8867 21.9252 45.5083 21.9252 44.0654C21.9252 38.2372 17.3532 33.4573 11.6075 33.1223V1.28972H36.1121V9.88785H44.7103V48.1495Z" fill="#012D4A"/>
<path d="M16.1216 6.87854H33.3178V8.16826H16.1216V6.87854Z" fill="#012D4A"/>
<path d="M16.1216 10.3177H29.8786V11.6075H16.1216V10.3177Z" fill="#012D4A"/>
<path d="M15.4766 20.2057H20.2055V15.4767H15.4766V20.2057ZM16.7663 16.7664H18.9158V18.9159H16.7663V16.7664Z" fill="#012D4A"/>
<path d="M23 18.9159H36.757V20.2056H23V18.9159Z" fill="#012D4A"/>
<path d="M23 15.4767H40.1963V16.7664H23V15.4767Z" fill="#012D4A"/>
<path d="M15.4766 28.8038H20.2055V24.0748H15.4766V28.8038ZM16.7663 25.3645H18.9158V27.5141H16.7663V25.3645Z" fill="#012D4A"/>
<path d="M23 27.514H36.757V28.8038H23V27.514Z" fill="#012D4A"/>
<path d="M23 24.0748H40.1963V25.3645H23V24.0748Z" fill="#012D4A"/>
<path d="M23 36.1122H36.757V37.4019H23V36.1122Z" fill="#012D4A"/>
<path d="M23 32.6729H40.1963V33.9626H23V32.6729Z" fill="#012D4A"/>
</svg>
