<svg width="51" height="50" viewBox="0 0 51 50" fill="none" xmlns="http://www.w3.org/2000/svg">
<path d="M0.833984 0.83252H37.5014V49.1669H0.833984V0.83252Z" fill="white"/>
<path d="M4.16724 17.4998H34.1679V24.1666H4.16724V17.4998Z" fill="#DCE1E7"/>
<path d="M4.16724 17.4998H10.834V24.1666H4.16724V17.4998Z" fill="#DCE1E7"/>
<path d="M4.16724 27.5H34.1679V34.1668H4.16724V27.5Z" fill="#DCE1E7"/>
<path d="M4.16724 27.5H10.834V34.1668H4.16724V27.5Z" fill="#95A4B6"/>
<path d="M4.16724 37.5005H34.1679V44.1673H4.16724V37.5005Z" fill="#DCE1E7"/>
<path d="M4.16724 37.5005H10.834V44.1673H4.16724V37.5005Z" fill="#DCE1E7"/>
<path d="M8.334 4.16577L4.16724 6.66583C4.16724 6.66583 4.14016 11.6659 8.334 14.166C8.334 14.166 12.5008 11.6138 12.5008 6.66583L8.334 4.16577Z" fill="#95A4B6"/>
<path d="M39.1673 28.333C38.7091 28.333 38.2513 28.3618 37.7966 28.4189L37.8086 28.5139C36.2582 28.2271 34.664 28.2821 33.1371 28.6751C31.6102 29.0681 30.1875 29.7896 28.9683 30.7893C27.7492 31.789 26.7629 33.0427 26.0783 34.463C25.3938 35.8833 25.0275 37.4358 25.005 39.0123C24.9825 40.5888 25.3044 42.1512 25.9482 43.5904C26.592 45.0296 27.5422 46.3109 28.7324 47.345C29.9226 48.379 31.3242 49.1408 32.8392 49.5771C34.3543 50.0135 35.9463 50.1138 37.5042 49.8713C38.9796 50.1009 40.4866 50.023 41.9305 49.6426C43.3744 49.2621 44.7241 48.5872 45.8948 47.6604C47.0655 46.7335 48.032 45.5746 48.7335 44.2565C49.4351 42.9383 49.8566 41.4894 49.9715 40.0006C50.0865 38.5119 49.8925 37.0154 49.4016 35.6052C48.9107 34.195 48.1336 32.9015 47.1191 31.8059C46.1046 30.7102 44.8745 29.8362 43.5061 29.2386C42.1377 28.6409 40.6605 28.3326 39.1673 28.333Z" fill="#B9C2CF"/>
<path d="M0.833351 50.0006H35.8341C36.3933 50.0007 36.9517 49.9576 37.5043 49.8717C38.9798 50.1013 40.4868 50.0235 41.9307 49.643C43.3746 49.2625 44.7243 48.5877 45.895 47.6608C47.0657 46.7339 48.0322 45.5751 48.7337 44.2569C49.4352 42.9388 49.8567 41.4899 49.9717 40.0011C50.0867 38.5123 49.8926 37.0159 49.4017 35.6056C48.9109 34.1954 48.1338 32.9019 47.1192 31.8063C46.1047 30.7107 44.8746 29.8366 43.5063 29.239C42.1379 28.6414 40.6607 28.3331 39.1675 28.3335C38.8899 28.3335 38.6112 28.3454 38.3342 28.3665V0.832863C38.3342 0.611844 38.2464 0.399878 38.0901 0.243595C37.9338 0.0873109 37.7218 -0.000488281 37.5008 -0.000488281H0.833351C0.612333 -0.000488281 0.400367 0.0873109 0.244083 0.243595C0.0877992 0.399878 0 0.611844 0 0.832863V49.1672C0 49.3883 0.0877992 49.6002 0.244083 49.7565C0.400367 49.9128 0.612333 50.0006 0.833351 50.0006ZM48.3344 39.167C48.3323 41.0144 47.773 42.8182 46.7296 44.3427C45.6862 45.8672 44.2071 47.0414 42.4858 47.7121C43.7878 46.7005 44.8414 45.4047 45.5662 43.9238C46.2909 42.4428 46.6677 40.8158 46.6677 39.167C46.6677 37.5182 46.2909 35.8912 45.5662 34.4103C44.8414 32.9293 43.7878 31.6336 42.4858 30.6219C44.2071 31.2926 45.6862 32.4669 46.7296 33.9914C47.773 35.5159 48.3323 37.3196 48.3344 39.167ZM45.001 39.167C45.001 40.9801 44.4633 42.7524 43.4561 44.2599C42.4488 45.7673 41.0171 46.9423 39.3421 47.6361C37.6671 48.3299 35.8239 48.5115 34.0457 48.1577C32.2675 47.804 30.6342 46.931 29.3521 45.649C28.0701 44.367 27.1971 42.7336 26.8434 40.9554C26.4897 39.1772 26.6712 37.334 27.365 35.659C28.0588 33.984 29.2338 32.5523 30.7413 31.5451C32.2487 30.5378 34.0211 30.0002 35.8341 30.0002C38.2645 30.0029 40.5945 30.9696 42.313 32.6881C44.0315 34.4066 44.9982 36.7367 45.001 39.167ZM11.6669 33.3336V28.3335H33.334V28.6251C30.5999 29.2788 28.2253 30.9664 26.7089 33.3336H11.6669ZM1.6667 1.66621H36.6675V28.3652C36.3923 28.3444 36.1145 28.3338 35.8341 28.3335C35.5537 28.3331 35.2759 28.3437 35.0008 28.3652V27.5001C35.0008 27.2791 34.913 27.0671 34.7567 26.9108C34.6004 26.7546 34.3884 26.6668 34.1674 26.6668H4.16676C3.94574 26.6668 3.73377 26.7546 3.57749 26.9108C3.4212 27.0671 3.3334 27.2791 3.3334 27.5001V34.1669C3.3334 34.3879 3.4212 34.5999 3.57749 34.7562C3.73377 34.9125 3.94574 35.0003 4.16676 35.0003H25.8344C25.6087 35.5401 25.4276 36.0976 25.2927 36.667H4.16676C3.94574 36.667 3.73377 36.7548 3.57749 36.911C3.4212 37.0673 3.3334 37.2793 3.3334 37.5003V44.1671C3.3334 44.3881 3.4212 44.6001 3.57749 44.7564C3.73377 44.9127 3.94574 45.0005 4.16676 45.0005H26.7089C27.5712 46.3437 28.7176 47.4816 30.0672 48.3339H1.6667V1.66621ZM10.0002 28.3335V33.3336H5.00011V28.3335H10.0002ZM25.8344 43.3338H11.6669V38.3337H25.0323C25.0115 38.6088 25.0009 38.8866 25.0005 39.167C24.9991 40.5975 25.2826 42.014 25.8344 43.3338ZM10.0002 38.3337V43.3338H5.00011V38.3337H10.0002Z" fill="#012D4A"/>
<path d="M3.33447 17.5001V24.1669C3.33447 24.3879 3.42227 24.5999 3.57856 24.7562C3.73484 24.9125 3.94681 25.0003 4.16782 25.0003H34.1685C34.3895 25.0003 34.6015 24.9125 34.7577 24.7562C34.914 24.5999 35.0018 24.3879 35.0018 24.1669V17.5001C35.0018 17.2791 34.914 17.0671 34.7577 16.9108C34.6015 16.7545 34.3895 16.6667 34.1685 16.6667H4.16782C3.94681 16.6667 3.73484 16.7545 3.57856 16.9108C3.42227 17.0671 3.33447 17.2791 3.33447 17.5001ZM11.668 18.3335H33.3351V23.3336H11.668V18.3335ZM5.00118 18.3335H10.0013V23.3336H5.00118V18.3335Z" fill="#012D4A"/>
<path d="M7.90751 14.8824C8.03802 14.9602 8.18731 15.0009 8.33924 14.9999C8.49117 14.999 8.63996 14.9566 8.76951 14.8772C8.95629 14.7631 13.3347 12.0198 13.3347 6.66642C13.3347 6.52251 13.2975 6.38106 13.2265 6.25583C13.1556 6.1306 13.0535 6.02586 12.9301 5.95182L8.76337 3.45177C8.63385 3.37406 8.48565 3.33301 8.33461 3.33301C8.18357 3.33301 8.03536 3.37406 7.90585 3.45177L3.73909 5.95182C3.61634 6.02547 3.51463 6.1295 3.44376 6.25388C3.3729 6.37826 3.33527 6.51879 3.3345 6.66194C3.33325 6.88518 3.3571 12.1696 7.90751 14.8824ZM8.33461 5.13826L11.6545 7.13018C11.4618 10.4183 9.25661 12.4428 8.31565 13.1624C5.67913 11.3141 5.13964 8.26395 5.02943 7.12133L8.33461 5.13826Z" fill="#012D4A"/>
<path d="M18.3346 9.16695H30.0015C30.2225 9.16695 30.4345 9.07915 30.5908 8.92286C30.747 8.76658 30.8348 8.55461 30.8348 8.3336C30.8348 8.11258 30.747 7.90061 30.5908 7.74433C30.4345 7.58804 30.2225 7.50024 30.0015 7.50024H18.3346C18.1136 7.50024 17.9016 7.58804 17.7453 7.74433C17.589 7.90061 17.5012 8.11258 17.5012 8.3336C17.5012 8.55461 17.589 8.76658 17.7453 8.92286C17.9016 9.07915 18.1136 9.16695 18.3346 9.16695Z" fill="#012D4A"/>
<path d="M18.3346 12.5004H30.0015C30.2225 12.5004 30.4345 12.4126 30.5908 12.2564C30.747 12.1001 30.8348 11.8881 30.8348 11.6671C30.8348 11.4461 30.747 11.2341 30.5908 11.0778C30.4345 10.9215 30.2225 10.8337 30.0015 10.8337H18.3346C18.1136 10.8337 17.9016 10.9215 17.7453 11.0778C17.589 11.2341 17.5012 11.4461 17.5012 11.6671C17.5012 11.8881 17.589 12.1001 17.7453 12.2564C17.9016 12.4126 18.1136 12.5004 18.3346 12.5004Z" fill="#012D4A"/>
</svg>
