<svg width="65" height="40" viewBox="0 0 65 40" fill="none" xmlns="http://www.w3.org/2000/svg">
<path d="M4.01904 0.90979H60.2849V29.0427H4.01904V0.90979Z" fill="#DCE1E7"/>
<path d="M58.2754 0.90979H60.2849V29.0427H58.2754V0.90979Z" fill="#B9C2CF"/>
<path d="M10.0474 4.92883H14.0664V21.0048H10.0474V4.92883Z" fill="white"/>
<path d="M30.1426 4.92883H34.1616V21.0048H30.1426V4.92883Z" fill="white"/>
<path d="M50.2373 4.92883H54.2563V21.0048H50.2373V4.92883Z" fill="white"/>
<path d="M40.1899 4.92883H44.2089V21.0048H40.1899V4.92883Z" fill="white"/>
<path d="M20.0952 4.92883H24.1142V21.0048H20.0952V4.92883Z" fill="white"/>
<path d="M4.01904 25.0238H60.2849V29.0428H4.01904V25.0238Z" fill="white"/>
<path d="M58.2754 25.0238H60.2849V29.0428H58.2754V25.0238Z" fill="#DCE1E7"/>
<path d="M0.753418 29.0427H63.5501V33.0617H0.753418V29.0427Z" fill="#B9C2CF"/>
<path d="M61.5405 29.0427H63.55V33.0617H61.5405V29.0427Z" fill="#95A4B6"/>
<path d="M10.0473 39.0902C12.2669 39.0902 14.0663 37.2909 14.0663 35.0712C14.0663 32.8516 12.2669 31.0522 10.0473 31.0522C7.82768 31.0522 6.02832 32.8516 6.02832 35.0712C6.02832 37.2909 7.82768 39.0902 10.0473 39.0902Z" fill="#95A4B6"/>
<path d="M10.0476 36.5783C10.88 36.5783 11.5548 35.9036 11.5548 35.0712C11.5548 34.2388 10.88 33.5641 10.0476 33.5641C9.21529 33.5641 8.54053 34.2388 8.54053 35.0712C8.54053 35.9036 9.21529 36.5783 10.0476 36.5783Z" fill="white"/>
<path d="M22.1044 39.0902C24.3241 39.0902 26.1234 37.2909 26.1234 35.0712C26.1234 32.8516 24.3241 31.0522 22.1044 31.0522C19.8848 31.0522 18.0854 32.8516 18.0854 35.0712C18.0854 37.2909 19.8848 39.0902 22.1044 39.0902Z" fill="#95A4B6"/>
<path d="M22.1043 36.5783C22.9366 36.5783 23.6114 35.9036 23.6114 35.0712C23.6114 34.2388 22.9366 33.5641 22.1043 33.5641C21.2719 33.5641 20.5972 34.2388 20.5972 35.0712C20.5972 35.9036 21.2719 36.5783 22.1043 36.5783Z" fill="white"/>
<path d="M42.1992 39.0902C44.4188 39.0902 46.2182 37.2909 46.2182 35.0712C46.2182 32.8516 44.4188 31.0522 42.1992 31.0522C39.9795 31.0522 38.1802 32.8516 38.1802 35.0712C38.1802 37.2909 39.9795 39.0902 42.1992 39.0902Z" fill="#95A4B6"/>
<path d="M42.1995 36.5783C43.0319 36.5783 43.7066 35.9036 43.7066 35.0712C43.7066 34.2388 43.0319 33.5641 42.1995 33.5641C41.3671 33.5641 40.6924 34.2388 40.6924 35.0712C40.6924 35.9036 41.3671 36.5783 42.1995 36.5783Z" fill="white"/>
<path d="M54.2563 39.0902C56.4759 39.0902 58.2753 37.2909 58.2753 35.0712C58.2753 32.8516 56.4759 31.0522 54.2563 31.0522C52.0367 31.0522 50.2373 32.8516 50.2373 35.0712C50.2373 37.2909 52.0367 39.0902 54.2563 39.0902Z" fill="#95A4B6"/>
<path d="M54.2561 36.5783C55.0885 36.5783 55.7633 35.9036 55.7633 35.0712C55.7633 34.2388 55.0885 33.5641 54.2561 33.5641C53.4238 33.5641 52.749 34.2388 52.749 35.0712C52.749 35.9036 53.4238 36.5783 54.2561 36.5783Z" fill="white"/>
<path d="M9.29395 21.7582H14.8201V4.17517H9.29395V21.7582ZM10.8011 5.68229H13.3129V20.2511H10.8011V5.68229Z" fill="#012D4A"/>
<path d="M29.3887 21.7582H34.9148V4.17517H29.3887V21.7582ZM30.8958 5.68229H33.4077V20.2511H30.8958V5.68229Z" fill="#012D4A"/>
<path d="M49.4839 21.7582H55.01V4.17517H49.4839V21.7582ZM50.991 5.68229H53.5029V20.2511H50.991V5.68229Z" fill="#012D4A"/>
<path d="M39.4365 21.7582H44.9626V4.17517H39.4365V21.7582ZM40.9436 5.68229H43.4555V20.2511H40.9436V5.68229Z" fill="#012D4A"/>
<path d="M19.3413 21.7582H24.8674V4.17517H19.3413V21.7582ZM20.8484 5.68229H23.3603V20.2511H20.8484V5.68229Z" fill="#012D4A"/>
<path d="M64.3038 28.2892H61.0384V0.15625H3.26543V28.2892H0V33.8153H5.44385C5.33445 34.2158 5.27492 34.6365 5.27492 35.0712C5.27492 37.7028 7.41591 39.8438 10.0475 39.8438C12.679 39.8438 14.82 37.7028 14.82 35.0712C14.82 34.6365 14.7605 34.2158 14.6511 33.8153H17.5008C17.3914 34.2158 17.3319 34.6365 17.3319 35.0712C17.3319 37.7028 19.4729 39.8438 22.1044 39.8438C24.736 39.8438 26.877 37.7028 26.877 35.0712C26.877 34.6365 26.8175 34.2158 26.7081 33.8153H37.5957C37.4864 34.2158 37.4268 34.6365 37.4268 35.0712C37.4268 37.7028 39.5678 39.8438 42.1994 39.8438C44.8309 39.8438 46.9719 37.7028 46.9719 35.0712C46.9719 34.6365 46.9124 34.2158 46.803 33.8153H49.6527C49.5433 34.2158 49.4838 34.6365 49.4838 35.0712C49.4838 37.7028 51.6248 39.8438 54.2563 39.8438C56.8879 39.8438 59.0289 37.7028 59.0289 35.0712C59.0289 34.6365 58.9694 34.2158 58.86 33.8153H64.3038V28.2892ZM4.77255 1.66337H59.5313V24.2702H4.77255V1.66337ZM4.77255 25.7773H59.5313V28.2892H4.77255V25.7773ZM10.0475 38.3366C8.24696 38.3366 6.78204 36.8717 6.78204 35.0712C6.78204 33.2707 8.24696 31.8058 10.0475 31.8058C11.848 31.8058 13.3129 33.2707 13.3129 35.0712C13.3129 36.8717 11.848 38.3366 10.0475 38.3366ZM22.1044 38.3366C20.3039 38.3366 18.839 36.8717 18.839 35.0712C18.839 33.2707 20.3039 31.8058 22.1044 31.8058C23.9049 31.8058 25.3699 33.2707 25.3699 35.0712C25.3699 36.8717 23.9049 38.3366 22.1044 38.3366ZM42.1994 38.3366C40.3987 38.3366 38.9339 36.8717 38.9339 35.0712C38.9339 33.2707 40.3987 31.8058 42.1994 31.8058C44 31.8058 45.4648 33.2707 45.4648 35.0712C45.4648 36.8717 44 38.3366 42.1994 38.3366ZM54.2563 38.3366C52.4557 38.3366 50.9909 36.8717 50.9909 35.0712C50.9909 33.2707 52.4557 31.8058 54.2563 31.8058C56.057 31.8058 57.5218 33.2707 57.5218 35.0712C57.5218 36.8717 56.057 38.3366 54.2563 38.3366ZM62.7967 32.3082H58.144C57.278 31.0932 55.8587 30.2987 54.2563 30.2987C52.654 30.2987 51.2347 31.0932 50.3687 32.3082H46.0871C45.2211 31.0932 43.8018 30.2987 42.1995 30.2987C40.5972 30.2987 39.1778 31.0932 38.3119 32.3082H25.9923C25.1263 31.0932 23.707 30.2987 22.1047 30.2987C20.5024 30.2987 19.083 31.0932 18.2171 32.3082H13.9355C13.0695 31.0932 11.6502 30.2987 10.0478 30.2987C8.44553 30.2987 7.0262 31.0932 6.16023 32.3082H1.50712V29.7963H62.7967V32.3082Z" fill="#012D4A"/>
<path d="M10.0473 32.8105C8.80079 32.8105 7.78662 33.8247 7.78662 35.0712C7.78662 36.3177 8.80079 37.3319 10.0473 37.3319C11.2938 37.3319 12.308 36.3177 12.308 35.0712C12.308 33.8247 11.2938 32.8105 10.0473 32.8105ZM10.0473 35.8248C9.63171 35.8248 9.29374 35.4868 9.29374 35.0712C9.29374 34.6556 9.63171 34.3177 10.0473 34.3177C10.4629 34.3177 10.8009 34.6556 10.8009 35.0712C10.8009 35.4868 10.4629 35.8248 10.0473 35.8248Z" fill="#012D4A"/>
<path d="M22.1044 32.8105C20.8579 32.8105 19.8438 33.8247 19.8438 35.0712C19.8438 36.3177 20.8579 37.3319 22.1044 37.3319C23.3509 37.3319 24.3651 36.3177 24.3651 35.0712C24.3651 33.8247 23.3509 32.8105 22.1044 32.8105ZM22.1044 35.8248C21.6888 35.8248 21.3509 35.4868 21.3509 35.0712C21.3509 34.6556 21.6888 34.3177 22.1044 34.3177C22.52 34.3177 22.858 34.6556 22.858 35.0712C22.858 35.4868 22.52 35.8248 22.1044 35.8248Z" fill="#012D4A"/>
<path d="M42.1992 32.8105C40.9526 32.8105 39.9385 33.8247 39.9385 35.0712C39.9385 36.3177 40.9526 37.3319 42.1992 37.3319C43.4457 37.3319 44.4598 36.3177 44.4598 35.0712C44.4598 33.8247 43.4457 32.8105 42.1992 32.8105ZM42.1992 35.8248C41.7836 35.8248 41.4456 35.4868 41.4456 35.0712C41.4456 34.6556 41.7836 34.3177 42.1992 34.3177C42.6147 34.3177 42.9527 34.6556 42.9527 35.0712C42.9527 35.4868 42.6147 35.8248 42.1992 35.8248Z" fill="#012D4A"/>
<path d="M54.2563 32.8105C53.0098 32.8105 51.9956 33.8247 51.9956 35.0712C51.9956 36.3177 53.0098 37.3319 54.2563 37.3319C55.5028 37.3319 56.517 36.3177 56.517 35.0712C56.517 33.8247 55.5028 32.8105 54.2563 32.8105ZM54.2563 35.8248C53.8407 35.8248 53.5027 35.4868 53.5027 35.0712C53.5027 34.6556 53.8407 34.3177 54.2563 34.3177C54.6719 34.3177 55.0098 34.6556 55.0098 35.0712C55.0098 35.4868 54.6719 35.8248 54.2563 35.8248Z" fill="#012D4A"/>
</svg>
