<svg width="54" height="40" viewBox="0 0 54 40" fill="none" xmlns="http://www.w3.org/2000/svg">
<path d="M47.6963 0.899902H4.49963C2.51155 0.899902 0.899902 2.51155 0.899902 4.49963V31.4976C0.899902 33.4856 2.51155 35.0973 4.49963 35.0973H47.6963C49.6844 35.0973 51.296 33.4856 51.296 31.4976V4.49963C51.296 2.51155 49.6844 0.899902 47.6963 0.899902Z" fill="#E9F1F2"/>
<path d="M49.3209 25.4673L49.141 25.0461C48.6252 23.84 47.7326 22.8334 46.5968 22.1771L41.3331 19.1381C41.1284 19.018 40.9019 18.9397 40.6667 18.9075C40.4315 18.8754 40.1923 18.89 39.9628 18.9507C39.7333 19.0114 39.5181 19.1168 39.3296 19.261C39.141 19.4052 38.9829 19.5853 38.8642 19.7908C38.7455 19.9964 38.6686 20.2234 38.638 20.4588C38.6074 20.6942 38.6237 20.9333 38.6859 21.1624C38.7481 21.3914 38.855 21.6059 39.0004 21.7935C39.1458 21.9811 39.3269 22.1381 39.5333 22.2554C39.3285 22.1354 39.102 22.057 38.8668 22.0249C38.6317 21.9927 38.3924 22.0074 38.163 22.0681C37.9335 22.1287 37.7183 22.2342 37.5297 22.3784C37.3412 22.5226 37.183 22.7026 37.0643 22.9082C36.9456 23.1138 36.8688 23.3408 36.8382 23.5762C36.8076 23.8115 36.8238 24.0507 36.886 24.2797C36.9482 24.5088 37.0551 24.7233 37.2005 24.9109C37.346 25.0985 37.5271 25.2555 37.7334 25.3728C37.5287 25.2546 37.3027 25.1779 37.0683 25.1471C36.8339 25.1163 36.5957 25.1319 36.3674 25.1931C36.139 25.2543 35.925 25.3599 35.7374 25.5038C35.5499 25.6478 35.3925 25.8272 35.2744 26.032C35.1562 26.2367 35.0795 26.4628 35.0487 26.6971C35.0178 26.9315 35.0335 27.1697 35.0947 27.3981C35.1559 27.6264 35.2615 27.8404 35.4054 28.028C35.5494 28.2155 35.7288 28.3729 35.9336 28.4911L29.6979 24.8913C29.2848 24.6564 28.7955 24.5945 28.3368 24.719C27.8781 24.8435 27.4873 25.1444 27.2496 25.556C27.012 25.9676 26.9468 26.4565 27.0683 26.916C27.1898 27.3755 27.4881 27.7683 27.8981 28.0087L34.1337 31.6084C33.8399 32.1191 33.7237 32.7129 33.8034 33.2967H6.29973C5.34503 33.2967 4.42942 32.9174 3.75434 32.2424C3.07926 31.5673 2.70001 30.6517 2.70001 29.697V2.69903C2.70129 2.18957 2.81176 1.6863 3.02398 1.22314C2.392 1.50649 1.85534 1.9664 1.47856 2.54754C1.10178 3.12868 0.90092 3.8063 0.900146 4.49889V31.4968C0.900146 32.4515 1.2794 33.3671 1.95448 34.0422C2.62956 34.7173 3.54516 35.0965 4.49987 35.0965H47.6966C48.6513 35.0965 49.5669 34.7173 50.242 34.0422C50.917 33.3671 51.2963 32.4515 51.2963 31.4968V27.9448C50.4291 27.3094 49.7472 26.4542 49.3209 25.4673Z" fill="#D0D8DA"/>
<path d="M47.6968 4.49878V31.4967H4.50009V4.49878H47.6968Z" fill="#B9C2CF"/>
<path d="M4.49951 4.49878V31.4967H47.6962V4.49878H4.49951ZM44.9964 23.7105C44.9964 24.1048 44.8398 24.4829 44.561 24.7618C44.2822 25.0406 43.904 25.1972 43.5097 25.1972H22.8113C18.6707 25.1972 14.6998 23.5524 11.772 20.6245C8.84414 17.6967 7.1993 13.7258 7.1993 9.58519V8.68526C7.1993 8.29097 7.35594 7.91282 7.63475 7.63401C7.91355 7.35521 8.2917 7.19857 8.68599 7.19857H43.5133C43.907 7.19953 44.2842 7.35658 44.5622 7.63528C44.8403 7.91399 44.9964 8.29159 44.9964 8.68526V23.7105Z" fill="#ADAFBB"/>
<path d="M22.4983 12.5984H33.2975V26.9973H22.4983V12.5984Z" fill="white"/>
<path d="M27.8979 23.3976C26.9432 23.3976 26.0276 23.0183 25.3525 22.3432C24.6774 21.6681 24.2982 20.7525 24.2982 19.7978V12.5984H22.4983V26.9973H33.2975V23.3976H27.8979Z" fill="#DCE1E7"/>
<path d="M29.6977 24.8928C29.3518 24.6935 28.9492 24.6153 28.5538 24.6706C28.1583 24.7258 27.7926 24.9114 27.5145 25.1979H22.8115C22.7053 25.1979 22.6036 25.1844 22.4983 25.1817V26.9978H33.2975V25.1979H30.2269L29.6977 24.8928Z" fill="#B9C2CF"/>
<path d="M24.2982 10.7988H33.2975V14.3986H24.2982C23.8208 14.3986 23.363 14.2089 23.0255 13.8714C22.6879 13.5338 22.4983 13.076 22.4983 12.5987C22.4983 12.1213 22.6879 11.6635 23.0255 11.326C23.363 10.9885 23.8208 10.7988 24.2982 10.7988Z" fill="#D8F3DC"/>
<path d="M24.2981 11.6985H33.2974V13.4983H24.2981C24.0594 13.4983 23.8305 13.4035 23.6618 13.2348C23.493 13.066 23.3982 12.8371 23.3982 12.5984C23.3982 12.3597 23.493 12.1308 23.6618 11.9621C23.8305 11.7933 24.0594 11.6985 24.2981 11.6985Z" fill="#DCE1E7"/>
<path d="M29.0064 27.3571L35.2412 30.9569C35.0637 31.2641 34.9485 31.6033 34.9022 31.955C34.8559 32.3068 34.8794 32.6642 34.9714 33.0069C35.0633 33.3496 35.2219 33.6708 35.438 33.9521C35.6542 34.2335 35.9237 34.4695 36.2311 34.6466L39.9712 36.8064C40.7498 37.256 41.6196 37.5247 42.5161 37.5926C43.4126 37.6605 44.3129 37.5259 45.1503 37.1988C45.9876 36.8718 46.8878 36.7372 47.7841 36.8051C48.6805 36.8731 49.55 37.1417 50.3285 37.5912L52.6773 38.9465H53.3073V27.8773L52.9752 27.6856C51.839 27.0298 50.9463 26.0231 50.4311 24.8166L50.2511 24.3964C49.7359 23.1899 48.8432 22.1832 47.707 21.5274L42.4424 18.4874C42.0289 18.2487 41.5375 18.1841 41.0764 18.3077C40.6152 18.4314 40.222 18.7331 39.9834 19.1466C39.7447 19.5601 39.68 20.0515 39.8037 20.5127C39.9273 20.9738 40.229 21.367 40.6426 21.6057C40.2294 21.3708 39.7401 21.3088 39.2814 21.4334C38.8227 21.5579 38.4319 21.8588 38.1943 22.2704C37.9566 22.682 37.8914 23.1709 38.0129 23.6304C38.1344 24.0899 38.4327 24.4827 38.8427 24.723C38.4295 24.4881 37.9402 24.4262 37.4815 24.5507C37.0228 24.6752 36.632 24.9761 36.3944 25.3877C36.1567 25.7994 36.0915 26.2882 36.213 26.7477C36.3345 27.2072 36.6328 27.6 37.0428 27.8404L30.8081 24.2407C30.3949 24.0058 29.9056 23.9438 29.4469 24.0683C28.9883 24.1929 28.5975 24.4938 28.3598 24.9054C28.1222 25.317 28.057 25.8059 28.1784 26.2654C28.2999 26.7249 28.5982 27.1177 29.0083 27.358L29.0064 27.3571Z" fill="#DCE1E7"/>
<path d="M53.3049 29.1152V38.9452H52.6749L50.3288 37.5953C49.5505 37.1459 48.681 36.8774 47.7848 36.8096C46.8886 36.7419 45.9886 36.8766 45.1515 37.2038C44.3143 37.5311 43.4142 37.6658 42.5178 37.598C41.6215 37.5303 40.7518 37.2617 39.9733 36.8124L36.2323 34.6525C35.9249 34.4754 35.6554 34.2394 35.4392 33.9581C35.2231 33.6767 35.0645 33.3555 34.9726 33.0128C34.8806 32.6702 34.8571 32.3127 34.9034 31.961C34.9497 31.6092 35.0649 31.27 35.2424 30.9628L29.0077 27.3631C28.5938 27.1237 28.2919 26.7299 28.1681 26.2681C28.0442 25.8063 28.1086 25.3143 28.3471 24.9C28.5648 24.5185 28.9182 24.2331 29.337 24.1008C29.3676 24.5425 29.5068 24.9698 29.7423 25.3447C29.9778 25.7197 30.3023 26.0306 30.6869 26.2499L38.4803 30.7495C40.8035 32.0908 43.494 32.6555 46.1604 32.3616C48.8268 32.0677 51.3297 30.9304 53.3049 29.1152Z" fill="#B9C2CF"/>
<path d="M37.0477 24.7268C36.6605 24.9421 36.369 25.2956 36.2314 25.7167C36.1153 26.1311 36.1432 26.5726 36.3104 26.9692C36.4776 27.3657 36.7743 27.6938 37.1521 27.9L38.5991 28.736C38.8378 28.3226 38.9025 27.8313 38.7789 27.3703C38.6554 26.9092 38.3538 26.5161 37.9404 26.2774C37.6689 26.1196 37.4436 25.8934 37.287 25.6213C37.1303 25.3492 37.0478 25.0408 37.0477 24.7268Z" fill="#B9C2CF"/>
<path d="M38.8472 21.6096C38.4601 21.8249 38.1685 22.1785 38.031 22.5995C37.9149 23.0139 37.9427 23.4554 38.1099 23.852C38.2771 24.2485 38.5739 24.5766 38.9516 24.7828L40.3987 25.6188C40.6374 25.2054 40.702 24.7142 40.5785 24.2531C40.455 23.792 40.1533 23.3989 39.74 23.1602C39.4689 23.002 39.2439 22.7757 39.0873 22.5037C38.9307 22.2317 38.8479 21.9235 38.8472 21.6096Z" fill="#B9C2CF"/>
<path d="M40.647 18.4924C40.259 18.7088 39.9673 19.0641 39.8308 19.4869C39.7147 19.9012 39.7425 20.3428 39.9097 20.7393C40.0769 21.1358 40.3737 21.464 40.7514 21.6701L42.1985 22.5061C42.4372 22.0927 42.5019 21.6015 42.3783 21.1404C42.2548 20.6793 41.9531 20.2862 41.5398 20.0475C41.268 19.8889 41.0426 19.6619 40.886 19.3891C40.7293 19.1162 40.6469 18.8071 40.647 18.4924Z" fill="#B9C2CF"/>
<path d="M15.2986 22.4976H18.8983V26.9972H15.2986V22.4976Z" fill="white"/>
<path d="M8.09985 22.4976H11.6996V26.9972H8.09985V22.4976Z" fill="#B9C2CF"/>
<path d="M18.8983 24.6841C17.6441 24.3647 16.4348 23.8898 15.2986 23.2703V26.9978H18.8983V24.6841Z" fill="#B9C2CF"/>
<path d="M0.900419 23.3982C1.1391 23.3982 1.368 23.3034 1.53677 23.1346C1.70554 22.9659 1.80035 22.737 1.80035 22.4983V4.49966C1.80035 3.78363 2.08479 3.09692 2.5911 2.59061C3.09741 2.0843 3.78411 1.79986 4.50014 1.79986H47.6968C48.4129 1.79986 49.0996 2.0843 49.6059 2.59061C50.1122 3.09692 50.3966 3.78363 50.3966 4.49966V19.9461C50.3966 20.1847 50.4914 20.4136 50.6602 20.5824C50.829 20.7512 51.0579 20.846 51.2966 20.846C51.5352 20.846 51.7641 20.7512 51.9329 20.5824C52.1017 20.4136 52.1965 20.1847 52.1965 19.9461V4.49966C52.1951 3.30671 51.7205 2.16304 50.877 1.3195C50.0335 0.475956 48.8898 0.00142896 47.6968 0H4.50014C3.3072 0.00142896 2.16352 0.475956 1.31999 1.3195C0.476446 2.16304 0.00191724 3.30671 0.000488281 4.49966V22.4983C0.000488281 22.737 0.0953021 22.9659 0.264072 23.1346C0.432842 23.3034 0.661743 23.3982 0.900419 23.3982Z" fill="#012D4A"/>
<path d="M29.2478 26.3301C29.0488 26.207 28.9056 26.0112 28.8485 25.7843C28.7914 25.5574 28.8249 25.3172 28.942 25.1146C29.059 24.912 29.2504 24.7629 29.4755 24.699C29.7005 24.6351 29.9417 24.6614 30.1477 24.7723L36.3788 28.372H36.3833C36.5901 28.4913 36.8359 28.5236 37.0665 28.4618C37.2971 28.3999 37.4937 28.249 37.6131 28.0422C37.7324 27.8354 37.7647 27.5896 37.7028 27.359C37.641 27.1284 37.4901 26.9318 37.2832 26.8124C37.1801 26.7538 37.0895 26.6753 37.0168 26.5815C36.9441 26.4877 36.8906 26.3804 36.8596 26.2659C36.8285 26.1514 36.8203 26.0318 36.8356 25.9141C36.8509 25.7964 36.8893 25.6829 36.9487 25.5801C37.008 25.4773 37.0871 25.3873 37.1814 25.3152C37.2757 25.2431 37.3833 25.1904 37.498 25.1601C37.6128 25.1297 37.7324 25.1224 37.85 25.1385C37.9675 25.1545 38.0808 25.1937 38.1832 25.2537C38.2856 25.3138 38.3988 25.353 38.5164 25.369C38.634 25.3851 38.7536 25.3778 38.8683 25.3474C38.9831 25.3171 39.0907 25.2644 39.185 25.1923C39.2792 25.1202 39.3583 25.0302 39.4177 24.9274C39.477 24.8246 39.5154 24.7111 39.5307 24.5934C39.546 24.4757 39.5379 24.3561 39.5068 24.2416C39.4757 24.1271 39.4223 24.0198 39.3495 23.926C39.2768 23.8322 39.1863 23.7537 39.0831 23.6951C38.977 23.638 38.8835 23.5602 38.808 23.4663C38.7326 23.3724 38.6768 23.2643 38.6438 23.1484C38.611 23.0325 38.6017 22.9112 38.6165 22.7916C38.6314 22.6721 38.6701 22.5567 38.7303 22.4524C38.7906 22.3481 38.8712 22.257 38.9673 22.1844C39.0635 22.1118 39.1732 22.0593 39.29 22.0299C39.4068 22.0005 39.5284 21.9948 39.6474 22.0133C39.7665 22.0317 39.8806 22.0739 39.983 22.1373C40.1898 22.2566 40.4356 22.2889 40.6662 22.2271C40.8969 22.1652 41.0935 22.0143 41.2128 21.8075C41.3321 21.6006 41.3644 21.3549 41.3026 21.1243C41.2407 20.8937 41.0898 20.697 40.883 20.5777C40.7798 20.519 40.6892 20.4406 40.6165 20.3468C40.5438 20.253 40.4904 20.1457 40.4593 20.0312C40.4282 19.9166 40.42 19.7971 40.4353 19.6794C40.4506 19.5617 40.4891 19.4482 40.5484 19.3454C40.6077 19.2426 40.6868 19.1526 40.7811 19.0805C40.8754 19.0084 40.983 18.9557 41.0977 18.9253C41.2125 18.895 41.3321 18.8877 41.4497 18.9037C41.5673 18.9198 41.6805 18.959 41.7829 19.019L47.0466 22.059C48.0128 22.6186 48.7725 23.4753 49.2127 24.5014L49.3927 24.9226C49.9873 26.3063 51.012 27.4616 52.3148 28.2172L52.646 28.4089C52.8528 28.5282 53.0985 28.5605 53.3292 28.4987C53.5598 28.4368 53.7564 28.2859 53.8757 28.0791C53.9951 27.8723 54.0274 27.6265 53.9655 27.3959C53.9036 27.1653 53.7527 26.9687 53.5459 26.8493L53.2147 26.6585C52.2489 26.0985 51.4893 25.242 51.0486 24.2161L50.8686 23.7941C50.376 22.6616 49.5919 21.68 48.5963 20.9494V4.49954C48.5963 4.26086 48.5015 4.03196 48.3327 3.86319C48.1639 3.69442 47.935 3.59961 47.6963 3.59961H4.49966C4.26098 3.59961 4.03208 3.69442 3.86331 3.86319C3.69454 4.03196 3.59972 4.26086 3.59972 4.49954V31.4975C3.59972 31.7361 3.69454 31.965 3.86331 32.1338C4.03208 32.3026 4.26098 32.3974 4.49966 32.3974H30.2431C30.4818 32.3974 30.7107 32.3026 30.8794 32.1338C31.0482 31.965 31.143 31.7361 31.143 31.4975C31.143 31.2588 31.0482 31.0299 30.8794 30.8611C30.7107 30.6924 30.4818 30.5975 30.2431 30.5975H5.39959V5.39947H46.7964V19.8353L42.6828 17.4585C42.2313 17.1976 41.7139 17.0731 41.1932 17.0999C40.6724 17.1267 40.1705 17.3038 39.7482 17.6097C39.3259 17.9156 39.0012 18.3372 38.8134 18.8237C38.6256 19.3101 38.5827 19.8406 38.6898 20.3509C38.059 20.5582 37.5266 20.9908 37.1946 21.5659C36.8625 22.141 36.7541 22.8183 36.89 23.4683C36.4301 23.6191 36.0192 23.8909 35.7003 24.255C35.3814 24.6192 35.1663 25.0623 35.0775 25.5381L31.0476 23.2127C30.7216 23.0262 30.3602 22.9101 29.9866 22.8716C30.1313 22.5148 30.1797 22.1262 30.1269 21.7448C30.0742 21.3633 29.9221 21.0025 29.686 20.6983C29.984 20.3112 30.1462 19.8369 30.1477 19.3484C30.1477 18.7517 29.9107 18.1795 29.4887 17.7575C29.0668 17.3356 28.4946 17.0986 27.8979 17.0986H26.548C26.3093 17.0986 26.0804 17.1934 25.9116 17.3622C25.7428 17.5309 25.648 17.7598 25.648 17.9985V23.3981C25.648 23.6368 25.7428 23.8657 25.9116 24.0344C26.0804 24.2032 26.3093 24.298 26.548 24.298H27.3165C27.0242 24.8499 26.935 25.4869 27.0645 26.0979H23.3982V15.1331C23.6864 15.2397 23.9909 15.2957 24.2981 15.2987H32.3975V21.9519C32.3975 22.1906 32.4923 22.4195 32.6611 22.5882C32.8299 22.757 33.0588 22.8518 33.2975 22.8518C33.5361 22.8518 33.765 22.757 33.9338 22.5882C34.1026 22.4195 34.1974 22.1906 34.1974 21.9519V10.7991C34.1974 10.5604 34.1026 10.3315 33.9338 10.1627C33.765 9.99394 33.5361 9.89913 33.2975 9.89913H24.2981C23.5821 9.89913 22.8954 10.1836 22.3891 10.6899C21.8828 11.1962 21.5983 11.8829 21.5983 12.5989V26.9978C21.5983 27.2365 21.6932 27.4654 21.8619 27.6342C22.0307 27.8029 22.2596 27.8977 22.4983 27.8977H28.3631L33.9013 31.0952C33.7548 31.6221 33.7306 32.1755 33.8308 32.7132C33.9309 33.2508 34.1527 33.7585 34.4791 34.1973H4.49966C3.78363 34.1973 3.09692 33.9128 2.59061 33.4065C2.0843 32.9002 1.79986 32.2135 1.79986 31.4975V26.0979C1.79986 25.8592 1.70505 25.6303 1.53628 25.4615C1.36751 25.2928 1.13861 25.198 0.899931 25.198C0.661255 25.198 0.432353 25.2928 0.263584 25.4615C0.0948139 25.6303 0 25.8592 0 26.0979V31.4975C0.00142896 32.6904 0.475957 33.8341 1.3195 34.6776C2.16304 35.5212 3.30671 35.9957 4.49966 35.9971H36.8972C36.9205 35.9936 36.9437 35.9888 36.9665 35.9827L39.3108 37.3326C40.2057 37.8513 41.2062 38.1611 42.2376 38.239C43.2691 38.3169 44.3047 38.1609 45.2674 37.7826C45.9786 37.5027 46.7438 37.3873 47.5059 37.445C48.268 37.5026 49.0071 37.7319 49.6681 38.1156L52.0169 39.4718C52.2235 39.5892 52.4682 39.6202 52.6975 39.5579C52.9268 39.4957 53.1222 39.3452 53.2411 39.1394C53.3599 38.9336 53.3925 38.6892 53.3317 38.4594C53.271 38.2297 53.1219 38.0333 52.9168 37.9131L50.568 36.5569C49.6733 36.0383 48.6729 35.7284 47.6416 35.6505C46.6104 35.5726 45.5748 35.7286 44.6123 36.1069C43.9009 36.3866 43.1356 36.5019 42.3734 36.4443C41.6112 36.3866 40.8719 36.1575 40.2107 35.7739L36.4706 33.6141C36.2657 33.4966 36.0861 33.3396 35.9423 33.1523C35.7985 32.9649 35.6933 32.7508 35.6328 32.5225C35.5946 32.3713 35.5761 32.2158 35.5779 32.0599L38.4802 33.7356C38.5826 33.7947 38.6956 33.833 38.8128 33.8484C38.93 33.8638 39.0491 33.856 39.1633 33.8254C39.2775 33.7948 39.3846 33.7419 39.4784 33.6699C39.5721 33.5979 39.6508 33.5082 39.7099 33.4058C39.769 33.3034 39.8073 33.1903 39.8227 33.0731C39.8382 32.9559 39.8303 32.8368 39.7997 32.7226C39.7691 32.6084 39.7162 32.5014 39.6442 32.4076C39.5723 32.3138 39.4825 32.2351 39.3801 32.176L29.2478 26.3301ZM24.2981 11.699H32.3975V13.4989H24.2981C24.0595 13.4989 23.8306 13.404 23.6618 13.2353C23.493 13.0665 23.3982 12.8376 23.3982 12.5989C23.3982 12.3602 23.493 12.1313 23.6618 11.9626C23.8306 11.7938 24.0595 11.699 24.2981 11.699ZM27.4479 21.5982H27.8979C28.0172 21.5982 28.1317 21.6456 28.216 21.73C28.3004 21.8144 28.3478 21.9289 28.3478 22.0482C28.3478 22.1675 28.3004 22.282 28.216 22.3664C28.1317 22.4508 28.0172 22.4982 27.8979 22.4982H27.4479V21.5982ZM27.4479 18.8984H27.8979C28.0172 18.8984 28.1317 18.9458 28.216 19.0302C28.3004 19.1146 28.3478 19.2291 28.3478 19.3484C28.3478 19.4677 28.3004 19.5822 28.216 19.6666C28.1317 19.751 28.0172 19.7984 27.8979 19.7984H27.4479V18.8984Z" fill="#012D4A"/>
<path d="M18.8981 21.5984H15.2984C15.0597 21.5984 14.8308 21.6932 14.662 21.862C14.4933 22.0307 14.3984 22.2596 14.3984 22.4983V26.998C14.3984 27.2367 14.4933 27.4656 14.662 27.6343C14.8308 27.8031 15.0597 27.8979 15.2984 27.8979H18.8981C19.1368 27.8979 19.3657 27.8031 19.5344 27.6343C19.7032 27.4656 19.798 27.2367 19.798 26.998V22.4983C19.798 22.2596 19.7032 22.0307 19.5344 21.862C19.3657 21.6932 19.1368 21.5984 18.8981 21.5984ZM17.9982 26.098H16.1983V23.3983H17.9982V26.098Z" fill="#012D4A"/>
<path d="M8.09964 21.5984C7.86096 21.5984 7.63206 21.6932 7.46329 21.862C7.29452 22.0307 7.19971 22.2596 7.19971 22.4983V26.998C7.19971 27.2367 7.29452 27.4656 7.46329 27.6343C7.63206 27.8031 7.86096 27.8979 8.09964 27.8979H11.6994C11.938 27.8979 12.1669 27.8031 12.3357 27.6343C12.5045 27.4656 12.5993 27.2367 12.5993 26.998V22.4983C12.5993 22.2596 12.5045 22.0307 12.3357 21.862C12.1669 21.6932 11.938 21.5984 11.6994 21.5984H8.09964ZM10.7994 26.098H8.99957V23.3983H10.7994V26.098Z" fill="#012D4A"/>
<path d="M36.8975 13.4992C37.0979 13.499 37.2926 13.4319 37.4506 13.3084C37.6085 13.185 37.7208 13.0124 37.7695 12.8179L38.5002 9.89947H40.4972C40.7359 9.89947 40.9648 9.80466 41.1335 9.63589C41.3023 9.46712 41.3971 9.23822 41.3971 8.99954C41.3971 8.76086 41.3023 8.53196 41.1335 8.36319C40.9648 8.19442 40.7359 8.09961 40.4972 8.09961H37.7974C37.5968 8.09961 37.4019 8.16666 37.2438 8.29008C37.0856 8.41351 36.9732 8.58625 36.9245 8.78086L36.0245 12.3806C35.9665 12.6121 36.0029 12.8572 36.1256 13.0619C36.2483 13.2666 36.4473 13.4142 36.6788 13.4722C36.7503 13.4903 36.8237 13.4994 36.8975 13.4992Z" fill="#012D4A"/>
<path d="M44.0962 9.89947C44.5932 9.89947 44.9962 9.49656 44.9962 8.99954C44.9962 8.50252 44.5932 8.09961 44.0962 8.09961C43.5992 8.09961 43.1963 8.50252 43.1963 8.99954C43.1963 9.49656 43.5992 9.89947 44.0962 9.89947Z" fill="#012D4A"/>
<path d="M44.0962 13.4988C44.5932 13.4988 44.9962 13.0959 44.9962 12.5989C44.9962 12.1019 44.5932 11.699 44.0962 11.699C43.5992 11.699 43.1963 12.1019 43.1963 12.5989C43.1963 13.0959 43.5992 13.4988 44.0962 13.4988Z" fill="#012D4A"/>
<path d="M18.8988 17.999H8.09964C7.86096 17.999 7.63206 18.0938 7.46329 18.2626C7.29452 18.4314 7.19971 18.6603 7.19971 18.899C7.19971 19.1376 7.29452 19.3665 7.46329 19.5353C7.63206 19.7041 7.86096 19.7989 8.09964 19.7989H18.8988C19.1375 19.7989 19.3664 19.7041 19.5352 19.5353C19.7039 19.3665 19.7987 19.1376 19.7987 18.899C19.7987 18.6603 19.7039 18.4314 19.5352 18.2626C19.3664 18.0938 19.1375 17.999 18.8988 17.999Z" fill="#012D4A"/>
<path d="M8.99954 8.99957H14.3991C14.6378 8.99957 14.8667 8.90476 15.0355 8.73599C15.2042 8.56722 15.2991 8.33831 15.2991 8.09964C15.2991 7.86096 15.2042 7.63206 15.0355 7.46329C14.8667 7.29452 14.6378 7.19971 14.3991 7.19971H8.99954C8.76086 7.19971 8.53196 7.29452 8.36319 7.46329C8.19442 7.63206 8.09961 7.86096 8.09961 8.09964C8.09961 8.33831 8.19442 8.56722 8.36319 8.73599C8.53196 8.90476 8.76086 8.99957 8.99954 8.99957Z" fill="#012D4A"/>
<path d="M8.99954 12.5992H12.5993C12.8379 12.5992 13.0668 12.5044 13.2356 12.3356C13.4044 12.1668 13.4992 11.9379 13.4992 11.6992C13.4992 11.4606 13.4044 11.2317 13.2356 11.0629C13.0668 10.8941 12.8379 10.7993 12.5993 10.7993H8.99954C8.76086 10.7993 8.53196 10.8941 8.36319 11.0629C8.19442 11.2317 8.09961 11.4606 8.09961 11.6992C8.09961 11.9379 8.19442 12.1668 8.36319 12.3356C8.53196 12.5044 8.76086 12.5992 8.99954 12.5992Z" fill="#012D4A"/>
<path d="M8.99954 16.1985H12.5993C12.8379 16.1985 13.0668 16.1037 13.2356 15.935C13.4044 15.7662 13.4992 15.5373 13.4992 15.2986C13.4992 15.0599 13.4044 14.831 13.2356 14.6623C13.0668 14.4935 12.8379 14.3987 12.5993 14.3987H8.99954C8.76086 14.3987 8.53196 14.4935 8.36319 14.6623C8.19442 14.831 8.09961 15.0599 8.09961 15.2986C8.09961 15.5373 8.19442 15.7662 8.36319 15.935C8.53196 16.1037 8.76086 16.1985 8.99954 16.1985Z" fill="#012D4A"/>
</svg>
