<svg width="54" height="51" viewBox="0 0 54 51" fill="none" xmlns="http://www.w3.org/2000/svg">
<path d="M1.27539 15.7544V20.2226L4.84992 23.7971L3.06266 26.478L11.999 33.6271L16.4672 34.5207L22.7226 33.6271V36.308L21.829 38.9889L26.2971 42.5634L30.7653 38.9889L35.2335 42.5634L44.1698 36.308L47.7443 29.1589L44.1698 24.6908L45.9571 21.1162L42.3825 22.0099L40.5953 19.329L44.1698 16.6481L45.9571 17.5417L52.2125 12.1799L51.3189 10.3926L53.1061 9.499V5.03083L50.4252 6.8181L48.638 5.03083H46.8507L45.0634 1.4563H40.5953V6.8181H37.9144V9.499L41.4889 10.3926L37.0207 13.0735H35.2335L34.3398 15.7544L29.8717 17.5417L21.829 15.7544L20.9353 13.0735L17.3608 12.1799V9.499L15.5735 7.71173L8.42446 11.2863V14.8608L1.27539 15.7544Z" fill="#DCE1E7"/>
<path d="M35.1235 45.3543L33.7281 46.7498C33.5737 46.9041 33.4513 47.0874 33.3677 47.2891C33.2842 47.4908 33.2412 47.7069 33.2412 47.9252C33.2412 48.1435 33.2842 48.3597 33.3677 48.5614C33.4513 48.763 33.5737 48.9463 33.7281 49.1006C33.9067 49.2793 34.1237 49.4148 34.3626 49.497C34.6014 49.5793 34.8559 49.6059 35.1066 49.5751C35.3574 49.5442 35.5977 49.4566 35.8095 49.3189C36.0213 49.1812 36.199 48.9971 36.3289 48.7805L37.3443 47.0882C37.5071 46.8168 37.5746 46.4987 37.5359 46.1845C37.4972 45.8704 37.3547 45.5782 37.1308 45.3543C36.8647 45.0881 36.5036 44.9386 36.1272 44.9386C35.7508 44.9386 35.3897 45.0881 35.1235 45.3543Z" fill="#DCE1E7"/>
<path d="M47.4064 37.6604C47.237 38.3381 47.246 39.0482 47.4324 39.7214C47.6189 40.3947 47.9766 41.0082 48.4705 41.5022L48.7685 41.8002C48.9979 42.0295 49.2866 42.1905 49.6023 42.265C49.9179 42.3395 50.2481 42.3246 50.5558 42.2221C50.7734 42.1495 50.9746 42.0349 51.1478 41.8846C51.3211 41.7343 51.4631 41.5514 51.5656 41.3463C51.6682 41.1411 51.7294 40.9178 51.7456 40.689C51.7619 40.4602 51.7329 40.2305 51.6604 40.0129L50.8324 37.5288C50.7139 37.1733 50.4865 36.8641 50.1825 36.645C49.8785 36.4259 49.5133 36.308 49.1386 36.308C48.7404 36.308 48.3536 36.4411 48.0398 36.6861C47.7259 36.9312 47.503 37.2741 47.4064 37.6604Z" fill="#DCE1E7"/>
<path d="M23.6164 19.329L25.0632 23.7817H29.7451L25.9574 26.5337L27.4042 30.9864L23.6164 28.2345L19.8287 30.9864L21.2755 26.5337L17.4878 23.7817H22.1697L23.6164 19.329Z" fill="#95A4B6"/>
<path d="M53.5278 4.24286C53.3852 4.16659 53.2246 4.13043 53.063 4.13825C52.9015 4.14607 52.7451 4.19757 52.6105 4.28726L50.5392 5.66818L49.27 4.39885C49.1024 4.2313 48.8751 4.13716 48.6381 4.13716H47.4031L45.8628 1.05656C45.7886 0.908131 45.6745 0.783298 45.5333 0.696056C45.3921 0.608814 45.2295 0.56261 45.0635 0.562622H40.5953C40.3583 0.562634 40.1311 0.656788 39.9635 0.824374C39.7959 0.991961 39.7017 1.21925 39.7017 1.45626V5.92442H37.9144C37.6774 5.92443 37.4502 6.01859 37.2826 6.18618C37.115 6.35376 37.0208 6.58105 37.0208 6.81806V9.49896C37.0208 9.69825 37.0874 9.89182 37.2101 10.0489C37.3327 10.206 37.5043 10.3176 37.6977 10.3659L39.1792 10.7363L36.7733 12.1799H35.2335C35.046 12.1799 34.8632 12.2389 34.711 12.3485C34.5589 12.4582 34.4451 12.6129 34.3857 12.7908L33.6232 15.0786L29.7962 16.6094L22.5168 14.9918L21.7832 12.7908C21.7357 12.6482 21.6529 12.5199 21.5426 12.4178C21.4323 12.3157 21.298 12.243 21.1522 12.2066L18.2545 11.4821V9.49896C18.2545 9.26195 18.1604 9.03464 17.9928 8.86702L16.2055 7.07975C16.0729 6.94715 15.9019 6.85964 15.7167 6.82961C15.5316 6.79958 15.3417 6.82855 15.1739 6.91242L8.02485 10.487C7.87641 10.5612 7.75158 10.6753 7.66434 10.8164C7.5771 10.9576 7.53089 11.1203 7.5309 11.2862V14.0718L1.16464 14.8676C0.948509 14.8947 0.749691 14.9997 0.605543 15.163C0.461396 15.3263 0.381844 15.5366 0.381836 15.7544V20.2226C0.381843 20.4596 0.475974 20.6869 0.643533 20.8545L3.70013 23.911L2.31921 25.9823C2.19516 26.1684 2.14537 26.3942 2.17969 26.6151C2.214 26.8361 2.32991 27.0362 2.50454 27.1758L11.4409 34.3249C11.5524 34.4141 11.6837 34.4753 11.8238 34.5034L16.2919 35.397C16.3913 35.4168 16.4933 35.4197 16.5937 35.4054L21.829 34.6574V36.163L20.9812 38.7062C20.9234 38.8797 20.9202 39.0666 20.972 39.242C21.0238 39.4173 21.1281 39.5725 21.2708 39.6867L25.739 43.2612C25.8975 43.388 26.0943 43.457 26.2972 43.457C26.5001 43.457 26.697 43.388 26.8554 43.2612L30.7654 40.1333L34.6754 43.2612C34.8262 43.3818 35.012 43.4503 35.205 43.4565C35.398 43.4627 35.5878 43.4062 35.746 43.2955L44.6824 37.04C44.8041 36.9548 44.9027 36.8406 44.9692 36.7077L48.5437 29.5586C48.62 29.4059 48.6511 29.2346 48.6331 29.0648C48.6151 28.8951 48.5489 28.734 48.4422 28.6007L45.2249 24.5789L46.7564 21.5159C46.8329 21.363 46.8639 21.1914 46.8458 21.0215C46.8276 20.8515 46.7612 20.6904 46.6542 20.557C46.5473 20.4237 46.4044 20.3239 46.2424 20.2693C46.0804 20.2148 45.9062 20.2078 45.7404 20.2493L42.7769 20.9901L41.8078 19.5366L44.2642 17.6943L45.5575 18.3409C45.7147 18.4196 45.8917 18.4502 46.0663 18.4287C46.2409 18.4072 46.4052 18.3347 46.5387 18.2202L52.7941 12.8584C52.9454 12.7287 53.0491 12.5521 53.0885 12.3567C53.128 12.1614 53.101 11.9584 53.0119 11.7802L52.5179 10.7923L53.5059 10.2982C53.6543 10.224 53.7792 10.1099 53.8664 9.96876C53.9537 9.82759 53.9999 9.66491 53.9999 9.49896V5.03079C53.9998 4.86903 53.9559 4.71031 53.8728 4.57155C53.7897 4.43279 53.6705 4.31919 53.5278 4.24286ZM52.2126 8.94665L50.9193 9.59332C50.7073 9.69934 50.5461 9.88521 50.4712 10.1101C50.3963 10.3349 50.4137 10.5803 50.5197 10.7923L51.1012 11.9555L45.826 16.477L44.5696 15.8488C44.4212 15.7745 44.255 15.743 44.0897 15.7579C43.9244 15.7728 43.7665 15.8334 43.6337 15.9331L40.0592 18.614C39.8764 18.751 39.7531 18.9529 39.7146 19.178C39.676 19.4032 39.7251 19.6345 39.8518 19.8246L41.6391 22.5055C41.7412 22.659 41.8884 22.777 42.0603 22.8435C42.2323 22.9099 42.4206 22.9216 42.5994 22.8767L44.2889 22.4544L43.3706 24.291C43.2943 24.4437 43.2632 24.6151 43.2812 24.7848C43.2992 24.9546 43.3654 25.1156 43.4721 25.2489L46.6894 29.2707L43.4718 35.7057L35.2692 41.4476L31.3236 38.291C31.1651 38.1643 30.9683 38.0952 30.7654 38.0952C30.5625 38.0952 30.3656 38.1643 30.2072 38.291L26.2972 41.419L22.8739 38.6804L23.5705 36.5906C23.6008 36.4995 23.6163 36.404 23.6163 36.308V33.6271C23.6163 33.499 23.5888 33.3725 23.5356 33.256C23.4825 33.1395 23.4049 33.0358 23.3082 32.9519C23.2114 32.8681 23.0978 32.8059 22.975 32.7698C22.8522 32.7336 22.723 32.7243 22.5962 32.7424L16.4923 33.6144L12.3875 32.7934L4.26072 26.292L5.59353 24.2928C5.70813 24.1209 5.75963 23.9146 5.73929 23.709C5.71894 23.5034 5.628 23.3113 5.48194 23.1652L2.1691 19.8524V16.5433L8.53537 15.7475C8.7515 15.7205 8.95032 15.6155 9.09447 15.4522C9.23861 15.2889 9.31816 15.0786 9.31817 14.8608V11.8385L15.3971 8.79906L16.4672 9.86909V12.1799C16.4672 12.3791 16.5338 12.5727 16.6565 12.7298C16.7791 12.8869 16.9508 12.9985 17.1441 13.0468L20.2427 13.8215L20.9812 16.037C21.03 16.1834 21.1159 16.3147 21.2305 16.418C21.3451 16.5214 21.4846 16.5933 21.6352 16.6268L29.6779 18.414C29.8534 18.4529 30.0366 18.4381 30.2036 18.3714L34.6718 16.5841C34.7924 16.5359 34.901 16.462 34.9901 16.3675C35.0792 16.273 35.1467 16.1602 35.1877 16.037L35.8776 13.9671H37.0208C37.1828 13.9671 37.3417 13.9231 37.4806 13.8398L41.9488 11.1589C42.1003 11.068 42.2215 10.9342 42.297 10.7743C42.3725 10.6145 42.3989 10.4359 42.3729 10.2611C42.3469 10.0863 42.2696 9.9231 42.1509 9.7922C42.0321 9.66129 41.8772 9.56855 41.7057 9.52568L38.8081 8.80124V7.71169H40.5953C40.8324 7.71168 41.0596 7.61752 41.2272 7.44994C41.3948 7.28235 41.489 7.05506 41.489 6.81806V2.34989H44.5112L46.0515 5.43048C46.1257 5.57891 46.2398 5.70375 46.381 5.79099C46.5222 5.87823 46.6848 5.92444 46.8508 5.92442H48.2679L49.7934 7.44999C49.9395 7.59605 50.1317 7.68699 50.3372 7.70734C50.5428 7.72768 50.7491 7.67618 50.921 7.56159L52.2126 6.70057V8.94665Z" fill="#012D4A"/>
<path d="M34.4917 44.7223L33.0961 46.1178C32.7391 46.475 32.4958 46.9299 32.397 47.4252C32.2982 47.9205 32.3484 48.434 32.5412 48.9008C32.7339 49.3676 33.0607 49.7669 33.4801 50.0482C33.8996 50.3295 34.393 50.4803 34.898 50.4815C35.0043 50.4814 35.1104 50.4749 35.2159 50.4619C35.6017 50.4156 35.9718 50.2814 36.2976 50.0696C36.6234 49.8577 36.8963 49.574 37.0952 49.2402L38.1105 47.5479C38.401 47.0639 38.5044 46.4903 38.4013 45.9353C38.2982 45.3803 37.9956 44.8821 37.5507 44.5347C37.1057 44.1873 36.5491 44.0146 35.9857 44.0491C35.4222 44.0837 34.8908 44.3231 34.4917 44.7223ZM36.5779 46.6283L35.5626 48.3207C35.5066 48.414 35.4313 48.4944 35.3419 48.5565C35.2525 48.6186 35.1509 48.661 35.0439 48.6809C34.9368 48.7008 34.8268 48.6977 34.721 48.6719C34.6153 48.6461 34.5162 48.598 34.4304 48.531C34.3446 48.464 34.274 48.3796 34.2233 48.2832C34.1726 48.1869 34.1429 48.0809 34.1363 47.9722C34.1296 47.8636 34.1461 47.7547 34.1847 47.6529C34.2233 47.5511 34.283 47.4586 34.36 47.3817L35.7555 45.9861C35.8463 45.8954 35.967 45.841 36.0951 45.8332C36.2231 45.8254 36.3496 45.8646 36.4507 45.9436C36.5518 46.0225 36.6206 46.1357 36.644 46.2618C36.6674 46.388 36.6439 46.5183 36.5779 46.6283V46.6283Z" fill="#012D4A"/>
<path d="M51.68 37.2462C51.4966 36.6961 51.1397 36.2203 50.6629 35.8903C50.1861 35.5604 49.615 35.394 49.0356 35.4163C48.4562 35.4385 47.8996 35.6482 47.4495 36.0138C46.9994 36.3793 46.68 36.8811 46.5394 37.4436C46.335 38.2712 46.3471 39.1374 46.5746 39.959C46.8021 40.7805 47.2374 41.5295 47.8384 42.134L48.1364 42.432C48.3802 42.6774 48.6701 42.8722 48.9895 43.0052C49.3088 43.1383 49.6513 43.2069 49.9972 43.2071C50.2831 43.2069 50.5671 43.1606 50.8382 43.0699C51.1671 42.9602 51.4712 42.7869 51.7332 42.5597C51.9951 42.3326 52.2097 42.056 52.3648 41.7459C52.5199 41.4358 52.6123 41.0981 52.6369 40.7523C52.6615 40.4064 52.6177 40.0591 52.508 39.7302L51.68 37.2462ZM50.273 41.3743C50.1228 41.4249 49.9614 41.4324 49.8072 41.3959C49.6529 41.3595 49.512 41.2806 49.4003 41.1682L49.1023 40.8701C48.7187 40.4844 48.4409 40.0064 48.2957 39.4822C48.1505 38.958 48.1428 38.4052 48.2732 37.8771L48.2733 37.877C48.3201 37.6898 48.4264 37.5228 48.5762 37.4011C48.7261 37.2794 48.9113 37.2096 49.1042 37.2022C49.2971 37.1948 49.4871 37.2502 49.6458 37.36C49.8045 37.4699 49.9233 37.6282 49.9843 37.8114L50.8124 40.2954C50.8837 40.51 50.8669 40.7441 50.7658 40.9464C50.6647 41.1487 50.4874 41.3026 50.273 41.3743Z" fill="#012D4A"/>
<path d="M27.0075 26.875L30.27 24.5046C30.4226 24.3937 30.5363 24.2373 30.5946 24.0578C30.6529 23.8784 30.6529 23.685 30.5946 23.5056C30.5363 23.3261 30.4226 23.1697 30.27 23.0588C30.1173 22.9478 29.9334 22.8881 29.7447 22.8881H25.7121L24.4659 19.0528C24.4076 18.8733 24.294 18.7169 24.1413 18.606C23.9886 18.4951 23.8048 18.4353 23.616 18.4353C23.4273 18.4353 23.2434 18.4951 23.0908 18.606C22.9381 18.7169 22.8244 18.8733 22.7661 19.0528L21.5199 22.8881H17.4874C17.2986 22.8881 17.1148 22.9478 16.9621 23.0588C16.8094 23.1697 16.6958 23.3261 16.6375 23.5056C16.5792 23.685 16.5792 23.8784 16.6375 24.0578C16.6958 24.2373 16.8094 24.3937 16.9621 24.5046L20.2245 26.875L18.9785 30.7103C18.9201 30.8898 18.9201 31.0831 18.9784 31.2626C19.0368 31.4421 19.1504 31.5985 19.3031 31.7094C19.4558 31.8204 19.6396 31.8801 19.8284 31.8801C20.0171 31.8801 20.2009 31.8203 20.3536 31.7093L23.616 29.339L26.8785 31.7093C27.0311 31.8203 27.215 31.8801 27.4037 31.8801C27.5924 31.8801 27.7763 31.8204 27.929 31.7094C28.0817 31.5985 28.1953 31.4421 28.2536 31.2626C28.3119 31.0831 28.3119 30.8898 28.2536 30.7103L27.0075 26.875ZM25.4318 25.8107C25.2791 25.9216 25.1655 26.078 25.1071 26.2575C25.0488 26.437 25.0488 26.6303 25.1071 26.8097L25.7039 28.6469L24.1413 27.5115C23.9886 27.4005 23.8048 27.3408 23.616 27.3408C23.4273 27.3408 23.2434 27.4005 23.0908 27.5115L21.5281 28.6469L22.1249 26.8097C22.1832 26.6303 22.1832 26.437 22.1249 26.2575C22.0666 26.078 21.953 25.9216 21.8003 25.8107L20.2376 24.6754H22.1692C22.3579 24.6754 22.5418 24.6156 22.6945 24.5047C22.8472 24.3937 22.9608 24.2373 23.0191 24.0578L23.616 22.2208L24.213 24.0578C24.2713 24.2373 24.3849 24.3937 24.5376 24.5047C24.6902 24.6156 24.8741 24.6754 25.0628 24.6754H26.9944L25.4318 25.8107Z" fill="#012D4A"/>
<path d="M30.7652 35.4143C31.2588 35.4143 31.6588 35.0142 31.6588 34.5207C31.6588 34.0272 31.2588 33.6271 30.7652 33.6271C30.2717 33.6271 29.8716 34.0272 29.8716 34.5207C29.8716 35.0142 30.2717 35.4143 30.7652 35.4143Z" fill="#012D4A"/>
<path d="M33.4464 31.8398C33.9399 31.8398 34.34 31.4397 34.34 30.9461C34.34 30.4526 33.9399 30.0525 33.4464 30.0525C32.9528 30.0525 32.5527 30.4526 32.5527 30.9461C32.5527 31.4397 32.9528 31.8398 33.4464 31.8398Z" fill="#012D4A"/>
<path d="M34.3399 27.3716C34.8335 27.3716 35.2336 26.9715 35.2336 26.478C35.2336 25.9844 34.8335 25.5844 34.3399 25.5844C33.8464 25.5844 33.4463 25.9844 33.4463 26.478C33.4463 26.9715 33.8464 27.3716 34.3399 27.3716Z" fill="#012D4A"/>
<path d="M33.4464 22.0099C33.9399 22.0099 34.34 21.6098 34.34 21.1163C34.34 20.6227 33.9399 20.2227 33.4464 20.2227C32.9528 20.2227 32.5527 20.6227 32.5527 21.1163C32.5527 21.6098 32.9528 22.0099 33.4464 22.0099Z" fill="#012D4A"/>
</svg>
