<svg width="62" height="48" viewBox="0 0 62 48" fill="none" xmlns="http://www.w3.org/2000/svg">
<path d="M0.0323493 46.5129C3.63929 46.5129 7.24623 46.5129 10.934 46.5129C10.934 45.233 10.934 43.9693 10.934 42.657C12.2442 42.657 13.4896 42.657 14.7998 42.657C14.7998 41.3448 14.7998 40.0973 14.7998 38.785C15.4629 38.785 16.0614 38.785 16.7084 38.785C16.7084 28.2544 16.7084 17.7886 16.7084 7.24181C16.1099 7.24181 15.5115 7.24181 14.8483 7.24181C14.8483 4.79547 14.8483 2.43014 14.8483 0C25.6206 0 36.3767 0 47.1814 0C47.1814 2.36534 47.1814 4.76307 47.1814 7.19321C46.5829 7.19321 45.9845 7.19321 45.3375 7.19321C45.3375 17.7238 45.3375 28.1896 45.3375 38.7364C45.9359 38.7364 46.5506 38.7364 47.1976 38.7364C47.1976 40.0487 47.1976 41.2962 47.1976 42.6084C48.5077 42.6084 49.7532 42.6084 51.0633 42.6084C51.0633 43.9207 51.0633 45.1682 51.0633 46.4805C54.7188 46.4805 58.3095 46.4805 61.9488 46.4805C61.9488 46.9827 61.9488 47.4201 61.9488 47.9385C61.6577 47.9385 61.3665 47.9385 61.0754 47.9385C40.9865 47.9385 20.8814 47.9385 0.792557 47.9385C0.533763 47.9385 0.274969 47.9385 0 47.9547C0.0323493 47.4849 0.0323493 46.9989 0.0323493 46.5129ZM22.0622 7.24181C22.0622 9.02392 22.1269 10.7412 22.046 12.4585C21.9813 13.544 22.2563 14.354 23.0974 15.0345C23.4694 15.3261 23.7767 15.5043 24.2619 15.5043C28.4835 15.4881 32.6889 15.4557 36.9105 15.5205C38.0427 15.5367 38.9161 15.2937 39.6278 14.3864C39.8543 14.0786 40.0322 13.8356 40.016 13.4306C39.9837 11.5351 39.9999 9.65575 39.9837 7.77644C39.9837 7.59823 39.9675 7.43623 39.9513 7.24181C33.9829 7.24181 28.063 7.24181 22.0622 7.24181ZM45.7742 5.73513C45.7742 4.26084 45.7742 2.85136 45.7742 1.42568C35.9238 1.42568 26.122 1.42568 16.3202 1.42568C16.3202 2.88376 16.3202 4.29325 16.3202 5.73513C26.1544 5.73513 35.9238 5.73513 45.7742 5.73513ZM12.4383 44.1151C12.4383 44.8928 12.4383 45.6542 12.4383 46.4481C24.8442 46.4481 37.2178 46.4481 49.6238 46.4481C49.6238 45.6542 49.6238 44.8928 49.6238 44.1151C37.2178 44.1151 24.8604 44.1151 12.4383 44.1151ZM20.5741 23.0539C20.5741 18.0478 20.5579 13.0417 20.5903 8.03566C20.5903 7.42002 20.4124 7.24181 19.8139 7.25802C18.245 7.29042 18.2288 7.27422 18.2288 8.86191C18.2288 18.2746 18.2288 27.6874 18.2288 37.1001C18.2288 38.704 18.245 38.6878 19.8624 38.7202C20.3962 38.7364 20.5903 38.6068 20.5903 38.0236C20.5579 33.0337 20.5741 28.0438 20.5741 23.0539ZM41.4879 22.9891H41.4717C41.4717 23.8802 41.4717 24.7712 41.4717 25.6623C41.4717 29.6639 41.4717 33.6655 41.4879 37.651C41.4879 38.704 41.5203 38.704 42.6201 38.704C43.7685 38.704 43.7685 38.704 43.8171 37.5862C43.8171 37.4403 43.8332 37.3107 43.8332 37.1649C43.8332 27.7198 43.8332 18.2584 43.8332 8.8133C43.8332 7.27422 43.8171 7.27422 42.3128 7.27422C42.2805 7.27422 42.232 7.27422 42.1996 7.27422C41.6497 7.19321 41.4717 7.40382 41.4717 7.97086C41.4879 12.9769 41.4879 17.983 41.4879 22.9891ZM45.7742 40.2431C35.9077 40.2431 26.0897 40.2431 16.2878 40.2431C16.2878 41.0531 16.2878 41.7984 16.2878 42.5598C26.1382 42.5598 35.94 42.5598 45.7742 42.5598C45.7742 41.7822 45.7742 41.0369 45.7742 40.2431ZM22.0622 37.5862C22.1269 37.6186 22.1754 37.6348 22.2401 37.6672C25.1677 34.7348 28.1115 31.7862 31.1847 28.708C34.1123 31.6566 37.0399 34.6214 40.016 37.6348C40.016 36.5331 40.0484 35.5124 39.9999 34.4756C39.9837 34.1678 39.8381 33.8113 39.6278 33.6007C36.9267 30.8466 34.1932 28.1248 31.4596 25.4031C31.3303 25.2734 31.1685 25.1438 31.0229 24.998C28.0792 27.9466 25.1839 30.8466 22.2886 33.7465C22.1916 33.8437 22.0784 34.0219 22.0784 34.1516C22.046 35.3018 22.0622 36.4359 22.0622 37.5862ZM29.8422 24.026C27.2381 21.4176 24.6501 18.8255 22.1107 16.2981C22.1107 21.369 22.1107 26.5695 22.1107 31.77C24.731 29.1455 27.3189 26.5533 29.8422 24.026ZM39.9513 31.77C39.9513 26.5695 39.9513 21.3528 39.9513 16.2657C37.3796 18.8417 34.7916 21.4338 32.2037 24.026C34.7431 26.5533 37.331 29.1617 39.9513 31.77ZM31.1038 31.1058C28.5806 33.6007 25.9603 36.1767 23.4047 38.704C28.4673 38.704 33.627 38.704 38.8191 38.704C36.1503 36.0957 33.5462 33.5359 31.1038 31.1058ZM25.2324 16.9462C27.1734 18.9065 29.1143 20.8668 30.9421 22.7299C32.8668 20.7858 34.8078 18.8579 36.7164 16.9462C32.9477 16.9462 29.082 16.9462 25.2324 16.9462Z" fill="#012D4A"/>
<path d="M22.0621 7.24194C28.0628 7.24194 33.9828 7.24194 39.9512 7.24194C39.9674 7.43635 39.9835 7.59836 39.9835 7.77657C39.9835 9.65588 39.9835 11.5352 39.9997 13.4145C39.9997 13.8195 39.838 14.0625 39.6115 14.3703C38.916 15.2938 38.0426 15.5206 36.8942 15.5044C32.6726 15.4396 28.4672 15.472 24.2456 15.4882C23.7604 15.4882 23.4531 15.31 23.0811 15.0184C22.2238 14.3379 21.965 13.5279 22.0297 12.4424C22.1268 10.7575 22.0621 9.02404 22.0621 7.24194Z" fill="white"/>
<path d="M45.7741 5.73523C35.9399 5.73523 26.1542 5.73523 16.3201 5.73523C16.3201 4.30955 16.3201 2.88386 16.3201 1.42578C26.1219 1.42578 35.9237 1.42578 45.7741 1.42578C45.7741 2.86766 45.7741 4.26094 45.7741 5.73523Z" fill="#B9C2CF"/>
<path d="M12.4382 44.115C24.8603 44.115 37.2178 44.115 49.6237 44.115C49.6237 44.8926 49.6237 45.6541 49.6237 46.4479C37.2178 46.4479 24.8442 46.4479 12.4382 46.4479C12.4382 45.6541 12.4382 44.8926 12.4382 44.115Z" fill="#B9C2CF"/>
<path d="M20.5741 23.0541C20.5741 28.0439 20.5579 33.0338 20.5903 38.0237C20.5903 38.607 20.3962 38.7366 19.8624 38.7204C18.2449 38.688 18.2288 38.7204 18.2288 37.1003C18.2288 27.6875 18.2288 18.2748 18.2288 8.86205C18.2288 7.25816 18.2449 7.29056 19.8139 7.25816C20.4285 7.24196 20.5903 7.40397 20.5903 8.0358C20.5579 13.0419 20.5741 18.048 20.5741 23.0541Z" fill="#95A4B6"/>
<path d="M41.4881 22.9892C41.4881 17.9831 41.5043 12.977 41.4719 7.97091C41.4719 7.40388 41.6498 7.19327 42.1998 7.27427C42.2321 7.27427 42.2807 7.27427 42.313 7.27427C43.8172 7.27427 43.8334 7.27427 43.8334 8.81336C43.8334 18.2585 43.8334 27.7198 43.8334 37.165C43.8334 37.3108 43.8172 37.4404 43.8172 37.5862C43.7687 38.7041 43.7687 38.7041 42.6203 38.7041C41.5204 38.7041 41.4881 38.7041 41.4881 37.651C41.4719 33.6494 41.4719 29.6478 41.4719 25.6623C41.4719 24.7713 41.4719 23.8802 41.4719 22.9892C41.4719 22.9892 41.4719 22.9892 41.4881 22.9892Z" fill="#95A4B6"/>
<path d="M45.7742 40.2432C45.7742 41.0208 45.7742 41.7661 45.7742 42.5599C35.94 42.5599 26.1382 42.5599 16.2878 42.5599C16.2878 41.7985 16.2878 41.037 16.2878 40.2432C26.1058 40.2432 35.9077 40.2432 45.7742 40.2432Z" fill="#B9C2CF"/>
<path d="M22.0623 37.5862C22.0623 36.4359 22.0623 35.3018 22.0784 34.1516C22.0784 34.022 22.1917 33.8438 22.2887 33.7465C25.184 30.8466 28.0792 27.9466 31.023 24.998C31.1686 25.1439 31.3303 25.2573 31.4597 25.4031C34.1932 28.1248 36.9106 30.8628 39.6279 33.6007C39.8382 33.8113 39.9837 34.184 39.9999 34.4756C40.0484 35.4962 40.0161 36.5331 40.0161 37.6348C37.04 34.6214 34.1124 31.6728 31.1847 28.7081C28.1116 31.7862 25.184 34.7186 22.2402 37.6672C22.1755 37.6348 22.1108 37.6186 22.0623 37.5862Z" fill="white"/>
<path d="M29.8423 24.026C27.3191 26.5534 24.7311 29.1455 22.1108 31.7539C22.1108 26.5696 22.1108 21.3529 22.1108 16.282C24.6341 18.8255 27.2382 21.4339 29.8423 24.026Z" fill="white"/>
<path d="M39.9513 31.7702C37.331 29.1618 34.743 26.5535 32.2036 24.0261C34.7754 21.4502 37.3795 18.8418 39.9513 16.2659C39.9513 21.353 39.9513 26.5697 39.9513 31.7702Z" fill="white"/>
<path d="M31.1039 31.1057C33.5625 33.5197 36.1666 36.0956 38.8192 38.7039C33.611 38.7039 28.4674 38.7039 23.4048 38.7039C25.9604 36.1766 28.5645 33.6169 31.1039 31.1057Z" fill="#95A4B6"/>
<path d="M25.2324 16.946C29.082 16.946 32.9477 16.946 36.7002 16.946C34.8078 18.8416 32.8668 20.7857 30.9259 22.7298C29.0982 20.8667 27.1734 18.9064 25.2324 16.946Z" fill="#B9C2CF"/>
</svg>
