<svg width="51" height="57" viewBox="0 0 51 57" fill="none" xmlns="http://www.w3.org/2000/svg">
<path d="M20.2734 29.3332V0.661621H48.5039V29.3332" fill="#B9C2CF"/>
<path d="M20.2734 27.5687H48.5039V29.3331H20.2734V27.5687Z" fill="#95A4B6"/>
<path d="M44.9748 55.7993H0.864746V20.5112H13.2156V24.04H44.9748V55.7993Z" fill="#95A4B6"/>
<path d="M0.864746 54.0348H50.268V55.7992H0.864746V54.0348Z" fill="#72869E"/>
<path d="M44.9746 13.0124V29.3332H16.7441V4.19043H36.1526L44.9746 13.0124Z" fill="white"/>
<path d="M36.1523 13.0125H44.9744V14.7769H36.1523V13.0125Z" fill="#DCE1E7"/>
<path d="M16.7441 27.5687H44.9746V29.3331H16.7441V27.5687Z" fill="#DCE1E7"/>
<path d="M6.15771 29.3331H50.2678V55.7992H6.15771V29.3331Z" fill="#DCE1E7"/>
<path d="M6.15771 54.0348H50.2678V55.7992H6.15771V54.0348Z" fill="#B9C2CF"/>
<path d="M37.917 48.7416H46.739V52.2704H37.917V48.7416Z" fill="white"/>
<path d="M44.9748 13.0124H36.1528V4.19043" fill="#95A4B6"/>
<path d="M20.2734 17.644H41.4463V18.9673H20.2734V17.644Z" fill="#012D4A"/>
<path d="M20.2734 24.7017H36.1531V26.025H20.2734V24.7017Z" fill="#012D4A"/>
<path d="M20.2734 21.1729H41.4463V22.4962H20.2734V21.1729Z" fill="#012D4A"/>
<path d="M20.2734 12.3508H27.331V13.6741H20.2734V12.3508Z" fill="#012D4A"/>
<path d="M20.2734 8.82202H30.8599V10.1453H20.2734V8.82202Z" fill="#012D4A"/>
<path d="M49.1653 28.6715V0H19.6115V3.5288H16.0827V23.3783H13.8772V19.8495H0.203125V56.4609H50.9297V28.6715H49.1653ZM20.9349 1.3233H47.842V28.6715H45.6365V12.7384L36.4268 3.5288H20.9349V1.3233ZM36.8145 5.78779L43.3775 12.3508H36.8145V5.78779ZM35.4912 4.85211V13.6741H44.3132V28.6715H17.406V4.85211H35.4912ZM5.49633 55.1376H1.52643V21.1728H12.5539V23.3783H4.39358V24.7016H16.0827V28.6715H5.49633V55.1376ZM49.6064 55.1376H6.81963V29.9948H49.6064V55.1376Z" fill="#012D4A"/>
<path d="M47.4007 48.08H37.2554V52.9321H47.4007V48.08ZM46.0774 51.6088H38.5787V49.4033H46.0774V51.6088Z" fill="#012D4A"/>
</svg>
