<svg width="51" height="54" viewBox="0 0 51 54" fill="none" xmlns="http://www.w3.org/2000/svg">
<path d="M25.5796 0.618896C39.1562 0.618896 50.1565 11.6192 50.1565 25.1958C50.1565 38.7724 39.1561 49.7727 25.5796 49.7727C22.088 49.7727 15.8759 47.6963 12.8674 46.3828C9.35044 50.6795 6.93507 52.3152 6.93507 52.3152V41.1962C3.24003 36.8994 1.00269 31.3061 1.00269 25.1958C1.00269 11.6192 12.0029 0.618896 25.5796 0.618896Z" fill="#DCE1E7"/>
<path d="M29.9895 1.02145C28.5581 0.762067 27.0859 0.619385 25.5796 0.619385C12.0029 0.619385 1.00269 11.6196 1.00269 25.1963C1.00269 31.3066 3.24003 36.8999 6.93507 41.1967V52.3156C6.93507 52.3156 9.35033 50.6799 12.8674 46.3832C13.5453 46.6792 14.3911 47.0142 15.3264 47.3551C11.4914 42.3387 9.22916 36.1871 9.22916 29.5448C9.22916 16.5608 17.8382 5.47611 29.9895 1.02145Z" fill="#B9C2CF"/>
<path d="M25.5796 20.9587C27.9187 20.9587 29.817 22.8571 29.817 25.1961C29.817 27.5351 27.9187 29.4334 25.5796 29.4334C23.2406 29.4334 21.3423 27.5351 21.3423 25.1961C21.3423 22.8571 23.2405 20.9587 25.5796 20.9587Z" fill="#DCE1E7"/>
<path d="M37.4445 22.6532V27.7381H33.6647C33.5121 28.2127 33.3172 28.6703 33.0884 29.111L35.7665 31.7891L32.1731 35.3824L29.4951 32.7044C29.0543 32.9332 28.5967 33.1282 28.1221 33.2806V37.0604H23.0372V33.2806C22.5626 33.1281 22.105 32.9332 21.6643 32.7044L18.9862 35.3824L15.3928 31.7891L18.0709 29.111C17.8421 28.6703 17.6471 28.2127 17.4946 27.7381H13.7148V22.6532H17.4946C17.6472 22.1786 17.8421 21.7209 18.0709 21.2802L15.3928 18.6022L18.9862 15.0088L21.6643 17.6869C22.105 17.458 22.5626 17.2631 23.0372 17.1106V13.3308H28.1221V17.1106C28.5967 17.2632 29.0543 17.458 29.4951 17.6869L32.1731 15.0088L35.7665 18.6022L33.0884 21.2802C33.3172 21.7209 33.5122 22.1786 33.6647 22.6532H37.4445ZM29.8172 25.1956C29.8172 22.8565 27.9188 20.9582 25.5798 20.9582C23.2408 20.9582 21.3425 22.8565 21.3425 25.1956C21.3425 27.5346 23.2408 29.4329 25.5798 29.4329C27.9188 29.4329 29.8172 27.5346 29.8172 25.1956Z" fill="#ADAFBB"/>
<path d="M47.8249 37.6257L46.4267 36.8538C48.3549 33.361 49.3742 29.3918 49.3742 25.375C49.3742 19.022 46.9013 13.0503 42.4109 8.56001C37.9205 4.06968 31.9488 1.5967 25.596 1.5967C21.579 1.5967 17.6097 2.61592 14.1172 4.54426L13.3452 3.14597C17.0735 1.08752 21.3097 -0.000488281 25.596 -0.000488281C32.3755 -0.000488281 38.7483 2.6386 43.5403 7.43069C48.3322 12.2227 50.9713 18.5955 50.9713 25.375C50.9714 29.661 49.8833 33.8973 47.8249 37.6257Z" fill="#012D4A"/>
<path d="M6.15308 53.9994V41.6686C2.32537 37.1099 0.220703 31.3357 0.220703 25.3748C0.220703 16.8389 4.47295 8.92559 11.5952 4.20654L12.4774 5.53796C5.80277 9.96036 1.81789 17.376 1.81789 25.3748C1.81789 31.0535 3.85622 36.5508 7.55712 40.8544L7.75016 41.079V50.824C8.77045 49.9271 10.3544 48.3912 12.2659 46.0559L12.6492 45.5879L13.2035 45.8299C16.273 47.17 22.3344 49.1531 25.5962 49.1531C33.5949 49.1531 41.0105 45.1682 45.433 38.4936L46.7645 39.3758C42.0454 46.4981 34.1319 50.7503 25.5962 50.7503C22.2579 50.7503 16.5127 48.9406 13.1194 47.5299C9.77678 51.5248 7.49823 53.0885 7.39932 53.1553L6.15308 53.9994Z" fill="#012D4A"/>
<path d="M6.95202 27.1191H5.25708V28.7163H6.95202V27.1191Z" fill="#012D4A"/>
<path d="M6.95202 30.5088H5.25708V32.106H6.95202V30.5088Z" fill="#012D4A"/>
<path d="M45.9354 22.0339H44.2405V23.6311H45.9354V22.0339Z" fill="#012D4A"/>
<path d="M45.9354 18.6443H44.2405V20.2415H45.9354V18.6443Z" fill="#012D4A"/>
<path d="M28.9375 38.0385H22.2554V34.0222C22.1182 33.9682 21.9813 33.9106 21.8449 33.8495L19.0032 36.6912L14.2804 31.9686L17.1221 29.1269C17.061 28.9903 17.0034 28.8534 16.9494 28.7163H12.9331V22.0342H16.9494C17.0034 21.897 17.061 21.7601 17.1221 21.6236L14.2804 18.7819L19.0032 14.0592L21.8449 16.9009C21.9813 16.8398 22.1182 16.7822 22.2554 16.7282V12.7119H28.9375V16.7282C29.0746 16.7822 29.2115 16.8398 29.3479 16.9009L32.1896 14.0592L36.9124 18.7819L34.0707 21.6236C34.1318 21.7601 34.1894 21.897 34.2434 22.0342H38.2597V28.7163H34.2434C34.1894 28.8534 34.1318 28.9903 34.0707 29.1269L36.9124 31.9686L32.1896 36.6912L29.348 33.8495C29.2116 33.9106 29.0747 33.9682 28.9376 34.0222V38.0385H28.9375ZM23.8525 36.4413H27.3403V32.878L27.8945 32.6999C28.3102 32.5662 28.7306 32.3897 29.1437 32.1751L29.6628 31.9056L32.1896 34.4326L34.6537 31.9687L32.1268 29.4418L32.3963 28.9227C32.611 28.5092 32.7875 28.0888 32.9211 27.6734L33.0993 27.1192H36.6625V23.6315H33.0993L32.9211 23.0772C32.7875 22.6619 32.611 22.2415 32.3963 21.8279L32.1268 21.3088L34.6537 18.782L32.1896 16.318L29.6628 18.845L29.1437 18.5755C28.7305 18.361 28.3102 18.1844 27.8945 18.0508L27.3403 17.8726V14.3093H23.8525V17.8726L23.2983 18.0508C22.8826 18.1844 22.4622 18.361 22.0491 18.5755L21.53 18.845L19.0032 16.318L16.5391 18.782L19.0661 21.3089L18.7966 21.828C18.5818 22.2414 18.4053 22.6616 18.2718 23.0772L18.0935 23.6315H14.5303V27.1192H18.0935L18.2718 27.6734C18.4053 28.089 18.5818 28.5093 18.7966 28.9226L19.0661 29.4417L16.5391 31.9687L19.0032 34.4326L21.53 31.9056L22.0491 32.1751C22.4624 32.3897 22.8826 32.5662 23.2983 32.6999L23.8525 32.878V36.4413Z" fill="#012D4A"/>
<path d="M25.5961 30.411C22.8192 30.411 20.5601 28.1518 20.5601 25.375C20.5601 22.5983 22.8192 20.3391 25.5961 20.3391C28.3729 20.3391 30.632 22.5983 30.632 25.375C30.632 28.1518 28.3729 30.411 25.5961 30.411ZM25.5961 21.9363C23.6999 21.9363 22.1572 23.479 22.1572 25.375C22.1572 27.2711 23.6999 28.8138 25.5961 28.8138C27.4923 28.8138 29.0348 27.2711 29.0348 25.375C29.0348 23.479 27.4923 21.9363 25.5961 21.9363Z" fill="#012D4A"/>
<path d="M34.071 9.32153H32.376V10.9187H34.071V9.32153Z" fill="#012D4A"/>
<path d="M18.8159 39.8308H17.1208V41.428H18.8159V39.8308Z" fill="#012D4A"/>
<path d="M27.2906 5.93188H25.5957V7.52907H27.2906V5.93188Z" fill="#012D4A"/>
<path d="M25.5959 43.2212H23.9009V44.8184H25.5959V43.2212Z" fill="#012D4A"/>
</svg>
