<svg width="57" height="54" viewBox="0 0 57 54" fill="none" xmlns="http://www.w3.org/2000/svg">
<path d="M48.2163 46.3252H51.73V49.8389H48.2163V46.3252Z" fill="#DCE1E7"/>
<path d="M6.05225 46.3252H9.5659V49.8389H6.05225V46.3252Z" fill="#DCE1E7"/>
<path d="M37.6753 46.3252H41.1889V49.8389H37.6753V46.3252Z" fill="#DCE1E7"/>
<path d="M27.1343 46.3252H30.6479V49.8389H27.1343V46.3252Z" fill="#DCE1E7"/>
<path d="M16.5933 46.3252H20.1069V49.8389H16.5933V46.3252Z" fill="#DCE1E7"/>
<path d="M28.8911 12.0669H41.1889V22.6079H28.8911V12.0669Z" fill="#B9C2CF"/>
<path d="M39.4321 12.0669H41.189V22.6079H39.4321V12.0669Z" fill="#95A4B6"/>
<path d="M41.189 33.1489H53.4868V43.6899H41.189V33.1489Z" fill="#B9C2CF"/>
<path d="M51.7295 33.1489H53.4863V43.6899H51.7295V33.1489Z" fill="#95A4B6"/>
<path d="M28.8911 33.1489H41.1889V43.6899H28.8911V33.1489Z" fill="#B9C2CF"/>
<path d="M39.4321 33.1489H41.189V43.6899H39.4321V33.1489Z" fill="#95A4B6"/>
<path d="M35.04 22.6078H47.3378V33.1488H35.04V22.6078Z" fill="#B9C2CF"/>
<path d="M45.5811 22.6078H47.3379V33.1488H45.5811V22.6078Z" fill="#95A4B6"/>
<path d="M22.7422 22.6078H35.04V33.1488H22.7422V22.6078Z" fill="#B9C2CF"/>
<path d="M33.2832 22.6078H35.04V33.1488H33.2832V22.6078Z" fill="#95A4B6"/>
<path d="M10.4443 22.6078H22.7421V33.1488H10.4443V22.6078Z" fill="#B9C2CF"/>
<path d="M20.9854 22.6078H22.7422V33.1488H20.9854V22.6078Z" fill="#95A4B6"/>
<path d="M22.7422 1.526H35.04V12.067H22.7422V1.526Z" fill="#B9C2CF"/>
<path d="M33.2832 1.526H35.04V12.067H33.2832V1.526Z" fill="#95A4B6"/>
<path d="M30.6479 1.526V6.79648H27.1343V1.526" fill="white"/>
<path d="M16.5933 12.0669H28.8911V22.6079H16.5933V12.0669Z" fill="#B9C2CF"/>
<path d="M27.1343 12.0669H28.8911V22.6079H27.1343V12.0669Z" fill="#95A4B6"/>
<path d="M24.499 12.0669V17.3374H20.9854V12.0669" fill="white"/>
<path d="M36.7969 12.0669V17.3374H33.2832V12.0669" fill="white"/>
<path d="M18.3501 22.6078V27.8783H14.8364V22.6078" fill="white"/>
<path d="M30.6479 22.6078V27.8783H27.1343V22.6078" fill="white"/>
<path d="M42.9458 22.6078V27.8783H39.4321V22.6078" fill="white"/>
<path d="M4.29541 33.1489H16.5932V43.6899H4.29541V33.1489Z" fill="#B9C2CF"/>
<path d="M14.8364 33.1489H16.5933V43.6899H14.8364V33.1489Z" fill="#95A4B6"/>
<path d="M12.2012 33.1489V38.4194H8.6875V33.1489" fill="white"/>
<path d="M16.5933 33.1489H28.8911V43.6899H16.5933V33.1489Z" fill="#B9C2CF"/>
<path d="M27.1343 33.1489H28.8911V43.6899H27.1343V33.1489Z" fill="#95A4B6"/>
<path d="M24.499 33.1489V38.4194H20.9854V33.1489" fill="white"/>
<path d="M36.7969 33.1489V38.4194H33.2832V33.1489" fill="white"/>
<path d="M49.0947 33.1489V38.4194H45.5811V33.1489" fill="white"/>
<path d="M1.44043 43.6898H56.3413V46.3251H1.44043V43.6898Z" fill="white"/>
<path d="M54.5845 43.6898H56.3413V46.3251H54.5845V43.6898Z" fill="#DCE1E7"/>
<path d="M1.44043 49.8387H56.3413V52.474H1.44043V49.8387Z" fill="white"/>
<path d="M54.5845 49.8387H56.3413V52.474H54.5845V49.8387Z" fill="#DCE1E7"/>
<path d="M57.0002 46.9839V43.0311H54.1454V32.4901H47.9965V21.9491H41.8476V11.4082H35.6987V0.867188H22.0833V11.4082H15.9344V21.9491H9.78548V32.4901H3.63658V43.0311H0.781738V46.9839H5.39341V49.18H0.781738V53.1328H57.0002V49.18H52.3886V46.9839H57.0002ZM49.7533 33.8077H52.8278V43.0311H41.8476V33.8077H44.922V39.0782H49.7533V33.8077ZM48.4357 33.8077V37.7606H46.2397V33.8077H48.4357ZM43.6044 23.2667H46.6789V32.4901H35.6987V23.2667H38.7731V28.5372H43.6044V23.2667ZM25.1577 39.0782V33.8077H28.2322V43.0311H17.252V33.8077H20.3264V39.0782H25.1577ZM21.6441 37.7606V33.8077H23.8401V37.7606H21.6441ZM23.4009 32.4901V23.2667H26.4753V28.5372H31.3066V23.2667H34.3811V32.4901H23.4009ZM27.793 27.2196V23.2667H29.989V27.2196H27.793ZM36.1379 33.8077V37.7606H33.9419V33.8077H36.1379ZM29.5498 33.8077H32.6242V39.0782H37.4555V33.8077H40.53V43.0311H29.5498V33.8077ZM42.2868 23.2667V27.2196H40.0908V23.2667H42.2868ZM37.4555 12.7258H40.53V21.9491H29.5498V12.7258H32.6242V17.9963H37.4555V12.7258ZM36.1379 12.7258V16.6786H33.9419V12.7258H36.1379ZM27.793 2.18481H29.989V6.13767H27.793V2.18481ZM23.4009 2.18481H26.4753V7.45529H31.3066V2.18481H34.3811V11.4082H23.4009V2.18481ZM21.6441 12.7258H23.8401V16.6786H21.6441V12.7258ZM17.252 12.7258H20.3264V17.9963H25.1577V12.7258H28.2322V21.9491H17.252V12.7258ZM15.4952 23.2667H17.6912V27.2196H15.4952V23.2667ZM11.1031 23.2667H14.1775V28.5372H19.0088V23.2667H22.0833V32.4901H11.1031V23.2667ZM9.34627 33.8077H11.5423V37.7606H9.34627V33.8077ZM4.9542 33.8077H8.02865V39.0782H12.8599V33.8077H15.9344V43.0311H4.9542V33.8077ZM55.6826 50.4976V51.8152H2.09936V50.4976H55.6826ZM6.71103 49.18V46.9839H8.90707V49.18H6.71103ZM10.2247 49.18V46.9839H15.9344V49.18H10.2247ZM17.252 49.18V46.9839H19.448V49.18H17.252ZM20.7657 49.18V46.9839H26.4753V49.18H20.7657ZM27.793 49.18V46.9839H29.989V49.18H27.793ZM31.3066 49.18V46.9839H37.0163V49.18H31.3066ZM38.3339 49.18V46.9839H40.53V49.18H38.3339ZM41.8476 49.18V46.9839H47.5573V49.18H41.8476ZM48.8749 49.18V46.9839H51.0709V49.18H48.8749ZM2.09936 45.6663V44.3487H55.6826V45.6663H2.09936Z" fill="#012D4A"/>
</svg>
