<svg width="39" height="52" viewBox="0 0 39 52" fill="none" xmlns="http://www.w3.org/2000/svg">
<path d="M5.89038 0.609863H38.3904V46.1099H5.89038V0.609863Z" fill="#B9C2CF"/>
<path d="M5.89038 44.4849H38.3904V46.1099H5.89038V44.4849Z" fill="#95A4B6"/>
<path d="M33.1094 14.0159V51.3909H0.609375V5.89087H24.9844L33.1094 14.0159Z" fill="white"/>
<path d="M24.9844 14.0161H33.1094V15.6411H24.9844V14.0161Z" fill="#DCE1E7"/>
<path d="M0.609375 49.7659H33.1094V51.3909H0.609375V49.7659Z" fill="#DCE1E7"/>
<path d="M33.1094 14.0159H24.9844V5.89087" fill="#95A4B6"/>
<path d="M22.9524 22.1411V19.7036H25.3899V22.1411" fill="#B9C2CF"/>
<path d="M24.1711 22.1411V19.7036H25.3899V22.1411" fill="#95A4B6"/>
<path d="M21.7336 42.4536L24.1711 46.5161L26.6086 42.4536V22.1411H21.7336V42.4536Z" fill="#95A4B6"/>
<path d="M24.9839 25.3914H26.6089V42.4539H24.9839V25.3914Z" fill="#72869E"/>
<path d="M21.7336 22.1411H26.6086V25.3911H21.7336V22.1411Z" fill="white"/>
<path d="M24.9839 22.1411H26.6089V25.3911H24.9839V22.1411Z" fill="#DCE1E7"/>
<path d="M26.6086 42.4539L24.1711 46.5164L21.7336 42.4539H26.6086Z" fill="white"/>
<path d="M24.9834 42.4539L23.3584 45.1622L24.1709 46.5164L26.6084 42.4539H24.9834Z" fill="#DCE1E7"/>
<path d="M5.48438 20.5159H11.9844V27.0159H5.48438V20.5159Z" fill="#95A4B6"/>
<path d="M39 0.000244141H5.28125V5.28149H0V52.0002H33.7188V46.719H39V0.000244141ZM1.21875 50.7815V6.50024H24.375V14.6252H32.5V50.7815H1.21875ZM25.5938 7.362L31.6382 13.4065H25.5938V7.362ZM37.7812 45.5002H33.7188V13.7635L25.2368 5.28149H6.5V1.21899H37.7812V45.5002Z" fill="#012D4A"/>
<path d="M5.48438 11.7812H21.7344V13H5.48438V11.7812Z" fill="#012D4A"/>
<path d="M5.48438 15.0315H18.4844V16.2502H5.48438V15.0315Z" fill="#012D4A"/>
<path d="M14.4216 19.9065H19.7029V21.1252H14.4216V19.9065Z" fill="#012D4A"/>
<path d="M14.4216 23.1567H19.7029V24.3755H14.4216V23.1567Z" fill="#012D4A"/>
<path d="M5.48438 29.6565H19.7031V30.8752H5.48438V29.6565Z" fill="#012D4A"/>
<path d="M5.48438 36.1562H19.7031V37.375H5.48438V36.1562Z" fill="#012D4A"/>
<path d="M14.4216 26.4062H19.7029V27.625H14.4216V26.4062Z" fill="#012D4A"/>
<path d="M5.48438 39.4065H19.7031V40.6252H5.48438V39.4065Z" fill="#012D4A"/>
<path d="M5.48438 42.6567H16.8594V43.8755H5.48438V42.6567Z" fill="#012D4A"/>
<path d="M5.48438 32.9067H19.7031V34.1255H5.48438V32.9067Z" fill="#012D4A"/>
<path d="M27.2185 21.5312H25.9998V19.0938H22.3435V21.5312H21.1248V42.6219L24.1716 47.7L27.2185 42.6219V24.375H28.4373V31.8906H29.656V23.1562H27.2185V21.5312ZM23.5623 20.3125H24.781V21.5312H23.5623V20.3125ZM25.9998 22.75V24.7812H22.3435V22.75H25.9998ZM22.3435 41.8438V26H25.9998V41.8438H22.3435ZM22.8104 43.0625H25.5329L24.1716 45.3312L22.8104 43.0625Z" fill="#012D4A"/>
<path d="M12.5937 19.9065H4.875V27.6252H12.5937V19.9065ZM11.375 26.4065H6.09375V21.1252H11.375V26.4065Z" fill="#012D4A"/>
</svg>
