<svg width="51" height="39" viewBox="0 0 51 39" fill="none" xmlns="http://www.w3.org/2000/svg">
<path d="M14.9097 32.8876H11.6287C11.6287 32.4525 11.4559 32.0352 11.1483 31.7276C10.8406 31.4199 10.4234 31.2471 9.98829 31.2471C9.55321 31.2471 9.13595 31.4199 8.8283 31.7276C8.52066 32.0352 8.34782 32.4525 8.34782 32.8876H5.06689C5.06689 31.5823 5.5854 30.3306 6.50834 29.4076C7.43128 28.4847 8.68305 27.9662 9.98829 27.9662C11.2935 27.9662 12.5453 28.4847 13.4682 29.4076C14.3912 30.3306 14.9097 31.5823 14.9097 32.8876Z" fill="#57A4FF"/>
<path d="M46.0786 32.8876H42.7977C42.7977 32.4525 42.6249 32.0352 42.3172 31.7276C42.0096 31.4199 41.5923 31.2471 41.1572 31.2471C40.7222 31.2471 40.3049 31.4199 39.9972 31.7276C39.6896 32.0352 39.5168 32.4525 39.5168 32.8876H36.2358C36.2358 31.5823 36.7543 30.3306 37.6773 29.4076C38.6002 28.4847 39.852 27.9662 41.1572 27.9662C42.4625 27.9662 43.7142 28.4847 44.6372 29.4076C45.5601 30.3306 46.0786 31.5823 46.0786 32.8876Z" fill="#57A4FF"/>
<path d="M50.1798 19.7639H36.2358V10.7413H44.3797L50.1798 19.7639Z" fill="#57A4FF"/>
<path d="M47.7191 23.0448H50.1798V26.3257H47.7191C47.284 26.3257 46.8667 26.1529 46.5591 25.8452C46.2514 25.5376 46.0786 25.1203 46.0786 24.6853C46.0786 24.2502 46.2514 23.8329 46.5591 23.5253C46.8667 23.2176 47.284 23.0448 47.7191 23.0448Z" fill="#57A4FF"/>
<path d="M9.98829 27.9662C9.01493 27.9662 8.06343 28.2548 7.25411 28.7956C6.44479 29.3364 5.814 30.105 5.44152 31.0042C5.06903 31.9035 4.97157 32.893 5.16146 33.8477C5.35135 34.8024 5.82007 35.6793 6.50834 36.3675C7.19661 37.0558 8.07352 37.5245 9.02817 37.7144C9.98283 37.9043 10.9724 37.8068 11.8716 37.4344C12.7709 37.0619 13.5395 36.4311 14.0803 35.6218C14.621 34.8124 14.9097 33.8609 14.9097 32.8876C14.9097 31.5823 14.3912 30.3306 13.4682 29.4076C12.5453 28.4847 11.2935 27.9662 9.98829 27.9662ZM9.98829 34.528C9.66384 34.528 9.34667 34.4318 9.0769 34.2516C8.80712 34.0713 8.59686 33.8151 8.4727 33.5154C8.34853 33.2156 8.31605 32.8858 8.37935 32.5675C8.44264 32.2493 8.59888 31.957 8.82831 31.7276C9.05773 31.4982 9.35003 31.3419 9.66825 31.2786C9.98647 31.2153 10.3163 31.2478 10.6161 31.372C10.9158 31.4962 11.172 31.7064 11.3523 31.9762C11.5325 32.246 11.6288 32.5631 11.6288 32.8876C11.6288 33.3227 11.4559 33.7399 11.1483 34.0476C10.8406 34.3552 10.4234 34.528 9.98829 34.528Z" fill="#95A4B6"/>
<path d="M41.1572 27.9662C40.1839 27.9662 39.2324 28.2548 38.4231 28.7956C37.6137 29.3364 36.9829 30.105 36.6105 31.0042C36.238 31.9035 36.1405 32.893 36.3304 33.8477C36.5203 34.8024 36.989 35.6793 37.6773 36.3675C38.3656 37.0558 39.2425 37.5245 40.1971 37.7144C41.1518 37.9043 42.1413 37.8068 43.0406 37.4344C43.9398 37.0619 44.7085 36.4311 45.2492 35.6218C45.79 34.8124 46.0786 33.8609 46.0786 32.8876C46.0786 31.5823 45.5601 30.3306 44.6372 29.4076C43.7142 28.4847 42.4625 27.9662 41.1572 27.9662ZM41.1572 34.528C40.8328 34.528 40.5156 34.4318 40.2458 34.2516C39.9761 34.0713 39.7658 33.8151 39.6416 33.5154C39.5175 33.2156 39.485 32.8858 39.5483 32.5675C39.6116 32.2493 39.7678 31.957 39.9973 31.7276C40.2267 31.4982 40.519 31.3419 40.8372 31.2786C41.1554 31.2153 41.4853 31.2478 41.785 31.372C42.0848 31.4962 42.341 31.7064 42.5212 31.9762C42.7015 32.246 42.7977 32.5631 42.7977 32.8876C42.7977 33.3227 42.6249 33.7399 42.3172 34.0476C42.0096 34.3552 41.5923 34.528 41.1572 34.528Z" fill="#95A4B6"/>
<path d="M32.1346 2.94902V23.0447H0.96582V2.94902C0.96574 2.67971 1.01872 2.41302 1.12175 2.1642C1.22477 1.91537 1.37581 1.68929 1.56624 1.49886C1.75667 1.30843 1.98276 1.15739 2.23158 1.05436C2.48041 0.951342 2.74709 0.898357 3.0164 0.898438H30.0841C30.3534 0.898357 30.62 0.951342 30.8689 1.05436C31.1177 1.15739 31.3438 1.30843 31.5342 1.49886C31.7246 1.68929 31.8757 1.91537 31.9787 2.1642C32.0817 2.41302 32.1347 2.67971 32.1346 2.94902Z" fill="#95A4B6"/>
<path d="M50.1798 19.7639H36.2358V10.7413H44.3797L50.1798 19.7639Z" fill="#DCE1E7"/>
<path d="M50.1798 23.0448V26.3257H47.7191C47.284 26.3257 46.8667 26.1529 46.5591 25.8452C46.2514 25.5376 46.0786 25.1203 46.0786 24.6853C46.0786 24.2502 46.2514 23.8329 46.5591 23.5253C46.8667 23.2176 47.284 23.0448 47.7191 23.0448H50.1798Z" fill="#95A4B6"/>
<path d="M9.98804 30.4268C9.50136 30.4268 9.02561 30.5711 8.62095 30.8415C8.21629 31.1118 7.9009 31.4962 7.71465 31.9458C7.52841 32.3954 7.47968 32.8902 7.57463 33.3675C7.66957 33.8448 7.90393 34.2833 8.24807 34.6274C8.5922 34.9716 9.03065 35.2059 9.50798 35.3009C9.98531 35.3958 10.4801 35.3471 10.9297 35.1608C11.3793 34.9746 11.7636 34.6592 12.034 34.2545C12.3044 33.8499 12.4487 33.3741 12.4487 32.8875C12.448 32.2351 12.1885 31.6096 11.7272 31.1483C11.2659 30.687 10.6404 30.4275 9.98804 30.4268ZM9.98804 33.7077C9.82581 33.7077 9.66723 33.6596 9.53234 33.5695C9.39746 33.4793 9.29233 33.3512 9.23025 33.2013C9.16816 33.0515 9.15192 32.8865 9.18357 32.7274C9.21522 32.5683 9.29334 32.4222 9.40805 32.3075C9.52276 32.1927 9.66891 32.1146 9.82802 32.083C9.98713 32.0513 10.1521 32.0676 10.3019 32.1297C10.4518 32.1917 10.5799 32.2969 10.67 32.4318C10.7602 32.5666 10.8083 32.7252 10.8083 32.8875C10.808 33.1049 10.7215 33.3134 10.5678 33.4672C10.414 33.6209 10.2055 33.7074 9.98804 33.7077Z" fill="#012D4A"/>
<path d="M41.157 30.4268C40.6703 30.4268 40.1946 30.5711 39.7899 30.8415C39.3852 31.1118 39.0698 31.4962 38.8836 31.9458C38.6974 32.3954 38.6486 32.8902 38.7436 33.3675C38.8385 33.8448 39.0729 34.2833 39.417 34.6274C39.7611 34.9716 40.1996 35.2059 40.6769 35.3009C41.1543 35.3958 41.649 35.3471 42.0987 35.1608C42.5483 34.9746 42.9326 34.6592 43.203 34.2545C43.4734 33.8499 43.6177 33.3741 43.6177 32.8875C43.6169 32.2351 43.3575 31.6096 42.8962 31.1483C42.4348 30.687 41.8094 30.4275 41.157 30.4268ZM41.157 33.7077C40.9948 33.7077 40.8362 33.6596 40.7013 33.5695C40.5664 33.4793 40.4613 33.3512 40.3992 33.2013C40.3371 33.0515 40.3209 32.8865 40.3525 32.7274C40.3842 32.5683 40.4623 32.4222 40.577 32.3075C40.6917 32.1927 40.8379 32.1146 40.997 32.083C41.1561 32.0513 41.321 32.0676 41.4709 32.1297C41.6208 32.1917 41.7489 32.2969 41.839 32.4318C41.9291 32.5666 41.9772 32.7252 41.9772 32.8875C41.977 33.1049 41.8905 33.3134 41.7367 33.4672C41.5829 33.6209 41.3744 33.7074 41.157 33.7077Z" fill="#012D4A"/>
<path d="M50.8697 19.3197L43.4876 7.83649C43.4133 7.72103 43.3111 7.62607 43.1906 7.56033C43.07 7.49458 42.9349 7.46016 42.7976 7.46021H32.9548V2.94894C32.9539 2.18781 32.6512 1.4581 32.113 0.919896C31.5748 0.381696 30.8451 0.0789663 30.084 0.078125H3.01632C2.25519 0.0789663 1.52548 0.381696 0.987278 0.919896C0.449079 1.4581 0.146349 2.18781 0.145508 2.94894V32.8874C0.145508 33.1049 0.231925 33.3136 0.385748 33.4674C0.539571 33.6212 0.748201 33.7076 0.96574 33.7076H4.30613C4.5033 35.074 5.18625 36.3236 6.22983 37.2274C7.27342 38.1312 8.60774 38.6287 9.98829 38.6287C11.3688 38.6287 12.7032 38.1312 13.7467 37.2274C14.7903 36.3236 15.4733 35.074 15.6704 33.7076H35.4749C35.6721 35.074 36.3551 36.3236 37.3986 37.2274C38.4422 38.1312 39.7766 38.6287 41.1571 38.6287C42.5377 38.6287 43.872 38.1312 44.9156 37.2274C45.9591 36.3236 46.6421 35.074 46.8393 33.7076H50.1797C50.3972 33.7076 50.6058 33.6212 50.7596 33.4674C50.9135 33.3136 50.9999 33.1049 50.9999 32.8874V19.7637C50.9999 19.6063 50.9547 19.4522 50.8697 19.3197ZM9.98829 36.9886C9.17716 36.9886 8.38424 36.748 7.70981 36.2974C7.03538 35.8468 6.50972 35.2062 6.19931 34.4568C5.88891 33.7075 5.80769 32.8829 5.96593 32.0873C6.12418 31.2918 6.51478 30.561 7.08833 29.9874C7.66189 29.4139 8.39265 29.0233 9.18819 28.865C9.98374 28.7068 10.8083 28.788 11.5577 29.0984C12.3071 29.4088 12.9476 29.9345 13.3983 30.6089C13.8489 31.2834 14.0894 32.0763 14.0894 32.8874C14.0884 33.9748 13.6559 35.0173 12.887 35.7862C12.1182 36.555 11.0757 36.9875 9.98829 36.9886ZM31.3143 32.0672H15.6704C15.4733 30.7008 14.7903 29.4512 13.7467 28.5474C12.7032 27.6436 11.3688 27.1461 9.98829 27.1461C8.60774 27.1461 7.27342 27.6436 6.22983 28.5474C5.18625 29.4512 4.5033 30.7008 4.30613 32.0672H1.78597V23.8649H31.3143V32.0672ZM31.3143 22.2244H1.78597V2.94894C1.78624 2.62271 1.91596 2.30993 2.14663 2.07925C2.37731 1.84857 2.69009 1.71886 3.01632 1.71859H30.084C30.4102 1.71886 30.723 1.84857 30.9537 2.07925C31.1843 2.30993 31.314 2.62271 31.3143 2.94894V22.2244ZM43.9315 11.5614L48.6776 18.9435H37.0559V11.5614H43.9315ZM41.1571 36.9886C40.346 36.9886 39.5531 36.748 38.8786 36.2974C38.2042 35.8468 37.6785 35.2062 37.3681 34.4568C37.0577 33.7075 36.9765 32.8829 37.1347 32.0873C37.293 31.2918 37.6836 30.561 38.2571 29.9874C38.8307 29.4139 39.5615 29.0233 40.357 28.865C41.1526 28.7068 41.9772 28.788 42.7266 29.0984C43.4759 29.4088 44.1165 29.9345 44.5671 30.6089C45.0177 31.2834 45.2583 32.0763 45.2583 32.8874C45.2572 33.9748 44.8247 35.0173 44.0559 35.7862C43.287 36.555 42.2445 36.9875 41.1571 36.9886ZM49.3594 25.5053H47.719C47.5014 25.5053 47.2928 25.4189 47.139 25.2651C46.9851 25.1113 46.8987 24.9026 46.8987 24.6851C46.8987 24.4675 46.9851 24.2589 47.139 24.1051C47.2928 23.9513 47.5014 23.8649 47.719 23.8649H49.3594V25.5053ZM49.3594 22.2244H47.719C47.0663 22.2244 46.4405 22.4836 45.979 22.9451C45.5175 23.4066 45.2583 24.0325 45.2583 24.6851C45.2583 25.3377 45.5175 25.9636 45.979 26.4251C46.4405 26.8865 47.0663 27.1458 47.719 27.1458H49.3594V32.0672H46.8393C46.6421 30.7008 45.9591 29.4512 44.9156 28.5474C43.872 27.6436 42.5377 27.1461 41.1571 27.1461C39.7766 27.1461 38.4422 27.6436 37.3986 28.5474C36.3551 29.4512 35.6721 30.7008 35.4749 32.0672H32.9548V9.10068H42.3495L42.8775 9.92091H36.2357C36.0182 9.92091 35.8095 10.0073 35.6557 10.1611C35.5019 10.315 35.4155 10.5236 35.4155 10.7411V19.7637C35.4155 19.9812 35.5019 20.1899 35.6557 20.3437C35.8095 20.4975 36.0182 20.5839 36.2357 20.5839H49.3594V22.2244Z" fill="#012D4A"/>
<path d="M38.6965 22.2244H36.2358C36.0182 22.2244 35.8096 22.3108 35.6558 22.4646C35.5019 22.6184 35.4155 22.8271 35.4155 23.0446C35.4155 23.2621 35.5019 23.4708 35.6558 23.6246C35.8096 23.7784 36.0182 23.8648 36.2358 23.8648H38.6965C38.914 23.8648 39.1226 23.7784 39.2764 23.6246C39.4303 23.4708 39.5167 23.2621 39.5167 23.0446C39.5167 22.8271 39.4303 22.6184 39.2764 22.4646C39.1226 22.3108 38.914 22.2244 38.6965 22.2244Z" fill="#012D4A"/>
<path d="M21.4716 27.1457H28.0335C28.251 27.1457 28.4596 27.0593 28.6134 26.9055C28.7673 26.7516 28.8537 26.543 28.8537 26.3255C28.8537 26.1079 28.7673 25.8993 28.6134 25.7455C28.4596 25.5917 28.251 25.5052 28.0335 25.5052H21.4716C21.2541 25.5052 21.0454 25.5917 20.8916 25.7455C20.7378 25.8993 20.6514 26.1079 20.6514 26.3255C20.6514 26.543 20.7378 26.7516 20.8916 26.9055C21.0454 27.0593 21.2541 27.1457 21.4716 27.1457Z" fill="#012D4A"/>
<path d="M28.0334 27.9661H25.5727C25.3551 27.9661 25.1465 28.0525 24.9927 28.2063C24.8389 28.3601 24.7524 28.5688 24.7524 28.7863C24.7524 29.0038 24.8389 29.2125 24.9927 29.3663C25.1465 29.5201 25.3551 29.6065 25.5727 29.6065H28.0334C28.2509 29.6065 28.4595 29.5201 28.6134 29.3663C28.7672 29.2125 28.8536 29.0038 28.8536 28.7863C28.8536 28.5688 28.7672 28.3601 28.6134 28.2063C28.4595 28.0525 28.2509 27.9661 28.0334 27.9661Z" fill="#012D4A"/>
</svg>
