<svg width="42" height="54" viewBox="0 0 42 54" fill="none" xmlns="http://www.w3.org/2000/svg">
<path d="M41.374 9.25817V47.6641H7.97754V0.909058H33.0249L41.374 9.25817Z" fill="white"/>
<path d="M33.0249 9.25818H41.374V10.928H33.0249V9.25818Z" fill="#DCE1E7"/>
<path d="M7.97754 45.9943H41.374V47.6641H7.97754V45.9943Z" fill="#DCE1E7"/>
<path d="M41.374 9.25817H33.0249V0.909058" fill="#95A4B6"/>
<path d="M12.1519 40.9847V53.091H11.3169L7.97729 49.7513L4.63765 53.091H3.80273V40.9847" fill="#95A4B6"/>
<path d="M3.80273 43.2047C5.0311 43.9155 6.45598 44.3244 7.97729 44.3244C9.49861 44.3244 10.9235 43.9155 12.1519 43.2047V40.9847H3.80273V43.2047Z" fill="#72869E"/>
<path d="M7.97714 42.6546C11.666 42.6546 14.6564 39.6642 14.6564 35.9753C14.6564 32.2864 11.666 29.296 7.97714 29.296C4.28827 29.296 1.29785 32.2864 1.29785 35.9753C1.29785 39.6642 4.28827 42.6546 7.97714 42.6546Z" fill="#DCE1E7"/>
<path d="M7.97714 40.9848C4.57123 40.9848 1.76279 38.4348 1.3517 35.1404C1.31758 35.4141 1.29785 35.6924 1.29785 35.9753C1.29785 39.6641 4.2883 42.6546 7.97714 42.6546C11.666 42.6546 14.6564 39.6641 14.6564 35.9753C14.6564 35.6924 14.6368 35.4141 14.6026 35.1404C14.1915 38.4348 11.3831 40.9848 7.97714 40.9848Z" fill="#B9C2CF"/>
<path d="M7.97734 39.3149C9.82178 39.3149 11.317 37.8197 11.317 35.9753C11.317 34.1308 9.82178 32.6356 7.97734 32.6356C6.13291 32.6356 4.6377 34.1308 4.6377 35.9753C4.6377 37.8197 6.13291 39.3149 7.97734 39.3149Z" fill="#B9C2CF"/>
<path d="M33.284 0.282837H7.35117V28.6984C3.61525 29.0174 0.671875 32.1581 0.671875 35.9753C0.671875 38.167 1.64329 40.1346 3.17661 41.4749V53.7172H4.89705L7.97735 50.6369L11.0577 53.7172H12.7781V48.2903H42V8.99879L33.284 0.282837ZM33.6509 2.42073L39.8621 8.63195H33.6509V2.42073ZM11.5257 52.4142L7.97735 48.8658L4.42898 52.4142V42.3581C5.48044 42.9449 6.69013 43.2809 7.97735 43.2809C9.26458 43.2809 10.4743 42.9449 11.5257 42.3581V52.4142ZM7.97735 42.0284C4.63969 42.0284 1.92424 39.313 1.92424 35.9753C1.92424 32.6376 4.63969 29.9222 7.97735 29.9222C11.315 29.9222 14.0305 32.6376 14.0305 35.9753C14.0305 39.313 11.315 42.0284 7.97735 42.0284ZM40.7476 47.0379H12.7781V41.4749C14.3114 40.1346 15.2828 38.167 15.2828 35.9753C15.2828 32.1582 12.3395 29.0175 8.60354 28.6984V1.5352H32.3985V9.88432H40.7476V47.0379Z" fill="#012D4A"/>
<path d="M12.9868 6.96216H23.0058V8.21453H12.9868V6.96216Z" fill="#012D4A"/>
<path d="M12.9868 10.3018H19.6661V11.5541H12.9868V10.3018Z" fill="#012D4A"/>
<path d="M12.9868 15.3113H36.3643V16.5636H12.9868V15.3113Z" fill="#012D4A"/>
<path d="M12.9868 18.6509H36.3643V19.9032H12.9868V18.6509Z" fill="#012D4A"/>
<path d="M12.9868 25.3302H36.3643V26.5826H12.9868V25.3302Z" fill="#012D4A"/>
<path d="M16.3267 28.6698H33.0249V29.9222H16.3267V28.6698Z" fill="#012D4A"/>
<path d="M12.9868 21.9905H36.3643V23.2428H12.9868V21.9905Z" fill="#012D4A"/>
<path d="M26.3452 33.6793H36.3642V34.9317H26.3452V33.6793Z" fill="#012D4A"/>
<path d="M29.6851 37.0189H36.3644V38.2713H29.6851V37.0189Z" fill="#012D4A"/>
<path d="M7.97755 32.0095C5.79081 32.0095 4.01172 33.7886 4.01172 35.9754C4.01172 38.1621 5.79081 39.9412 7.97755 39.9412C10.1643 39.9412 11.9434 38.1621 11.9434 35.9754C11.9434 33.7886 10.1643 32.0095 7.97755 32.0095ZM7.97755 38.6888C6.48128 38.6888 5.26409 37.4716 5.26409 35.9754C5.26409 34.4791 6.48128 33.2619 7.97755 33.2619C9.47381 33.2619 10.691 34.4791 10.691 35.9754C10.691 37.4716 9.47381 38.6888 7.97755 38.6888Z" fill="#012D4A"/>
</svg>
