<svg width="36" height="44" viewBox="0 0 36 44" fill="none" xmlns="http://www.w3.org/2000/svg">
<path d="M17.5998 19.7999C19.4223 19.7999 20.8998 18.3225 20.8998 16.4999C20.8998 14.6774 19.4223 13.2 17.5998 13.2C15.7773 13.2 14.2998 14.6774 14.2998 16.4999C14.2998 18.3225 15.7773 19.7999 17.5998 19.7999Z" fill="url(#paint0_linear)"/>
<path d="M17.6 2.20322e-08C12.9625 -0.000231857 8.51235 1.82987 5.21672 5.09253C1.9211 8.3552 0.0463747 12.7867 0 17.424C0 29.4799 15.51 42.8999 16.17 43.4719C16.5685 43.8128 17.0756 44.0001 17.6 44.0001C18.1243 44.0001 18.6315 43.8128 19.03 43.4719C19.8 42.8999 35.1999 29.4799 35.1999 17.424C35.1536 12.7867 33.2788 8.3552 29.9832 5.09253C26.6876 1.82987 22.2374 -0.000231857 17.6 2.20322e-08ZM17.6 24.2C16.0771 24.2 14.5883 23.7484 13.3221 22.9023C12.0558 22.0562 11.0689 20.8536 10.4861 19.4466C9.90331 18.0396 9.75083 16.4914 10.0479 14.9978C10.345 13.5041 11.0784 12.1321 12.1553 11.0553C13.2321 9.9784 14.6041 9.24504 16.0978 8.94794C17.5914 8.65083 19.1396 8.80332 20.5466 9.38611C21.9536 9.9689 23.1562 10.9558 24.0023 12.2221C24.8484 13.4883 25.3 14.9771 25.3 16.5C25.3 18.5421 24.4887 20.5007 23.0447 21.9447C21.6007 23.3887 19.6421 24.2 17.6 24.2Z" fill="url(#paint1_linear)"/>
<defs>
<linearGradient id="paint0_linear" x1="17.5998" y1="13.2" x2="17.5998" y2="19.7999" gradientUnits="userSpaceOnUse">
<stop stop-color="#00AFC3"/>
<stop offset="1" stop-color="#0092AC"/>
</linearGradient>
<linearGradient id="paint1_linear" x1="17.6" y1="0" x2="17.6" y2="44.0001" gradientUnits="userSpaceOnUse">
<stop stop-color="#00AFC3"/>
<stop offset="1" stop-color="#0092AC"/>
</linearGradient>
</defs>
</svg>
