<svg width="65" height="40" viewBox="0 0 65 40" fill="none" xmlns="http://www.w3.org/2000/svg">
<path d="M4.01904 0.75354H60.2849V28.8865H4.01904V0.75354Z" fill="#DCE1E7"/>
<path d="M58.2754 0.75354H60.2849V28.8865H58.2754V0.75354Z" fill="#B9C2CF"/>
<path d="M10.0476 4.77258H14.0666V20.8485H10.0476V4.77258Z" fill="white"/>
<path d="M30.1426 4.77258H34.1616V20.8485H30.1426V4.77258Z" fill="white"/>
<path d="M50.2373 4.77258H54.2563V20.8485H50.2373V4.77258Z" fill="white"/>
<path d="M40.1899 4.77258H44.2089V20.8485H40.1899V4.77258Z" fill="white"/>
<path d="M20.095 4.77258H24.114V20.8485H20.095V4.77258Z" fill="white"/>
<path d="M4.01904 24.8676H60.2849V28.8865H4.01904V24.8676Z" fill="white"/>
<path d="M58.2754 24.8676H60.2849V28.8865H58.2754V24.8676Z" fill="#DCE1E7"/>
<path d="M0.753662 28.8865H63.5504V32.9055H0.753662V28.8865Z" fill="#B9C2CF"/>
<path d="M61.5408 28.8865H63.5503V32.9055H61.5408V28.8865Z" fill="#95A4B6"/>
<path d="M10.0476 38.934C12.2672 38.934 14.0665 37.1346 14.0665 34.915C14.0665 32.6954 12.2672 30.896 10.0476 30.896C7.82793 30.896 6.02856 32.6954 6.02856 34.915C6.02856 37.1346 7.82793 38.934 10.0476 38.934Z" fill="#95A4B6"/>
<path d="M10.0474 36.4221C10.8798 36.4221 11.5545 35.7473 11.5545 34.915C11.5545 34.0826 10.8798 33.4078 10.0474 33.4078C9.21504 33.4078 8.54028 34.0826 8.54028 34.915C8.54028 35.7473 9.21504 36.4221 10.0474 36.4221Z" fill="white"/>
<path d="M22.1044 38.934C24.3241 38.934 26.1234 37.1346 26.1234 34.915C26.1234 32.6954 24.3241 30.896 22.1044 30.896C19.8848 30.896 18.0854 32.6954 18.0854 34.915C18.0854 37.1346 19.8848 38.934 22.1044 38.934Z" fill="#95A4B6"/>
<path d="M22.1045 36.4221C22.9369 36.4221 23.6117 35.7473 23.6117 34.915C23.6117 34.0826 22.9369 33.4078 22.1045 33.4078C21.2722 33.4078 20.5974 34.0826 20.5974 34.915C20.5974 35.7473 21.2722 36.4221 22.1045 36.4221Z" fill="white"/>
<path d="M42.1994 38.934C44.419 38.934 46.2184 37.1346 46.2184 34.915C46.2184 32.6954 44.419 30.896 42.1994 30.896C39.9798 30.896 38.1804 32.6954 38.1804 34.915C38.1804 37.1346 39.9798 38.934 42.1994 38.934Z" fill="#95A4B6"/>
<path d="M42.1993 36.4221C43.0316 36.4221 43.7064 35.7473 43.7064 34.915C43.7064 34.0826 43.0316 33.4078 42.1993 33.4078C41.3669 33.4078 40.6921 34.0826 40.6921 34.915C40.6921 35.7473 41.3669 36.4221 42.1993 36.4221Z" fill="white"/>
<path d="M54.2563 38.934C56.4759 38.934 58.2753 37.1346 58.2753 34.915C58.2753 32.6954 56.4759 30.896 54.2563 30.896C52.0367 30.896 50.2373 32.6954 50.2373 34.915C50.2373 37.1346 52.0367 38.934 54.2563 38.934Z" fill="#95A4B6"/>
<path d="M54.2564 36.4221C55.0887 36.4221 55.7635 35.7473 55.7635 34.915C55.7635 34.0826 55.0887 33.4078 54.2564 33.4078C53.424 33.4078 52.7493 34.0826 52.7493 34.915C52.7493 35.7473 53.424 36.4221 54.2564 36.4221Z" fill="white"/>
<path d="M9.29395 21.602H14.8201V4.01892H9.29395V21.602ZM10.8011 5.52604H13.3129V20.0949H10.8011V5.52604Z" fill="#012D4A"/>
<path d="M29.3889 21.602H34.915V4.01892H29.3889V21.602ZM30.896 5.52604H33.4079V20.0949H30.896V5.52604Z" fill="#012D4A"/>
<path d="M49.4839 21.602H55.01V4.01892H49.4839V21.602ZM50.991 5.52604H53.5029V20.0949H50.991V5.52604Z" fill="#012D4A"/>
<path d="M39.4363 21.602H44.9624V4.01892H39.4363V21.602ZM40.9434 5.52604H43.4553V20.0949H40.9434V5.52604Z" fill="#012D4A"/>
<path d="M19.3413 21.602H24.8674V4.01892H19.3413V21.602ZM20.8484 5.52604H23.3603V20.0949H20.8484V5.52604Z" fill="#012D4A"/>
<path d="M64.3038 28.1329H61.0384V0H3.26543V28.1329H0V33.659H5.44385C5.33445 34.0595 5.27492 34.4803 5.27492 34.915C5.27492 37.5465 7.41591 39.6875 10.0475 39.6875C12.679 39.6875 14.82 37.5465 14.82 34.915C14.82 34.4803 14.7605 34.0595 14.6511 33.659H17.5008C17.3914 34.0595 17.3319 34.4803 17.3319 34.915C17.3319 37.5465 19.4729 39.6875 22.1044 39.6875C24.736 39.6875 26.877 37.5465 26.877 34.915C26.877 34.4803 26.8175 34.0595 26.7081 33.659H37.5957C37.4864 34.0595 37.4268 34.4803 37.4268 34.915C37.4268 37.5465 39.5678 39.6875 42.1994 39.6875C44.8309 39.6875 46.9719 37.5465 46.9719 34.915C46.9719 34.4803 46.9124 34.0595 46.803 33.659H49.6527C49.5433 34.0595 49.4838 34.4803 49.4838 34.915C49.4838 37.5465 51.6248 39.6875 54.2563 39.6875C56.8879 39.6875 59.0289 37.5465 59.0289 34.915C59.0289 34.4803 58.9694 34.0595 58.86 33.659H64.3038V28.1329ZM4.77255 1.50712H59.5313V24.1139H4.77255V1.50712ZM4.77255 25.621H59.5313V28.1329H4.77255V25.621ZM10.0475 38.1804C8.24696 38.1804 6.78204 36.7155 6.78204 34.915C6.78204 33.1145 8.24696 31.6495 10.0475 31.6495C11.848 31.6495 13.3129 33.1145 13.3129 34.915C13.3129 36.7155 11.848 38.1804 10.0475 38.1804ZM22.1044 38.1804C20.3039 38.1804 18.839 36.7155 18.839 34.915C18.839 33.1145 20.3039 31.6495 22.1044 31.6495C23.9049 31.6495 25.3699 33.1145 25.3699 34.915C25.3699 36.7155 23.9049 38.1804 22.1044 38.1804ZM42.1994 38.1804C40.3987 38.1804 38.9339 36.7155 38.9339 34.915C38.9339 33.1145 40.3987 31.6495 42.1994 31.6495C44 31.6495 45.4648 33.1145 45.4648 34.915C45.4648 36.7155 44 38.1804 42.1994 38.1804ZM54.2563 38.1804C52.4557 38.1804 50.9909 36.7155 50.9909 34.915C50.9909 33.1145 52.4557 31.6495 54.2563 31.6495C56.057 31.6495 57.5218 33.1145 57.5218 34.915C57.5218 36.7155 56.057 38.1804 54.2563 38.1804ZM62.7967 32.1519H58.144C57.278 30.9369 55.8587 30.1424 54.2563 30.1424C52.654 30.1424 51.2347 30.9369 50.3687 32.1519H46.0871C45.2211 30.9369 43.8018 30.1424 42.1995 30.1424C40.5972 30.1424 39.1778 30.9369 38.3119 32.1519H25.9923C25.1263 30.9369 23.707 30.1424 22.1047 30.1424C20.5024 30.1424 19.083 30.9369 18.2171 32.1519H13.9355C13.0695 30.9369 11.6502 30.1424 10.0478 30.1424C8.44553 30.1424 7.0262 30.9369 6.16023 32.1519H1.50712V29.64H62.7967V32.1519Z" fill="#012D4A"/>
<path d="M10.0475 32.6543C8.80103 32.6543 7.78687 33.6685 7.78687 34.915C7.78687 36.1615 8.80103 37.1757 10.0475 37.1757C11.2941 37.1757 12.3082 36.1615 12.3082 34.915C12.3082 33.6685 11.2941 32.6543 10.0475 32.6543ZM10.0475 35.6685C9.63196 35.6685 9.29399 35.3306 9.29399 34.915C9.29399 34.4994 9.63196 34.1614 10.0475 34.1614C10.4631 34.1614 10.8011 34.4994 10.8011 34.915C10.8011 35.3306 10.4631 35.6685 10.0475 35.6685Z" fill="#012D4A"/>
<path d="M22.1044 32.6543C20.8579 32.6543 19.8438 33.6685 19.8438 34.915C19.8438 36.1615 20.8579 37.1757 22.1044 37.1757C23.3509 37.1757 24.3651 36.1615 24.3651 34.915C24.3651 33.6685 23.3509 32.6543 22.1044 32.6543ZM22.1044 35.6685C21.6888 35.6685 21.3509 35.3306 21.3509 34.915C21.3509 34.4994 21.6888 34.1614 22.1044 34.1614C22.52 34.1614 22.858 34.4994 22.858 34.915C22.858 35.3306 22.52 35.6685 22.1044 35.6685Z" fill="#012D4A"/>
<path d="M42.1994 32.6543C40.9529 32.6543 39.9387 33.6685 39.9387 34.915C39.9387 36.1615 40.9529 37.1757 42.1994 37.1757C43.4459 37.1757 44.4601 36.1615 44.4601 34.915C44.4601 33.6685 43.4459 32.6543 42.1994 32.6543ZM42.1994 35.6685C41.7838 35.6685 41.4458 35.3306 41.4458 34.915C41.4458 34.4994 41.7838 34.1614 42.1994 34.1614C42.615 34.1614 42.953 34.4994 42.953 34.915C42.953 35.3306 42.615 35.6685 42.1994 35.6685Z" fill="#012D4A"/>
<path d="M54.2563 32.6543C53.0098 32.6543 51.9956 33.6685 51.9956 34.915C51.9956 36.1615 53.0098 37.1757 54.2563 37.1757C55.5028 37.1757 56.517 36.1615 56.517 34.915C56.517 33.6685 55.5028 32.6543 54.2563 32.6543ZM54.2563 35.6685C53.8407 35.6685 53.5027 35.3306 53.5027 34.915C53.5027 34.4994 53.8407 34.1614 54.2563 34.1614C54.6719 34.1614 55.0098 34.4994 55.0098 34.915C55.0098 35.3306 54.6719 35.6685 54.2563 35.6685Z" fill="#012D4A"/>
</svg>
