<svg width="52" height="39" viewBox="0 0 52 39" fill="none" xmlns="http://www.w3.org/2000/svg">
<path d="M45.0468 0.906982L50.4882 38.093H39.6045V9.04036L45.0468 0.906982Z" fill="#95A4B6"/>
<path d="M43.2324 12.1614L39.0875 38.093H1.51147L5.65634 12.1614L24.4444 9.97675L43.2324 12.1614Z" fill="white"/>
<path d="M45.0464 0.906982L43.1917 12.6977H5.1394L6.99294 0.906982H45.0464Z" fill="#DCE1E7"/>
<path d="M51.385 38.0528L45.4548 0.690524C45.4546 0.689136 45.4541 0.687947 45.4539 0.686459C45.4521 0.675058 45.4493 0.664153 45.4468 0.65295C45.4433 0.635798 45.44 0.618647 45.4353 0.601892C45.4327 0.592374 45.4292 0.583153 45.4264 0.573735C45.4207 0.555493 45.4149 0.53735 45.408 0.519802C45.4047 0.511771 45.4011 0.50374 45.3975 0.495611C45.3897 0.477269 45.3814 0.459027 45.3723 0.441578C45.3683 0.434044 45.364 0.426608 45.3598 0.419173C45.35 0.401624 45.3397 0.384374 45.3285 0.36752C45.3239 0.360282 45.3188 0.353243 45.3138 0.346204C45.3021 0.329746 45.2899 0.313685 45.2771 0.298318C45.2741 0.294749 45.2716 0.290784 45.2685 0.287115C45.266 0.284042 45.2629 0.281464 45.2602 0.278391C45.2465 0.262925 45.2322 0.248153 45.2176 0.233777C45.212 0.228225 45.2065 0.222673 45.2007 0.217419C45.1841 0.202052 45.1668 0.187775 45.149 0.173895C45.1446 0.170524 45.1405 0.166955 45.1361 0.163485C45.0444 0.09478 44.9387 0.0457044 44.825 0.0201257C44.8214 0.0193326 44.8177 0.0187378 44.8141 0.0179447C44.7902 0.0128884 44.7662 0.00892286 44.7417 0.00604775C44.7352 0.00525461 44.7287 0.00485794 44.7221 0.00416395C44.7008 0.00218111 44.6796 0.000991417 44.658 0.000693991C44.6538 0.000693991 44.6496 0 44.6455 0H7.35404C6.95118 0 6.60815 0.292766 6.54495 0.690425L0.61464 38.0528C0.577042 38.2893 0.644995 38.5305 0.800641 38.7127C0.956386 38.8949 1.18405 38.9998 1.42372 38.9998H38.7154C39.1183 38.9998 39.4613 38.707 39.5245 38.3094L44.6457 6.04459L49.6167 37.3626H41.8392C41.3866 37.3626 41.02 37.729 41.02 38.1813C41.02 38.6336 41.3866 39 41.8392 39H50.5761C50.8157 39 51.0433 38.8951 51.1989 38.7129C51.3547 38.5305 51.4226 38.2893 51.385 38.0528ZM38.016 37.3624H2.38309L6.23664 13.0843H41.8696L38.016 37.3624ZM42.1294 11.4466H6.49654L8.0535 1.63753H43.6864L42.1294 11.4466Z" fill="#012D4A"/>
<path d="M13.2422 7.25582H36.9436C37.4115 7.25582 37.7906 6.84989 37.7906 6.34884C37.7906 5.8478 37.4115 5.44186 36.9436 5.44186H13.2422C12.7743 5.44186 12.3953 5.8478 12.3953 6.34884C12.3953 6.84989 12.7743 7.25582 13.2422 7.25582Z" fill="#012D4A"/>
<path d="M15.1357 18.1395H11.4687C10.9785 18.1395 10.5813 18.5455 10.5813 19.0465C10.5813 19.5475 10.9785 19.9535 11.4687 19.9535H15.1357C15.626 19.9535 16.0232 19.5475 16.0232 19.0465C16.0232 18.5455 15.6259 18.1395 15.1357 18.1395Z" fill="#012D4A"/>
<path d="M24.5011 18.1395H22.0565C21.7296 18.1395 21.4648 18.5455 21.4648 19.0465C21.4648 19.5475 21.7296 19.9535 22.0565 19.9535H24.5011C24.828 19.9535 25.0928 19.5475 25.0928 19.0465C25.0928 18.5455 24.828 18.1395 24.5011 18.1395Z" fill="#012D4A"/>
<path d="M34.33 18.1395H31.2742C30.8657 18.1395 30.5347 18.5455 30.5347 19.0465C30.5347 19.5475 30.8657 19.9535 31.2742 19.9535H34.33C34.7386 19.9535 35.0696 19.5475 35.0696 19.0465C35.0696 18.5455 34.7384 18.1395 34.33 18.1395Z" fill="#012D4A"/>
<path d="M14.2288 24.4884H10.5617C10.0715 24.4884 9.67432 24.8943 9.67432 25.3953C9.67432 25.8964 10.0715 26.3023 10.5617 26.3023H14.2288C14.719 26.3023 15.1162 25.8964 15.1162 25.3953C15.1162 24.8943 14.7189 24.4884 14.2288 24.4884Z" fill="#012D4A"/>
<path d="M23.4466 24.4884H20.3907C19.9821 24.4884 19.6511 24.8943 19.6511 25.3953C19.6511 25.8964 19.9821 26.3023 20.3907 26.3023H23.4465C23.855 26.3023 24.186 25.8964 24.186 25.3953C24.186 24.8943 23.855 24.4884 23.4466 24.4884Z" fill="#012D4A"/>
<path d="M33.423 24.4884H30.3672C29.9587 24.4884 29.6277 24.8943 29.6277 25.3953C29.6277 25.8964 29.9587 26.3023 30.3672 26.3023H33.423C33.8316 26.3023 34.1626 25.8964 34.1626 25.3953C34.1626 24.8943 33.8315 24.4884 33.423 24.4884Z" fill="#012D4A"/>
<path d="M12.5628 30.8372H9.50686C9.09832 30.8372 8.76733 31.2432 8.76733 31.7442C8.76733 32.2452 9.09832 32.6512 9.50686 32.6512H12.5627C12.9712 32.6512 13.3022 32.2452 13.3022 31.7442C13.3022 31.2432 12.9712 30.8372 12.5628 30.8372Z" fill="#012D4A"/>
<path d="M22.5395 30.8372H19.4837C19.0751 30.8372 18.7441 31.2432 18.7441 31.7442C18.7441 32.2452 19.0751 32.6512 19.4837 32.6512H22.5395C22.948 32.6512 23.279 32.2452 23.279 31.7442C23.279 31.2432 22.948 30.8372 22.5395 30.8372Z" fill="#012D4A"/>
<path d="M32.5161 30.8372H29.4602C29.0517 30.8372 28.7207 31.2432 28.7207 31.7442C28.7207 32.2452 29.0517 32.6512 29.4602 32.6512H32.5161C32.9246 32.6512 33.2556 32.2452 33.2556 31.7442C33.2556 31.2432 32.9246 30.8372 32.5161 30.8372Z" fill="#012D4A"/>
</svg>
