<svg width="16" height="16" viewBox="0 0 16 16" fill="none" xmlns="http://www.w3.org/2000/svg">
<path d="M8 0C3.58169 0 0 3.58169 0 8C0 12.4183 3.58169 16 8 16C12.4183 16 16 12.4183 16 8C16 3.58169 12.4183 0 8 0Z" fill="#40B3E0"/>
<path d="M11.8929 4.60187L10.464 11.8062C10.464 11.8062 10.2641 12.3058 9.71459 12.066L6.41721 9.538L5.21821 8.9585L3.19984 8.279C3.19984 8.279 2.89009 8.16912 2.86009 7.92931C2.83009 7.6895 3.20984 7.55962 3.20984 7.55962L11.2333 4.41212C11.2333 4.41212 11.8928 4.12237 11.8928 4.602" fill="white"/>
<path d="M6.1634 11.7252C6.1634 11.7252 6.06715 11.7162 5.94715 11.3364C5.82734 10.9567 5.21777 8.95836 5.21777 8.95836L10.0639 5.88086C10.0639 5.88086 10.3437 5.71098 10.3337 5.88086C10.3337 5.88086 10.3836 5.91086 10.2337 6.05073C10.0839 6.19067 6.42684 9.47798 6.42684 9.47798" fill="#D2E5F1"/>
<path d="M7.68126 10.5072L6.37707 11.6963C6.37707 11.6963 6.27507 11.7737 6.16357 11.7252L6.41332 9.51642" fill="#B5CFE4"/>
</svg>
