<svg width="43" height="40" viewBox="0 0 43 40" fill="none" xmlns="http://www.w3.org/2000/svg">
<path d="M43 36.8C43 37.84 42.6459 38.6333 41.9376 39.18C41.2293 39.7267 40.36 40 39.3297 40H3.67026C2.64001 40 1.77074 39.72 1.06244 39.16C0.354148 38.6 0 37.8133 0 36.8C0 36 0.231806 35.1867 0.695418 34.36L18.5058 2.2C19.3558 0.733333 20.3603 0 21.5193 0C22.6783 0 23.6571 0.733333 24.4555 2.2L42.3046 34.4C42.7682 35.2533 43 36.0533 43 36.8ZM24.1851 16.36V10.52H18.8149V16.36C18.8149 16.7333 18.8407 17.0867 18.8922 17.42C18.9437 17.7533 19.0145 18.1267 19.1047 18.54C19.1948 18.9533 19.2656 19.3067 19.3172 19.6L20.3217 26.08H22.6011L23.6442 19.6C23.6957 19.3333 23.773 18.9867 23.876 18.56C23.979 18.1333 24.0563 17.7533 24.1078 17.42C24.1593 17.0867 24.1851 16.7333 24.1851 16.36ZM24.1851 31.84C24.1851 31.0667 23.9211 30.4133 23.3931 29.88C22.8651 29.3467 22.2276 29.08 21.4807 29.08C20.7595 29.08 20.1349 29.3467 19.6069 29.88C19.0789 30.4133 18.8149 31.0667 18.8149 31.84C18.8149 32.6133 19.0789 33.2733 19.6069 33.82C20.1349 34.3667 20.7595 34.64 21.4807 34.64C22.2276 34.64 22.8651 34.3667 23.3931 33.82C23.9211 33.2733 24.1851 32.6133 24.1851 31.84Z" fill="url(#paint0_linear)"/>
<defs>
<linearGradient id="paint0_linear" x1="21.5" y1="0" x2="7.82205" y2="56.9837" gradientUnits="userSpaceOnUse">
<stop stop-color="#00AFC3"/>
<stop offset="1" stop-color="#0092AC"/>
</linearGradient>
</defs>
</svg>
