<svg width="44" height="55" viewBox="0 0 44 55" fill="none" xmlns="http://www.w3.org/2000/svg">
<path fill-rule="evenodd" clip-rule="evenodd" d="M0.412354 24.5623L8.59977 18.2598V53.8956H0.530161L0.412354 24.5623Z" fill="url(#paint0_linear)"/>
<path d="M8.95314 54.2491H0.176704L0 24.3857L8.95314 17.4941V54.2491ZM0.942435 53.5423H8.24632V19.0256L0.765727 24.7391L0.942435 53.5423Z" fill="white"/>
<path fill-rule="evenodd" clip-rule="evenodd" d="M16.7873 24.5623L8.59985 18.2598V53.8956H8.65875L16.6695 47.7698L16.7873 24.5623Z" fill="url(#paint1_linear)"/>
<path d="M8.77652 54.2491H8.1875V17.4941L17.1406 24.3857L17.0228 47.9466L8.77652 54.2491ZM8.95323 19.0256V53.2478L16.316 47.6521L16.4338 24.798L8.95323 19.0256Z" fill="white"/>
<path fill-rule="evenodd" clip-rule="evenodd" d="M14.0776 15.3737L22.265 9.01221V27.0952V44.6481V53.8957H14.1954L14.0776 15.3737Z" fill="url(#paint2_linear)"/>
<path d="M22.6184 54.2489H13.7831L13.6653 15.1967L22.6184 8.30518V54.2489ZM14.5488 53.5421H21.9116V9.77773L14.431 15.5502L14.5488 53.5421Z" fill="white"/>
<path fill-rule="evenodd" clip-rule="evenodd" d="M30.4526 15.3146L22.2651 8.95312V18.2597V44.589V53.8956H22.324L30.3348 47.7697L30.4526 15.3146Z" fill="url(#paint3_linear)"/>
<path d="M22.5006 54.2491H21.9116V8.1875L30.8648 15.0791L30.747 47.9465L22.5006 54.2491ZM22.6185 9.71896V53.1888L29.9812 47.5931L30.099 15.4914L22.6185 9.71896Z" fill="white"/>
<path fill-rule="evenodd" clip-rule="evenodd" d="M27.2717 7.06817L35.4591 0.765625V20.0267V36.4015V53.8955H27.3895L27.2717 7.06817Z" fill="url(#paint4_linear)"/>
<path d="M35.8125 54.249H27.0361L26.8594 6.89156L35.8125 0V54.249ZM27.7429 53.5422H35.1057V1.47256L27.6251 7.24498L27.7429 53.5422Z" fill="white"/>
<path fill-rule="evenodd" clip-rule="evenodd" d="M43.6466 7.06817L35.4592 0.765625V18.2596V36.4015V53.8955H35.5181L43.5288 47.7696L43.6466 7.06817Z" fill="url(#paint5_linear)"/>
<path d="M35.6359 54.249H35.0469V0L44 6.89156L43.8822 47.9464L35.6359 54.249ZM35.8126 1.47256V53.1887L43.1754 47.593L43.2932 7.24498L35.8126 1.47256Z" fill="white"/>
<path fill-rule="evenodd" clip-rule="evenodd" d="M0.412354 24.5623L8.59977 18.2598V53.8956H0.530161L0.412354 24.5623Z" fill="url(#paint6_radial)"/>
<path d="M8.95314 54.2491H0.176704L0 24.3857L8.95314 17.4941V54.2491ZM0.942435 53.5423H8.24632V19.0256L0.765727 24.7391L0.942435 53.5423Z" fill="white"/>
<path fill-rule="evenodd" clip-rule="evenodd" d="M16.7873 24.5623L8.59985 18.2598V53.8956H8.65875L16.6695 47.7698L16.7873 24.5623Z" fill="url(#paint7_radial)"/>
<path d="M8.77652 54.2491H8.1875V17.4941L17.1406 24.3857L17.0228 47.9466L8.77652 54.2491ZM8.95323 19.0256V53.2478L16.316 47.6521L16.4338 24.798L8.95323 19.0256Z" fill="white"/>
<path fill-rule="evenodd" clip-rule="evenodd" d="M14.0776 15.3737L22.265 9.01221V27.0952V44.6481V53.8957H14.1954L14.0776 15.3737Z" fill="url(#paint8_radial)"/>
<path d="M22.6184 54.2489H13.7831L13.6653 15.1967L22.6184 8.30518V54.2489ZM14.5488 53.5421H21.9116V9.77773L14.431 15.5502L14.5488 53.5421Z" fill="white"/>
<path fill-rule="evenodd" clip-rule="evenodd" d="M30.4526 15.3146L22.2651 8.95312V18.2597V44.589V53.8956H22.324L30.3348 47.7697L30.4526 15.3146Z" fill="url(#paint9_radial)"/>
<path d="M22.5006 54.2491H21.9116V8.1875L30.8648 15.0791L30.747 47.9465L22.5006 54.2491ZM22.6185 9.71896V53.1888L29.9812 47.5931L30.099 15.4914L22.6185 9.71896Z" fill="white"/>
<path fill-rule="evenodd" clip-rule="evenodd" d="M27.2717 7.06817L35.4591 0.765625V20.0267V36.4015V53.8955H27.3895L27.2717 7.06817Z" fill="url(#paint10_radial)"/>
<path d="M35.8125 54.249H27.0361L26.8594 6.89156L35.8125 0V54.249ZM27.7429 53.5422H35.1057V1.47256L27.6251 7.24498L27.7429 53.5422Z" fill="white"/>
<path fill-rule="evenodd" clip-rule="evenodd" d="M43.6466 7.06817L35.4592 0.765625V18.2596V36.4015V53.8955H35.5181L43.5288 47.7696L43.6466 7.06817Z" fill="url(#paint11_radial)"/>
<path d="M35.6359 54.249H35.0469V0L44 6.89156L43.8822 47.9464L35.6359 54.249ZM35.8126 1.47256V53.1887L43.1754 47.593L43.2932 7.24498L35.8126 1.47256Z" fill="white"/>
<defs>
<linearGradient id="paint0_linear" x1="-2.08281" y1="38.5892" x2="10.1018" y2="35.7143" gradientUnits="userSpaceOnUse">
<stop stop-color="#82CEE6"/>
<stop offset="1" stop-color="#0097AE"/>
</linearGradient>
<linearGradient id="paint1_linear" x1="5.46879" y1="36.8167" x2="16.6633" y2="34.1754" gradientUnits="userSpaceOnUse">
<stop stop-color="#82CEE6"/>
<stop offset="1" stop-color="#0097AE"/>
</linearGradient>
<linearGradient id="paint2_linear" x1="11.3544" y1="33.5053" x2="23.8026" y2="31.172" gradientUnits="userSpaceOnUse">
<stop stop-color="#82CEE6"/>
<stop offset="1" stop-color="#0097AE"/>
</linearGradient>
<linearGradient id="paint3_linear" x1="19.0988" y1="32.0238" x2="30.75" y2="29.8433" gradientUnits="userSpaceOnUse">
<stop stop-color="#82CEE6"/>
<stop offset="1" stop-color="#0097AE"/>
</linearGradient>
<linearGradient id="paint4_linear" x1="24.4526" y1="29.0579" x2="37.0057" y2="27.0717" gradientUnits="userSpaceOnUse">
<stop stop-color="#82CEE6"/>
<stop offset="1" stop-color="#0097AE"/>
</linearGradient>
<linearGradient id="paint5_linear" x1="32.2625" y1="27.8283" x2="44.1667" y2="25.9448" gradientUnits="userSpaceOnUse">
<stop stop-color="#82CEE6"/>
<stop offset="1" stop-color="#0097AE"/>
</linearGradient>
<radialGradient id="paint6_radial" cx="0" cy="0" r="1" gradientUnits="userSpaceOnUse" gradientTransform="translate(7.12121 30.7238) scale(16.9583)">
<stop stop-color="#5BBECF"/>
<stop offset="1" stop-color="#0097AE"/>
</radialGradient>
<radialGradient id="paint7_radial" cx="0" cy="0" r="1" gradientUnits="userSpaceOnUse" gradientTransform="translate(12.2087 51.7485) scale(16.958)">
<stop stop-color="#5BBECF"/>
<stop offset="1" stop-color="#0097AE"/>
</radialGradient>
<radialGradient id="paint8_radial" cx="0" cy="0" r="1" gradientUnits="userSpaceOnUse" gradientTransform="translate(20.7967 24.7302) scale(21.2873)">
<stop stop-color="#5BBECF"/>
<stop offset="1" stop-color="#0097AE"/>
</radialGradient>
<radialGradient id="paint9_radial" cx="0" cy="0" r="1" gradientUnits="userSpaceOnUse" gradientTransform="translate(25.8842 51.1908) scale(21.3216)">
<stop stop-color="#5BBECF"/>
<stop offset="1" stop-color="#0097AE"/>
</radialGradient>
<radialGradient id="paint10_radial" cx="0" cy="0" r="1" gradientUnits="userSpaceOnUse" gradientTransform="translate(33.9811 19.3456) scale(25.1847)">
<stop stop-color="#5BBECF"/>
<stop offset="1" stop-color="#0097AE"/>
</radialGradient>
<radialGradient id="paint11_radial" cx="0" cy="0" r="1" gradientUnits="userSpaceOnUse" gradientTransform="translate(39.0686 50.6981) scale(25.1847)">
<stop stop-color="#5BBECF"/>
<stop offset="1" stop-color="#0097AE"/>
</radialGradient>
</defs>
</svg>
