<svg width="155" height="31" viewBox="0 0 155 31" fill="none" xmlns="http://www.w3.org/2000/svg">
<path fill-rule="evenodd" clip-rule="evenodd" d="M15.4307 15.9542C15.5075 16.1832 15.4307 16.3359 15.2004 16.3359H13.2812C13.0508 16.3359 12.8205 16.1832 12.7438 15.9542L11.8993 13.0534H4.45264L2.84048 15.9542C2.68694 16.1832 2.45663 16.3359 2.22632 16.3359H0.307079C0 16.3359 -0.0767697 16.1832 0.0767697 15.9542L8.21436 1.45038C8.3679 1.22137 8.52143 1.0687 8.82851 1.0687H10.8245C11.0548 1.0687 11.2084 1.22137 11.3619 1.45038L15.4307 15.9542ZM5.37388 11.4504H11.4387L9.44267 4.19847L5.37388 11.4504ZM31.8594 1.0687C32.0897 1.0687 32.1665 1.22137 32.013 1.45038L23.8754 15.9542C23.7218 16.1832 23.4915 16.3359 23.2612 16.3359H21.2652C20.9581 16.3359 20.8046 16.1832 20.7278 15.9542L16.659 1.45038C16.5823 1.22137 16.659 1.0687 16.9661 1.0687H18.8853C19.1157 1.0687 19.346 1.22137 19.4227 1.45038L22.7238 13.1298L29.326 1.45038C29.4796 1.22137 29.6331 1.0687 29.9402 1.0687H31.8594ZM48.9791 1.0687C49.2094 1.0687 49.3629 1.22137 49.3629 1.45038L47.2901 15.9542C47.2134 16.1832 47.1366 16.3359 46.8295 16.3359H44.8335C44.5264 16.3359 44.4496 16.1832 44.4496 15.9542L46.1386 4.0458L40.7647 11.0687C40.6879 11.2214 40.6112 11.2214 40.5344 11.2214C40.4576 11.2214 40.3809 11.145 40.3041 11.0687L36.9262 4.0458L35.2373 15.9542C35.1605 16.1832 35.0837 16.3359 34.7767 16.3359H32.7807C32.4736 16.3359 32.3968 16.1832 32.3968 15.9542L34.4696 1.45038C34.4696 1.22137 34.6231 1.0687 34.9302 1.0687H36.9262C37.1565 1.0687 37.3868 1.22137 37.5404 1.45038L40.9182 8.47328L46.2921 1.45038C46.4457 1.22137 46.676 1.0687 46.983 1.0687H48.9791ZM68.6321 14.7328C68.8624 14.7328 69.016 14.8855 68.9392 15.1145L68.8624 15.8779C68.7856 16.1069 68.7089 16.2595 68.4018 16.2595H57.8076C57.5005 16.2595 57.4237 16.1069 57.4237 15.8779L59.4965 1.37405C59.4965 1.14504 59.65 0.992366 59.9571 0.992366H61.9531C62.1834 0.992366 62.337 1.14504 62.337 1.37405L60.4945 14.6565H68.6321V14.7328ZM80.992 5.26718C82.5274 5.26718 83.1416 6.03053 82.9113 7.48092L81.99 14.0458C81.7597 15.5725 80.9152 16.2595 79.4566 16.2595H72.8544C71.319 16.2595 70.7049 15.4962 70.9352 14.0458L71.8564 7.48092C72.0867 5.9542 72.9312 5.26718 74.3898 5.26718H80.992ZM79.2263 13.9695L80.1476 7.63359C80.2243 7.09924 79.994 6.87023 79.4566 6.87023H75.4646C74.9272 6.87023 74.6201 7.09924 74.5434 7.63359L73.6989 13.9695C73.6221 14.5038 73.8524 14.7328 74.3898 14.7328H78.3819C78.8425 14.7328 79.1495 14.5038 79.2263 13.9695ZM94.657 5.26718C96.1924 5.26718 96.8066 6.03053 96.5763 7.48092L95.0409 18.3206C94.8106 19.8473 93.9661 20.5343 92.5075 20.5343H86.673C86.3659 20.5343 86.2891 20.3817 86.2891 20.1527L86.3659 19.3893C86.4427 19.1603 86.5962 19.0076 86.8265 19.0076H91.3559C91.8933 19.0076 92.2004 18.7786 92.2772 18.2443L92.5075 16.4122H86.5194C84.984 16.4122 84.3699 15.6489 84.6002 14.1985L85.5214 7.63359C85.7517 6.10687 86.5962 5.41985 88.0548 5.41985H94.657V5.26718ZM92.8146 14.7328L93.8126 7.63359C93.8893 7.09924 93.659 6.87023 93.1216 6.87023H89.2831C88.7458 6.87023 88.4387 7.09924 88.3619 7.63359L87.4407 13.9695C87.3639 14.5038 87.5942 14.7328 88.1316 14.7328H92.8146ZM102.257 5.26718C102.488 5.26718 102.641 5.41985 102.641 5.64885L101.182 15.9542C101.106 16.1832 101.029 16.3359 100.722 16.3359H98.7258C98.4187 16.3359 98.342 16.1832 98.342 15.9542L99.8006 5.64885C99.8006 5.41985 99.9541 5.26718 100.261 5.26718H102.257ZM103.025 0C103.255 0 103.409 0.152672 103.409 0.381679L103.025 3.05343C102.948 3.28244 102.795 3.43511 102.564 3.43511H100.568C100.338 3.43511 100.184 3.28244 100.261 3.05343L100.645 0.381679C100.645 0.152672 100.799 0 101.106 0H103.025ZM113.235 10.5344C114.694 10.7634 115.385 11.6031 115.155 13.0534L115.001 14.1221C114.771 15.6489 113.926 16.3359 112.468 16.3359H104.253C103.946 16.3359 103.869 16.1832 103.869 15.9542L103.946 15.1908C104.023 14.9618 104.176 14.8092 104.407 14.8092H111.316C111.853 14.8092 112.161 14.5802 112.237 14.0458L112.391 12.9771C112.468 12.4427 112.237 12.0611 111.777 11.9847L106.556 11.0687C105.098 10.8397 104.484 10 104.637 8.54962L104.791 7.48092C105.021 5.9542 105.865 5.26718 107.324 5.26718H114.771C115.001 5.26718 115.155 5.41985 115.155 5.64885L115.078 6.41221C115.001 6.64122 114.847 6.79389 114.617 6.79389H108.552C108.015 6.79389 107.708 7.0229 107.631 7.55725L107.478 8.62595C107.401 9.16031 107.631 9.54198 108.168 9.61832L113.235 10.5344ZM123.522 16.3359H119.3C117.765 16.3359 117.151 15.5725 117.381 14.1221L118.839 3.58779C118.916 3.35878 119.07 3.20611 119.3 3.20611H121.296C121.526 3.20611 121.68 3.35878 121.603 3.58779L121.296 5.26718H124.444C124.674 5.26718 124.828 5.41985 124.828 5.64885L124.751 6.41221C124.674 6.64122 124.52 6.79389 124.29 6.79389H121.143L120.145 13.8931C120.068 14.4275 120.298 14.6565 120.835 14.6565H123.753C123.983 14.6565 124.137 14.8092 124.06 15.0382L123.983 15.8015C123.906 16.1832 123.753 16.3359 123.522 16.3359ZM129.818 5.26718C130.048 5.26718 130.201 5.41985 130.201 5.64885L128.743 15.9542C128.666 16.1832 128.589 16.3359 128.282 16.3359H126.286C125.979 16.3359 125.902 16.1832 125.902 15.9542L127.361 5.64885C127.361 5.41985 127.514 5.26718 127.822 5.26718H129.818ZM130.585 0C130.816 0 130.969 0.152672 130.969 0.381679L130.508 3.05343C130.432 3.28244 130.278 3.43511 130.048 3.43511H128.052C127.822 3.43511 127.668 3.28244 127.745 3.05343L128.129 0.381679C128.129 0.152672 128.282 0 128.589 0H130.585ZM140.872 14.7328C141.103 14.7328 141.256 14.8855 141.179 15.1145L141.103 15.8779C141.026 16.1069 140.949 16.2595 140.642 16.2595H133.733C132.197 16.2595 131.583 15.4962 131.814 14.0458L132.735 7.48092C132.965 5.9542 133.81 5.26718 135.268 5.26718H141.87C142.101 5.26718 142.254 5.41985 142.254 5.64885L142.177 6.41221C142.177 6.71756 142.024 6.87023 141.717 6.87023H136.42C135.882 6.87023 135.575 7.09924 135.498 7.63359L134.577 13.9695C134.5 14.5038 134.731 14.7328 135.268 14.7328H140.872ZM152.081 10.5344C153.539 10.7634 154.23 11.6031 154 13.0534L153.846 14.1221C153.616 15.6489 152.772 16.3359 151.313 16.3359H143.099C142.792 16.3359 142.715 16.1832 142.715 15.9542L142.792 15.1908C142.868 14.9618 143.022 14.8092 143.252 14.8092H150.162C150.699 14.8092 151.006 14.5802 151.083 14.0458L151.236 12.9771C151.313 12.4427 151.083 12.0611 150.622 11.9847L145.402 11.0687C143.943 10.8397 143.329 10 143.483 8.54962L143.636 7.48092C143.866 5.9542 144.711 5.26718 146.169 5.26718H153.616C153.846 5.26718 154 5.41985 154 5.64885L153.923 6.41221C153.846 6.64122 153.693 6.79389 153.463 6.79389H147.398C146.86 6.79389 146.553 7.0229 146.477 7.55725L146.323 8.62595C146.246 9.16031 146.477 9.54198 147.014 9.61832L152.081 10.5344Z" fill="white"/>
<path fill-rule="evenodd" clip-rule="evenodd" d="M9.74946 22.6716C9.51915 22.9006 9.36561 23.2059 9.1353 23.4349C8.98176 23.7403 8.75145 24.0456 8.59791 24.351C8.13729 25.1907 7.83021 25.6487 7.75345 25.8777C7.44637 26.3357 7.21606 26.641 6.98575 26.7937C6.98575 26.7937 6.90898 26.7937 6.90898 26.87C6.90898 26.9464 6.98575 26.9464 7.21606 27.0227C7.3696 27.0991 7.59991 27.0991 7.75345 27.0991C8.21406 27.0991 8.67468 26.9464 9.1353 26.4884C9.59592 26.1067 9.97977 25.6487 10.2868 25.038C10.5939 24.4273 10.7475 23.893 10.8242 23.4349C10.8242 22.8242 10.6707 22.3662 10.3636 22.0609C9.97977 21.7555 9.59592 21.6029 9.21207 21.6029C8.59791 21.6029 7.98375 22.0609 7.3696 23.0533L6.6019 22.5189C6.98575 22.0609 7.3696 21.6792 7.83021 21.3739C8.21406 21.0685 8.75145 20.9922 9.28884 20.9922C9.59592 20.9922 9.903 21.0685 10.2101 21.1449C10.5172 21.2212 10.8242 21.4502 11.0545 21.6792C11.2849 21.9082 11.5152 22.2136 11.5919 22.5189C11.7455 22.8242 11.7455 23.2059 11.7455 23.5876C11.7455 24.122 11.6687 24.58 11.4384 25.1143C11.2081 25.6487 10.9778 26.1067 10.5939 26.4884C10.2101 26.87 9.82623 27.2517 9.36561 27.4807C8.90499 27.7097 8.44437 27.8624 7.98375 27.8624C7.67668 27.8624 7.44637 27.7861 7.3696 27.7861C7.29283 27.7861 7.21606 27.7097 7.13929 27.7097C7.06252 27.7097 6.98575 27.6334 6.90898 27.6334C6.83221 27.6334 6.75544 27.5571 6.67867 27.5571C6.6019 27.5571 6.52513 27.4807 6.44836 27.4807C6.14128 27.7097 5.75743 27.8624 5.37358 27.8624C5.06651 27.8624 4.91297 27.8624 4.8362 27.7097L4.75943 27.3281C4.68266 27.1754 4.8362 27.0227 5.22005 26.87C5.52712 26.7174 5.91097 26.641 6.21805 26.641C6.37159 26.641 6.44836 26.641 6.44836 26.641H6.52513C6.6019 26.641 6.75544 26.4884 6.98575 26.183C7.21606 25.8777 7.3696 25.6487 7.44637 25.496C7.59991 25.267 7.67668 25.038 7.75345 24.8853C7.83021 24.7326 7.90698 24.58 7.98375 24.4273C8.3676 23.6639 8.90499 22.9769 9.44238 22.4426L9.74946 22.6716ZM11.2849 26.4884L11.0545 27.0991L11.4384 26.87C11.4384 27.0991 11.5152 27.2517 11.7455 27.4044C11.9758 27.5571 12.2061 27.6334 12.4364 27.6334C12.7435 27.6334 13.1273 27.5571 13.5112 27.4807C13.895 27.3281 14.2021 27.2517 14.4324 27.0227L14.6627 26.3357C14.4324 26.4884 14.1253 26.641 13.8183 26.7174C13.5112 26.87 13.2041 26.9464 12.9738 26.9464C12.7435 26.9464 12.5899 26.87 12.5132 26.7937C12.4364 26.7174 12.3596 26.5647 12.4364 26.412C13.5112 26.1067 14.2789 25.8013 14.6627 25.4197C15.1233 25.038 15.2769 24.7326 15.2769 24.351C15.2769 24.1983 15.2001 24.0456 15.0466 23.8929C14.893 23.7403 14.7395 23.7403 14.5092 23.7403C14.2789 23.7403 13.9718 23.8166 13.6647 23.8929C13.3576 24.0456 13.0506 24.1983 12.7435 24.4273C12.4364 24.6563 12.2061 24.9617 11.9758 25.1907C11.7455 25.496 11.5919 25.8013 11.5152 26.1067L11.2849 26.4884ZM12.5899 25.954C12.7435 25.5723 12.9738 25.267 13.3576 24.9617C13.6647 24.6563 13.9718 24.5036 14.2021 24.5036C14.3556 24.5036 14.3556 24.58 14.3556 24.6563C14.3556 24.809 14.2021 25.038 13.8183 25.3433C13.4344 25.6487 13.0506 25.8777 12.5899 25.954ZM17.9638 23.7403L18.6547 24.0456L18.0406 25.3433C17.9638 25.4197 17.9638 25.5723 17.887 25.6487C17.8103 25.725 17.8103 25.8777 17.7335 25.954C17.6567 26.1067 17.58 26.2594 17.58 26.3357C17.58 26.412 17.58 26.4884 17.58 26.5647C17.58 26.7174 17.6567 26.7937 17.7335 26.7937C17.887 26.7937 18.1941 26.7174 18.6547 26.412L18.4244 27.0991C17.8103 27.4807 17.3497 27.7097 17.1961 27.7097C17.0426 27.7097 16.9658 27.6334 16.8123 27.5571C16.7355 27.4807 16.6587 27.3281 16.6587 27.1754C16.6587 26.9464 16.7355 26.641 16.9658 26.2594C16.9658 26.2594 17.0426 26.183 17.0426 26.1067C17.0426 26.1067 17.0426 26.0304 17.1193 25.954L17.0426 25.8777C17.0426 25.8777 17.0426 25.8777 16.9658 25.954C16.9658 25.954 16.9658 25.954 16.889 26.0304C16.8123 26.1067 16.8123 26.183 16.7355 26.2594C16.3517 26.7174 16.0446 27.0991 15.7375 27.3281C15.4304 27.5571 15.1233 27.7097 14.8163 27.7097C14.3556 27.7097 14.1253 27.4807 14.1253 27.0991C14.1253 26.9464 14.1253 26.7937 14.2021 26.7174L14.9698 26.3357C14.9698 26.412 14.9698 26.5647 14.9698 26.641C14.9698 26.7174 14.9698 26.7937 14.9698 26.87C14.9698 26.9464 15.0466 26.9464 15.1233 26.9464C15.4304 26.9464 15.8143 26.5647 16.4284 25.8013C17.1193 25.038 17.58 24.351 17.9638 23.7403ZM22.6468 24.0456L23.3377 24.4273L22.4932 26.1067C22.3397 26.412 22.2629 26.5647 22.2629 26.7174C22.2629 26.7937 22.3397 26.87 22.4165 26.87C22.4932 26.87 22.6468 26.7937 22.9538 26.641C23.2609 26.4884 23.4145 26.412 23.4912 26.412L23.2609 27.0991C22.7235 27.4807 22.2629 27.7097 21.9558 27.7097C21.8023 27.7097 21.6488 27.6334 21.572 27.5571C21.4952 27.4807 21.4185 27.3281 21.4185 27.1754C21.4185 27.0991 21.4185 26.87 21.572 26.641C21.572 26.641 21.572 26.641 21.572 26.5647V26.4884H21.4952C21.4952 26.4884 21.4952 26.4884 21.4185 26.5647C21.1114 26.87 20.8043 27.1754 20.4972 27.3281C20.1901 27.4807 19.8831 27.6334 19.6527 27.6334C19.4224 27.6334 19.2689 27.5571 19.1154 27.4044C18.9618 27.2517 18.8851 27.0227 18.8851 26.641C18.8851 26.2594 19.0386 25.8777 19.4224 25.4197C19.7295 24.9617 20.1134 24.58 20.574 24.2746C21.0346 23.9693 21.4185 23.8166 21.7255 23.8166C22.1094 23.8166 22.3397 23.893 22.57 24.1983L22.6468 24.0456ZM22.2629 24.6563C22.1861 24.5036 22.0326 24.4273 21.8023 24.4273C21.572 24.4273 21.2649 24.58 20.9578 24.809C20.6508 25.038 20.3437 25.3433 20.1134 25.6487C19.8831 25.954 19.7295 26.2594 19.7295 26.4884C19.7295 26.7174 19.8063 26.87 20.0366 26.87C20.1901 26.87 20.3437 26.7937 20.6508 26.641C20.8811 26.4884 21.1114 26.2594 21.3417 26.0304C21.572 25.8013 21.7255 25.6487 21.8023 25.496L22.2629 24.6563ZM31.0147 24.122L31.7056 24.5036C30.9379 25.8777 30.3237 27.0991 29.7863 28.0914C29.3257 29.0838 29.0187 29.7708 28.8651 30.0762L27.9439 29.7708C28.251 29.1601 28.4813 28.7021 28.7116 28.3204C28.9419 27.9387 29.1722 27.5571 29.4025 27.1754C29.4793 27.0991 29.4793 27.0227 29.556 26.9464C29.556 26.9464 29.556 26.9464 29.556 26.87V26.7937C29.556 26.7937 29.556 26.7174 29.6328 26.7174C29.6328 26.7174 29.556 26.7174 29.556 26.7937L29.4793 26.87L29.4025 26.9464C28.7883 27.4807 28.251 27.7861 27.7903 27.7861C27.56 27.7861 27.4065 27.7097 27.2529 27.6334C27.0994 27.4807 27.0226 27.3281 26.9459 27.0227C26.9459 26.641 27.0994 26.183 27.4065 25.725C27.7136 25.267 28.1742 24.8853 28.7116 24.5036C29.249 24.1983 29.7096 24.0456 30.0934 24.0456C30.4005 24.0456 30.6308 24.1983 30.8611 24.4273L31.0147 24.122ZM30.6308 24.7326C30.554 24.58 30.4005 24.5036 30.247 24.5036C30.0167 24.5036 29.7863 24.6563 29.4025 24.8853C29.0187 25.1143 28.7116 25.4197 28.4813 25.725C28.251 26.0304 28.0974 26.3357 28.0974 26.641C28.0974 26.7937 28.1742 26.9464 28.3277 26.9464C28.4813 26.9464 28.7116 26.87 29.0187 26.7174C29.3257 26.5647 29.556 26.2594 29.8631 25.954C30.1702 25.5723 30.4005 25.1907 30.6308 24.7326ZM34.3158 23.6639C33.4713 23.9693 32.7804 24.351 32.243 24.9617C31.7056 25.496 31.3985 26.1067 31.3985 26.7174C31.3985 27.4044 31.7824 27.7861 32.4733 27.7861C32.9339 27.7861 33.3178 27.6334 33.7784 27.3281C34.239 27.0227 34.5461 26.641 34.7764 26.1067C35.0067 25.5723 35.0835 25.038 35.0067 24.5036L34.0855 24.7326C34.1622 25.1907 34.0855 25.5723 33.9319 25.954C33.7784 26.3357 33.6248 26.641 33.3945 26.7937C33.1642 27.0227 32.9339 27.0991 32.7804 27.0991C32.5501 27.0991 32.3965 26.9464 32.3965 26.7174C32.3197 26.4884 32.3965 26.183 32.5501 25.8777C32.7036 25.5723 33.0107 25.1907 33.3178 24.8853C33.7016 24.58 34.0855 24.351 34.4693 24.1983L34.3158 23.6639ZM36.6956 23.8166L37.3098 24.1983L36.235 26.1067L36.3118 26.0304L36.3885 25.954C36.4653 25.8777 36.5421 25.8013 36.6189 25.8013C36.6956 25.725 36.6956 25.6487 36.7724 25.6487C37.0795 25.3433 37.3866 25.038 37.7704 24.7326C38.1542 24.4273 38.5381 24.122 39.0755 23.8166L39.4593 24.4273C39.0755 24.58 38.6149 24.809 38.231 25.1143C37.8472 25.3433 37.4633 25.6487 37.233 25.8777V25.954C37.3098 25.954 37.3865 25.954 37.4633 25.954C37.6936 25.954 37.7704 26.1067 37.6936 26.3357C37.6936 26.412 37.6169 26.4884 37.5401 26.641C37.5401 26.7174 37.4633 26.7937 37.4633 26.87V26.9464C37.4633 27.0227 37.5401 27.0991 37.6169 27.1754C37.7704 27.1754 38.0007 27.0991 38.231 26.9464C38.5381 26.7937 38.7684 26.641 38.9987 26.412L38.7684 27.0991C38.1542 27.6334 37.6169 27.8624 37.0795 27.8624C36.6956 27.8624 36.5421 27.6334 36.5421 27.2517C36.5421 27.0991 36.5421 26.9464 36.6189 26.7937C36.6189 26.7937 36.6189 26.7174 36.6956 26.7174C36.6956 26.7174 36.6956 26.641 36.7724 26.641V26.5647C36.7724 26.4884 36.7724 26.4884 36.6956 26.4884C36.6189 26.4884 36.3885 26.641 36.0815 26.9464C35.7744 27.2517 35.5441 27.5571 35.3138 27.7861L34.6228 27.6334L36.6956 23.8166ZM43.1443 24.0456L42.9907 24.2746C42.7604 24.0456 42.5301 23.8929 42.1463 23.8929C41.8392 23.8929 41.3786 24.0456 40.9947 24.351C40.5341 24.6563 40.1503 25.038 39.8432 25.496C39.5361 25.954 39.3826 26.3357 39.3058 26.7174C39.3058 27.0227 39.3826 27.3281 39.5361 27.4807C39.6896 27.6334 39.9199 27.7097 40.0735 27.7097C40.3038 27.7097 40.6109 27.6334 40.918 27.4044C41.225 27.2517 41.5321 26.9464 41.8392 26.641C41.916 26.5647 41.916 26.5647 41.916 26.5647H41.9927V26.641C41.9927 26.641 41.9927 26.641 41.9927 26.7174C41.8392 26.9464 41.8392 27.1754 41.8392 27.2517C41.8392 27.4044 41.916 27.5571 41.9927 27.6334C42.0695 27.7097 42.223 27.7861 42.3766 27.7861C42.6837 27.7861 43.1443 27.5571 43.6817 27.1754L43.912 26.4884C43.8352 26.5647 43.6817 26.641 43.3746 26.7174C43.0675 26.87 42.914 26.9464 42.8372 26.9464C42.7604 26.9464 42.6837 26.87 42.6837 26.7937C42.6837 26.7174 42.7604 26.4884 42.914 26.183L43.7584 24.5036L43.1443 24.0456ZM42.8372 24.6563L42.3766 25.5723C42.2998 25.725 42.1463 25.8777 41.916 26.1067C41.6856 26.3357 41.4553 26.4884 41.225 26.7174C40.9947 26.9464 40.7644 26.9464 40.6109 26.9464C40.3806 26.9464 40.3038 26.7937 40.3038 26.5647C40.3038 26.3357 40.4573 26.0304 40.6876 25.725C40.918 25.4197 41.225 25.1143 41.5321 24.8853C41.8392 24.6563 42.1463 24.5036 42.3766 24.5036C42.5301 24.4273 42.6837 24.5036 42.8372 24.6563ZM45.1403 24.2746C45.4474 24.0456 45.7544 23.893 45.9848 23.8166C46.2151 23.7403 46.3686 23.7403 46.4454 23.7403C46.906 23.7403 47.1363 23.9693 47.0595 24.4273C47.0595 24.7326 46.906 25.1143 46.5989 25.496C46.5989 25.496 46.5221 25.5723 46.5221 25.6487C46.5221 25.6487 46.5221 25.725 46.4454 25.725C46.4454 25.725 46.4454 25.8013 46.3686 25.8013H46.4454C46.6757 25.5723 46.9828 25.3433 47.3666 24.9617C47.6737 24.58 47.9808 24.2746 48.2111 23.9693L48.6717 24.2746L48.1343 25.267C47.9808 25.5723 47.904 25.725 47.904 25.8013H47.9808C48.0575 25.725 48.2111 25.6487 48.4414 25.4197C48.6717 25.267 48.902 25.038 49.0555 24.9617C49.2091 24.809 49.4394 24.6563 49.6697 24.5036C49.9 24.351 50.2071 24.1983 50.4374 24.0456L50.7445 24.58C50.0535 24.9617 49.5929 25.267 49.3626 25.6487C49.1323 25.954 48.9788 26.2594 48.9788 26.4884C48.9788 26.7174 49.0555 26.87 49.2091 26.87C49.2859 26.87 49.7465 26.7174 50.5142 26.2594L50.2839 26.9464C49.6697 27.3281 49.1323 27.5571 48.8252 27.5571C48.5182 27.5571 48.3646 27.4807 48.2878 27.3281C48.2111 27.1754 48.2111 27.0227 48.2111 26.87C48.2111 26.5647 48.2878 26.3357 48.4414 26.1067C48.4414 26.1067 48.4414 26.1067 48.4414 26.0304C48.4414 26.0304 48.4414 26.0304 48.4414 25.954C48.4414 25.954 48.4414 25.954 48.4414 25.8777C48.1343 26.1067 47.8272 26.412 47.5969 26.7174C47.3666 27.0227 47.1363 27.3281 46.9828 27.6334L46.4454 27.4044L47.3666 25.6487H47.2898C47.2131 25.725 47.1363 25.8013 47.1363 25.8013C47.0595 25.8777 46.9828 25.954 46.8292 26.1067C45.7544 27.0991 44.9868 27.6334 44.4494 27.6334C44.2191 27.6334 44.0655 27.5571 43.912 27.4044C43.7584 27.2517 43.6817 27.0227 43.6817 26.7937C43.6817 26.641 43.6817 26.4884 43.7584 26.412L44.5261 26.1067C44.4494 26.2594 44.4494 26.412 44.3726 26.5647C44.3726 26.7174 44.3726 26.7937 44.4494 26.87C44.5261 26.9464 44.6029 26.9464 44.6797 26.9464C44.8332 26.9464 45.0635 26.7937 45.3706 26.4884C45.6009 26.183 45.908 25.8013 46.0615 25.4197C46.2918 25.038 46.3686 24.7326 46.3686 24.58C46.3686 24.4273 46.2918 24.351 46.1383 24.351C46.0615 24.351 45.8312 24.4273 45.4474 24.6563L45.1403 24.2746ZM52.0496 23.7403C51.7425 24.351 51.3586 24.9617 50.9748 25.6487C50.5909 26.3357 50.4374 26.87 50.4374 27.1754C50.4374 27.5571 50.5909 27.7097 50.898 27.7097C51.2819 27.7861 51.896 27.3281 52.8173 26.412H52.894C52.7405 26.641 52.6637 26.7937 52.5102 27.0227C52.4334 27.0991 52.2799 27.4044 51.9728 27.8624C51.5889 28.5494 51.3586 29.1601 51.1283 29.7708L51.9728 29.9235C52.4334 28.6258 53.3546 26.7937 54.583 24.5036L53.892 24.1983C53.892 24.2746 53.8153 24.351 53.7385 24.351C53.7385 24.4273 53.7385 24.5036 53.7385 24.5036C53.585 24.809 53.3546 25.038 53.2011 25.267C52.894 25.6487 52.5869 25.954 52.2799 26.3357C51.896 26.641 51.6657 26.7937 51.5122 26.7937C51.4354 26.7937 51.3586 26.7174 51.3586 26.641V26.5647C51.3586 26.4884 51.3586 26.4884 51.4354 26.412C51.5122 26.2594 51.5122 26.183 51.5889 26.1067C51.5889 26.1067 51.5889 26.0304 51.6657 26.0304C51.6657 26.0304 51.6657 25.954 51.7425 25.954C51.7425 25.954 51.7425 25.8777 51.8193 25.8777V25.8013L52.7405 24.122L52.0496 23.7403ZM55.8113 23.8166L56.5022 24.1983L55.7345 25.6487L55.8113 25.725C55.9648 25.5723 56.1184 25.496 56.1951 25.3433C56.3487 25.1907 56.4254 25.1143 56.4254 25.1143C56.7325 24.809 56.9628 24.58 57.1164 24.5036C57.3467 24.351 57.5002 24.2746 57.7305 24.2746C57.8841 24.2746 57.9608 24.351 58.1144 24.4273C58.1911 24.5036 58.2679 24.58 58.2679 24.7326C58.2679 24.809 58.2679 24.9617 58.1911 25.038C58.1911 25.1143 58.0376 25.267 57.8841 25.496C57.8073 25.5723 57.7305 25.725 57.7305 25.8013V25.8777C57.7305 25.8777 57.7305 25.8777 57.6537 25.954L57.7305 26.0304C58.2679 25.496 58.6518 25.1907 58.9588 25.038C59.1891 24.8853 59.4194 24.809 59.4962 24.8853C59.7265 24.8853 59.8801 25.038 59.8801 25.267C59.8801 25.496 59.7265 25.8013 59.4962 26.183C59.4962 26.2594 59.4195 26.2594 59.3427 26.412C59.2659 26.4884 59.2659 26.5647 59.1891 26.641C59.1124 26.7937 59.0356 26.9464 59.0356 26.9464C59.0356 27.0227 59.0356 27.0227 59.1124 27.0227C59.1124 27.0227 59.1124 27.0227 59.1891 27.0227C59.3427 27.0227 59.4962 26.9464 59.8033 26.7937C59.8801 26.7937 59.9568 26.7174 60.0336 26.7174C60.1104 26.7174 60.1871 26.641 60.3407 26.5647L60.1104 27.2517C59.9568 27.3281 59.8033 27.4044 59.573 27.4807C59.3427 27.6334 59.1891 27.7097 59.0356 27.7861C58.8053 27.8624 58.6517 27.8624 58.4982 27.8624C58.3447 27.8624 58.1911 27.7861 58.1144 27.7097C58.0376 27.6334 58.0376 27.4807 58.0376 27.2517C58.1144 27.0991 58.2679 26.7937 58.4982 26.3357L58.575 26.2594L58.6518 26.183C58.7285 26.0304 58.7285 25.954 58.7285 25.954C58.7285 25.8777 58.7285 25.8777 58.6518 25.8777C58.4982 25.8777 58.1911 26.1067 57.7305 26.5647C57.2699 27.0227 56.886 27.4807 56.579 27.9387L55.888 27.7097L56.9628 25.6487C56.9628 25.5723 56.9628 25.496 56.9628 25.496C56.9628 25.496 56.8093 25.5723 56.7325 25.6487C56.579 25.725 56.5022 25.8777 56.3487 26.0304C56.0416 26.3357 55.888 26.4884 55.7345 26.641C55.5042 26.87 55.3507 27.0991 55.1203 27.4044C54.9668 27.6334 54.8133 27.8624 54.7365 27.9387L53.9688 27.7097L55.8113 23.8166ZM56.9628 23.6639L57.2699 24.122C58.1911 23.5876 59.0356 23.2823 59.8801 23.2823C60.1871 23.2823 60.4175 23.2823 60.571 23.3586L60.9548 22.4426C59.6498 22.4426 58.2679 22.9006 56.9628 23.6639ZM65.4843 23.8166L66.0984 24.122L65.2539 25.725L65.3307 25.8013C65.3307 25.725 65.4075 25.725 65.4075 25.725L65.4843 25.6487C65.4843 25.6487 65.561 25.5723 65.561 25.496C65.9449 25.038 66.3287 24.7326 66.559 24.5036C66.8661 24.2746 67.0196 24.1983 67.25 24.1983C67.3267 24.1983 67.4803 24.1983 67.557 24.2746C67.6338 24.351 67.7106 24.4273 67.7873 24.5036C67.8641 24.58 67.8641 24.7326 67.7873 24.809C67.7873 24.8853 67.7106 25.1143 67.4803 25.496C67.4035 25.5723 67.4035 25.725 67.3267 25.8013C67.25 25.954 67.1732 26.0304 67.1732 26.1067C67.0196 26.412 66.9429 26.5647 66.9429 26.641C66.9429 26.7174 67.0196 26.7937 67.0964 26.7937C67.0964 26.7937 67.1732 26.7937 67.3267 26.7174C67.4035 26.7174 67.4803 26.641 67.557 26.641C67.8641 26.4884 68.0177 26.412 68.0944 26.412L67.8641 27.0991C67.6338 27.2517 67.3267 27.4044 67.0964 27.4807C66.8661 27.6334 66.6358 27.6334 66.559 27.6334C66.2519 27.6334 66.0216 27.4807 66.0216 27.0991C66.0216 26.87 66.1752 26.5647 66.4055 26.1067C66.4823 25.954 66.559 25.8013 66.6358 25.6487C66.7893 25.4197 66.7893 25.267 66.7893 25.267C66.7893 25.1907 66.7126 25.1907 66.6358 25.1907C66.4823 25.1907 66.4055 25.267 66.1752 25.496C65.9449 25.725 65.7913 25.8777 65.7146 25.954C65.4843 26.183 65.3307 26.412 65.1772 26.5647C65.1004 26.641 65.0236 26.7937 64.7166 27.0991C64.6398 27.1754 64.563 27.2517 64.4862 27.4044C64.4095 27.5571 64.2559 27.6334 64.1024 27.7861L63.4882 27.5571L65.4843 23.8166ZM71.242 23.6639L71.3955 24.1983C70.9349 24.351 70.5511 24.58 70.244 24.8853C69.8601 25.1907 69.6298 25.496 69.4763 25.8777C69.3227 26.183 69.246 26.4884 69.3227 26.7174C69.3995 26.9464 69.4763 27.0991 69.7066 27.0991C69.8601 27.0991 70.0904 27.0227 70.3207 26.7937C70.5511 26.5647 70.7046 26.2594 70.8581 25.954C71.0117 25.5723 71.0117 25.1907 71.0117 24.7326L71.9329 24.5036C72.0097 25.038 71.9329 25.5723 71.7026 26.1067C71.4723 26.641 71.1652 27.0227 70.7046 27.3281C70.244 27.6334 69.8601 27.7861 69.3995 27.7861C68.7086 27.7861 68.3247 27.4044 68.3247 26.7174C68.3247 26.1067 68.6318 25.5723 69.1692 24.9617C69.7066 24.351 70.3975 23.9693 71.242 23.6639ZM73.0844 23.6639L73.6986 23.9693L73.0844 25.1907C73.0844 25.267 73.0077 25.267 73.0077 25.3433C73.0077 25.3433 73.0077 25.3433 73.0077 25.4197C73.0077 25.4197 73.0077 25.4197 73.0077 25.496C73.0077 25.496 73.0077 25.496 73.0077 25.5723C73.0077 25.6487 73.0077 25.725 73.1612 25.725C73.3148 25.725 73.5451 25.5723 73.9289 25.267C74.236 24.9617 74.5431 24.6563 74.8502 24.1983L75.3875 24.5036L74.5431 26.2594C74.3895 26.4884 74.3895 26.7174 74.3895 26.7937C74.3895 26.87 74.3895 26.9464 74.4663 26.9464C74.4663 26.9464 74.5431 26.9464 74.6199 26.9464C74.7734 26.87 75.0037 26.7937 75.1572 26.7174C75.234 26.641 75.3108 26.641 75.3875 26.5647C75.4643 26.5647 75.5411 26.4884 75.6179 26.4884L75.3875 27.1754C74.7734 27.5571 74.3128 27.7861 74.0057 27.7861C73.6218 27.7861 73.4683 27.6334 73.4683 27.3281C73.4683 27.0991 73.6218 26.7174 74.0057 26.183C74.0825 26.0304 74.1592 25.954 74.1592 25.954C74.236 25.8777 74.236 25.8013 74.236 25.8013H74.1592C73.9289 26.0304 73.6218 26.183 73.3915 26.3357C73.1612 26.4884 72.8541 26.5647 72.7006 26.5647C72.5471 26.5647 72.3935 26.4884 72.3168 26.412C72.1632 26.1067 72.1632 25.954 72.1632 25.8013C72.1632 25.6487 72.24 25.496 72.3168 25.3433L73.0844 23.6639ZM75.4643 26.4884L75.234 27.0991L75.6179 26.87C75.6179 27.0991 75.6946 27.2517 75.9249 27.4044C76.1552 27.5571 76.3856 27.6334 76.6159 27.6334C76.9229 27.6334 77.3068 27.5571 77.6906 27.4807C78.0745 27.3281 78.3816 27.2517 78.6119 27.0227L78.8422 26.3357C78.6119 26.4884 78.3048 26.641 77.9977 26.7174C77.6906 26.87 77.3836 26.9464 77.1533 26.9464C76.9229 26.9464 76.7694 26.87 76.6926 26.7937C76.6159 26.7174 76.5391 26.5647 76.6159 26.412C77.6906 26.1067 78.4583 25.8013 78.8422 25.4197C79.3028 25.038 79.4563 24.7326 79.4563 24.351C79.4563 24.1983 79.3796 24.0456 79.226 23.8929C79.0725 23.7403 78.919 23.7403 78.6886 23.7403C78.4583 23.7403 78.1513 23.8166 77.8442 23.8929C77.5371 24.0456 77.23 24.1983 76.9229 24.4273C76.6159 24.6563 76.3856 24.9617 76.1552 25.1907C75.9249 25.496 75.7714 25.8013 75.6946 26.1067L75.4643 26.4884ZM76.7694 25.954C76.9229 25.5723 77.1533 25.267 77.5371 24.9617C77.9209 24.6563 78.1513 24.5036 78.3816 24.5036C78.5351 24.5036 78.5351 24.58 78.5351 24.6563C78.5351 24.809 78.3816 25.038 77.9977 25.3433C77.6139 25.6487 77.23 25.8777 76.7694 25.954ZM82.2968 23.7403L82.911 24.122L82.0665 25.8777C81.913 26.183 81.7594 26.412 81.7594 26.4884V26.5647C81.7594 26.5647 81.7594 26.641 81.8362 26.641C81.913 26.641 82.1433 26.4884 82.4504 26.2594C82.7574 25.954 83.0645 25.6487 83.3716 25.1907C83.6787 24.809 83.9857 24.4273 84.1393 24.0456L84.7534 24.4273L83.8322 26.1067C83.8322 26.183 83.7554 26.2594 83.6787 26.412C83.6019 26.5647 83.6019 26.641 83.6019 26.7174C83.6019 26.87 83.6787 26.87 83.7554 26.87C83.7554 26.87 83.8322 26.87 83.909 26.87C83.9858 26.87 83.9858 26.7937 84.0625 26.7937C84.1393 26.7937 84.2161 26.7174 84.2928 26.7174C84.3696 26.641 84.4464 26.641 84.5231 26.5647C84.5999 26.5647 84.6767 26.4884 84.6767 26.4884L84.4464 27.1754C83.7554 27.5571 83.2948 27.7861 83.0645 27.7861C82.7574 27.7861 82.6039 27.6334 82.6039 27.3281C82.6039 27.0991 82.7574 26.7937 83.0645 26.2594L82.9877 26.183C81.9897 27.1754 81.3756 27.7097 81.0685 27.7861C80.9917 27.7861 80.8382 27.7861 80.7614 27.7097C80.6847 27.6334 80.6079 27.5571 80.6079 27.4044C80.6079 27.1754 80.6847 26.87 80.9917 26.4884C80.9917 26.4884 80.9917 26.412 81.0685 26.412C81.0685 26.412 81.0685 26.3357 81.1453 26.3357C81.1453 26.3357 81.1453 26.2594 81.222 26.2594V26.183L81.1453 26.1067C81.0685 26.183 81.0685 26.183 80.9917 26.2594C80.915 26.3357 80.915 26.3357 80.8382 26.412C80.7614 26.4884 80.6847 26.641 80.6079 26.7174C80.5311 26.7937 80.4543 26.87 80.3776 26.9464C79.8402 27.4807 79.3796 27.7861 78.9957 27.7861C78.8422 27.7861 78.6886 27.7097 78.5351 27.6334C78.3816 27.5571 78.3048 27.4044 78.3048 27.1754C78.3048 27.0227 78.3048 26.87 78.3816 26.7937L79.1493 26.412C79.1493 26.4884 79.1493 26.641 79.1493 26.7174C79.1493 26.7937 79.1493 26.87 79.1493 26.9464C79.1493 27.0227 79.226 27.0227 79.3028 27.0227C79.4563 27.0227 79.6866 26.87 79.917 26.641C80.1473 26.412 80.4543 26.1067 80.7614 25.725C81.0685 25.3433 81.3756 24.9617 81.6059 24.58C81.9897 24.0456 82.22 23.8166 82.2968 23.7403ZM86.3656 23.7403L87.0565 24.122L86.1353 25.8013V25.8777C86.1353 25.8777 86.1353 25.954 86.0585 25.954C86.0585 25.954 86.0585 26.0304 85.9818 26.0304C85.9818 26.0304 85.9818 26.1067 85.905 26.1067C85.905 26.183 85.8282 26.2594 85.7514 26.412C85.7514 26.4884 85.6747 26.5647 85.6747 26.5647V26.641C85.6747 26.7174 85.7515 26.7937 85.8282 26.7937C85.9818 26.7937 86.2121 26.641 86.5959 26.3357C86.9798 26.0304 87.2868 25.6487 87.5172 25.267C87.6707 25.038 87.8242 24.809 88.0545 24.5036C88.0545 24.5036 88.0546 24.4273 88.1313 24.351C88.2081 24.2746 88.2081 24.1983 88.2849 24.1983L88.9758 24.5036C87.6707 26.7937 86.8262 28.6258 86.3656 29.9235L85.5211 29.7708C85.6747 29.1601 85.9818 28.5494 86.3656 27.8624C86.6727 27.4044 86.8262 27.0991 86.903 27.0227C86.9798 26.87 87.1333 26.641 87.2868 26.412H87.2101C86.3656 27.3281 85.6747 27.7097 85.2908 27.7097C84.9838 27.7097 84.8302 27.4807 84.8302 27.1754C84.8302 26.87 84.9838 26.412 85.3676 25.6487C85.6747 24.9617 85.9818 24.2746 86.3656 23.7403ZM93.6587 23.8166L94.3497 24.122L93.582 25.6487H93.6587H93.7355C93.8123 25.6487 93.889 25.6487 93.9658 25.5723C94.0426 25.5723 94.1193 25.5723 94.1961 25.496C94.2729 25.496 94.3497 25.496 94.4264 25.496C94.5032 25.496 94.58 25.496 94.6567 25.496H94.7335H94.8103L95.4244 24.1983L96.1154 24.5036L95.1941 26.3357C95.1941 26.3357 95.1174 26.4884 95.0406 26.641V26.7174V26.7937C95.0406 26.7937 95.0406 26.7937 95.0406 26.87C95.0406 26.87 95.0406 26.87 95.0406 26.9464C95.0406 27.0227 95.1174 27.0991 95.1941 27.0991C95.2709 27.0991 95.4244 27.0227 95.578 26.9464C95.578 26.9464 95.6547 26.9464 95.6547 26.87C95.6547 26.87 95.7315 26.87 95.7315 26.7937C95.7315 26.7937 95.8083 26.7937 95.8083 26.7174C95.8851 26.7174 95.9618 26.641 95.9618 26.641C96.0386 26.641 96.1154 26.5647 96.1921 26.5647L95.9618 27.2517C95.2709 27.6334 94.8103 27.8624 94.5032 27.8624C94.3497 27.8624 94.1961 27.7861 94.0426 27.7097C93.9658 27.6334 93.889 27.4807 93.889 27.3281C93.889 27.1754 93.9658 27.0227 94.0426 26.87C94.1194 26.7174 94.1961 26.5647 94.2729 26.412C94.2729 26.3357 94.2729 26.3357 94.3497 26.2594C94.3497 26.2594 94.4264 26.183 94.4264 26.1067C93.9658 26.183 93.5052 26.2594 93.0446 26.412L92.3537 27.8624L91.5092 27.6334L93.6587 23.8166Z" fill="white"/>
<path fill-rule="evenodd" clip-rule="evenodd" d="M100.338 24.0454L101.029 24.4271L100.184 26.1065C100.031 26.4118 99.9538 26.5645 99.9538 26.7172C99.9538 26.7935 100.031 26.8699 100.107 26.8699C100.184 26.8699 100.338 26.7935 100.645 26.6409C100.952 26.4882 101.105 26.4118 101.182 26.4118L100.952 27.0989C100.414 27.4806 99.9538 27.7096 99.6467 27.7096C99.4932 27.7096 99.3396 27.6332 99.2629 27.5569C99.1861 27.4805 99.1093 27.3279 99.1093 27.1752C99.1093 27.0989 99.1093 26.8699 99.2629 26.6409C99.2629 26.6409 99.2629 26.6409 99.2629 26.5645V26.4882H99.1861C99.1861 26.4882 99.1861 26.4882 99.1093 26.5645C98.8023 26.8699 98.4952 27.1752 98.1881 27.3279C97.881 27.4806 97.5739 27.6332 97.3436 27.6332C97.1133 27.6332 96.9598 27.5569 96.8062 27.4042C96.6527 27.2515 96.5759 27.0225 96.5759 26.6409C96.5759 26.2592 96.7295 25.8775 97.1133 25.4195C97.4204 24.9615 97.8042 24.5798 98.2649 24.2744C98.7255 23.9691 99.1093 23.8164 99.4164 23.8164C99.8003 23.8164 100.031 23.8928 100.261 24.1981L100.338 24.0454ZM100.031 24.6561C99.9538 24.5035 99.8002 24.4271 99.5699 24.4271C99.3396 24.4271 99.0326 24.5798 98.7255 24.8088C98.4184 25.0378 98.1113 25.3431 97.881 25.6485C97.6507 25.9538 97.4972 26.2592 97.4972 26.4882C97.4972 26.7172 97.5739 26.8699 97.8042 26.8699C97.9578 26.8699 98.1113 26.7935 98.4184 26.6409C98.6487 26.4882 98.879 26.2592 99.1093 26.0302C99.3396 25.8012 99.4932 25.6485 99.5699 25.4958L100.031 24.6561ZM104.483 23.7401C104.406 23.8164 104.253 24.1218 103.946 24.5035C103.639 24.8851 103.332 25.2668 103.101 25.6485C102.794 26.0302 102.487 26.3355 102.257 26.5645C102.027 26.7935 101.796 26.9462 101.643 26.9462C101.566 26.9462 101.489 26.9462 101.489 26.8699C101.489 26.7935 101.489 26.7172 101.489 26.6409C101.489 26.4882 101.489 26.4118 101.489 26.3355L100.721 26.7172C100.645 26.8699 100.645 26.9462 100.645 27.0989C100.645 27.3279 100.721 27.4805 100.875 27.5569C101.029 27.6332 101.182 27.7096 101.336 27.7096C101.719 27.7096 102.18 27.4042 102.718 26.8699C102.794 26.7935 102.871 26.7172 102.948 26.6409C103.025 26.5645 103.101 26.4882 103.178 26.3355C103.255 26.2592 103.255 26.2592 103.332 26.1828C103.408 26.1065 103.408 26.1065 103.485 26.0302L103.562 26.1065V26.1828C103.562 26.1828 103.562 26.2592 103.485 26.2592C103.485 26.2592 103.485 26.3355 103.408 26.3355C103.408 26.3355 103.408 26.4118 103.332 26.4118C103.101 26.7935 102.948 27.1752 102.948 27.3279C102.948 27.4806 103.025 27.5569 103.101 27.6332C103.178 27.7096 103.255 27.7096 103.408 27.7096C103.716 27.7096 104.33 27.1752 105.328 26.1065L105.404 26.1828C105.097 26.6409 104.944 27.0225 104.944 27.2515C104.944 27.5569 105.097 27.7096 105.404 27.7096C105.635 27.7096 106.095 27.4806 106.786 27.0989L107.017 26.4118C106.94 26.4118 106.94 26.4882 106.863 26.4882C106.786 26.4882 106.71 26.5645 106.633 26.6409C106.556 26.7172 106.402 26.7172 106.402 26.7172C106.326 26.7172 106.326 26.7935 106.249 26.7935C106.172 26.7935 106.095 26.7935 106.095 26.7935C106.019 26.7935 105.942 26.7172 105.942 26.6409C105.942 26.6409 105.942 26.4882 106.019 26.3355C106.095 26.1828 106.172 26.1065 106.172 26.0302L107.093 24.3508L106.479 23.9691C106.249 24.2744 106.019 24.6561 105.712 25.1141C105.404 25.4958 105.097 25.8775 104.79 26.1828C104.483 26.4882 104.33 26.5645 104.176 26.5645C104.176 26.5645 104.099 26.5645 104.099 26.4882V26.4118C104.099 26.3355 104.176 26.1065 104.406 25.8012L105.251 24.0454L104.483 23.7401ZM112.083 23.8164L112.698 24.1218L111.853 25.7248L111.93 25.8012C111.93 25.7248 112.007 25.7248 112.007 25.7248L112.083 25.6485C112.083 25.6485 112.16 25.5722 112.16 25.4958C112.544 25.0378 112.928 24.7325 113.158 24.5035C113.465 24.2744 113.619 24.1981 113.849 24.1981C113.926 24.1981 114.079 24.1981 114.156 24.2744C114.233 24.3508 114.31 24.4271 114.386 24.5035C114.463 24.5798 114.463 24.7325 114.386 24.8088C114.386 24.8851 114.31 25.1141 114.079 25.4958C114.003 25.5722 114.003 25.7248 113.926 25.8012C113.849 25.9538 113.772 26.0302 113.772 26.1065C113.619 26.4118 113.542 26.5645 113.542 26.6409C113.542 26.7172 113.619 26.7935 113.696 26.7935C113.696 26.7935 113.772 26.7935 113.926 26.7172C114.003 26.7172 114.079 26.6409 114.156 26.6409C114.463 26.4882 114.617 26.4118 114.694 26.4118L114.463 27.0989C114.233 27.2515 113.926 27.4042 113.696 27.4806C113.465 27.6332 113.235 27.6332 113.158 27.6332C112.851 27.6332 112.621 27.4806 112.621 27.0989C112.621 26.8699 112.774 26.5645 113.005 26.1065C113.081 25.9538 113.158 25.8012 113.235 25.6485C113.388 25.4195 113.388 25.2668 113.388 25.2668C113.388 25.1905 113.312 25.1905 113.235 25.1905C113.081 25.1905 113.005 25.2668 112.774 25.4958C112.544 25.7248 112.39 25.8775 112.314 25.9538C112.083 26.1828 111.93 26.4118 111.776 26.5645C111.7 26.6409 111.623 26.7935 111.316 27.0989C111.239 27.1752 111.162 27.2515 111.085 27.4042C111.009 27.5569 110.855 27.6332 110.702 27.7859L110.087 27.5569L112.083 23.8164ZM117.841 23.6638L117.995 24.1981C117.534 24.3508 117.15 24.5798 116.843 24.8851C116.459 25.1905 116.229 25.4958 116.075 25.8775C115.922 26.1828 115.845 26.4882 115.922 26.7172C115.999 26.9462 116.075 27.0989 116.306 27.0989C116.459 27.0989 116.69 27.0225 116.92 26.7935C117.15 26.5645 117.304 26.2592 117.457 25.9538C117.611 25.5722 117.611 25.1905 117.611 24.7325L118.532 24.5035C118.609 25.0378 118.532 25.5722 118.302 26.1065C118.071 26.6409 117.764 27.0225 117.304 27.3279C116.843 27.6332 116.459 27.7859 115.999 27.7859C115.308 27.7859 114.924 27.4042 114.924 26.7172C114.924 26.1065 115.231 25.5722 115.768 24.9615C116.306 24.3508 116.997 23.9691 117.841 23.6638ZM123.599 23.8164L124.213 24.1218L123.369 25.7248L123.445 25.8012C123.445 25.7248 123.522 25.7248 123.522 25.7248L123.599 25.6485C123.599 25.6485 123.676 25.5722 123.676 25.4958C124.059 25.0378 124.443 24.7325 124.674 24.5035C124.981 24.2744 125.134 24.1981 125.365 24.1981C125.441 24.1981 125.595 24.1981 125.672 24.2744C125.748 24.3508 125.825 24.4271 125.902 24.5035C125.979 24.5798 125.979 24.7325 125.902 24.8088C125.902 24.8851 125.825 25.1141 125.595 25.4958C125.518 25.5722 125.518 25.7248 125.441 25.8012C125.365 25.9538 125.288 26.0302 125.288 26.1065C125.134 26.4118 125.057 26.5645 125.057 26.6409C125.057 26.7172 125.134 26.7935 125.211 26.7935C125.211 26.7935 125.288 26.7935 125.441 26.7172C125.518 26.7172 125.595 26.6409 125.672 26.6409C125.979 26.4882 126.132 26.4118 126.209 26.4118L125.979 27.0989C125.748 27.2515 125.441 27.4042 125.211 27.4806C124.981 27.6332 124.75 27.6332 124.674 27.6332C124.367 27.6332 124.136 27.4806 124.136 27.0989C124.136 26.8699 124.29 26.5645 124.52 26.1065C124.597 25.9538 124.674 25.8012 124.75 25.6485C124.904 25.4195 124.904 25.2668 124.904 25.2668C124.904 25.1905 124.827 25.1905 124.75 25.1905C124.597 25.1905 124.52 25.2668 124.29 25.4958C124.059 25.7248 123.906 25.8775 123.829 25.9538C123.599 26.1828 123.445 26.4118 123.292 26.5645C123.215 26.6409 123.138 26.7935 122.831 27.0989C122.754 27.1752 122.678 27.2515 122.601 27.4042C122.524 27.5569 122.371 27.6332 122.217 27.7859L121.603 27.5569L123.599 23.8164ZM127.898 23.7401L128.589 24.1218L127.668 25.8012V25.8775C127.668 25.8775 127.668 25.9538 127.591 25.9538C127.591 25.9538 127.591 26.0302 127.514 26.0302C127.514 26.0302 127.514 26.1065 127.437 26.1065C127.437 26.1828 127.361 26.2592 127.284 26.4118C127.284 26.4882 127.207 26.5645 127.207 26.5645V26.6409C127.207 26.7172 127.284 26.7935 127.361 26.7935C127.514 26.7935 127.744 26.6409 128.128 26.3355C128.512 26.0302 128.819 25.6485 129.05 25.2668C129.203 25.0378 129.357 24.8088 129.587 24.5035C129.587 24.5035 129.587 24.4271 129.664 24.3508C129.74 24.2744 129.74 24.1981 129.817 24.1981L130.508 24.5035C129.203 26.7935 128.359 28.6256 127.898 29.9233L127.053 29.7706C127.207 29.1599 127.514 28.5493 127.898 27.8622C128.205 27.4042 128.359 27.0989 128.435 27.0225C128.512 26.8699 128.666 26.6409 128.819 26.4118H128.742C127.898 27.3279 127.207 27.7096 126.823 27.7096C126.516 27.7096 126.363 27.4805 126.363 27.1752C126.363 26.8699 126.516 26.4118 126.9 25.6485C127.207 24.9615 127.591 24.2744 127.898 23.7401ZM131.736 23.8164L129.817 27.5569L130.585 27.7859C130.662 27.7096 130.738 27.5569 130.969 27.2515C131.122 27.0225 131.353 26.7172 131.583 26.4882C131.736 26.3355 131.89 26.1065 132.197 25.8775C132.351 25.7248 132.504 25.5722 132.581 25.4958C132.734 25.4195 132.811 25.3431 132.811 25.3431C132.888 25.3431 132.888 25.4195 132.811 25.4958L131.736 27.5569L132.427 27.7859C132.734 27.3279 133.118 26.8699 133.579 26.4118C134.04 25.9538 134.347 25.7248 134.5 25.7248C134.577 25.7248 134.577 25.7248 134.577 25.8012C134.577 25.8012 134.577 25.8775 134.5 26.0302L134.423 26.1065L134.347 26.1828C134.116 26.5645 133.963 26.8699 133.886 27.0989C133.886 27.2515 133.886 27.4042 133.963 27.5569C134.04 27.6332 134.193 27.7096 134.347 27.7096C134.5 27.7096 134.654 27.7096 134.884 27.6332C135.038 27.5569 135.268 27.4806 135.421 27.3279C135.652 27.2515 135.805 27.0989 135.959 27.0989L136.189 26.4118C136.112 26.4882 135.959 26.4882 135.882 26.5645C135.805 26.5645 135.728 26.6409 135.652 26.6409C135.421 26.7172 135.191 26.7935 135.038 26.8699H134.961C134.884 26.8699 134.884 26.8699 134.884 26.7935C134.884 26.7935 134.961 26.6409 135.038 26.4882C135.114 26.4118 135.114 26.3355 135.191 26.2592C135.268 26.1828 135.268 26.1065 135.345 26.0302C135.575 25.5722 135.728 25.2668 135.728 25.1141C135.728 24.8851 135.575 24.7325 135.345 24.7325C135.268 24.7325 135.038 24.8088 134.807 24.8851C134.577 25.0378 134.116 25.3431 133.579 25.8775L133.502 25.8012L133.579 25.7248C133.579 25.7248 133.579 25.7248 133.579 25.6485C133.656 25.5722 133.732 25.4958 133.732 25.3431C133.886 25.1141 133.963 24.9615 134.04 24.8851C134.116 24.7325 134.116 24.6561 134.116 24.5798C134.116 24.4271 134.04 24.3508 133.963 24.2744C133.886 24.1981 133.732 24.1218 133.579 24.1218C133.425 24.1218 133.195 24.1981 132.965 24.3508C132.811 24.4271 132.581 24.6561 132.274 24.9615C132.274 24.9615 132.197 25.0378 132.044 25.1905C131.89 25.3431 131.736 25.4195 131.66 25.5722L131.583 25.4958L132.351 24.0454L131.736 23.8164ZM132.888 23.6638C134.193 22.9004 135.498 22.4424 136.957 22.4424L136.573 23.3584C136.419 23.2821 136.189 23.2821 135.882 23.2821C135.038 23.2821 134.193 23.5874 133.272 24.1218L132.888 23.6638ZM139.951 24.1981C139.644 24.7325 139.106 25.3431 138.415 25.9538C138.339 26.0302 138.262 26.1065 138.185 26.1828C138.108 26.2592 138.032 26.3355 138.032 26.3355C137.878 26.4118 137.801 26.5645 137.724 26.5645C137.648 26.6409 137.571 26.6409 137.494 26.6409C137.417 26.6409 137.417 26.5645 137.417 26.5645V26.4882C137.417 26.4118 137.417 26.3355 137.494 26.2592L138.646 24.1218L137.955 23.7401C137.264 24.9615 136.88 25.8012 136.65 26.2592C136.419 26.7172 136.343 27.0225 136.343 27.1752C136.343 27.4805 136.496 27.6332 136.726 27.6332C137.11 27.6332 137.724 27.2515 138.569 26.4118C138.646 26.3355 138.799 26.1828 138.953 26.1065C138.953 26.1065 138.953 26.0302 139.03 26.0302C138.876 26.2592 138.722 26.4118 138.646 26.6409C138.569 26.7935 138.492 26.9462 138.492 27.0989C138.492 27.1752 138.492 27.1752 138.492 27.2515C138.492 27.4806 138.646 27.6332 138.953 27.6332C139.183 27.6332 139.644 27.4042 140.411 27.0225L140.642 26.3355C140.488 26.4118 140.335 26.4882 140.258 26.4882C140.258 26.4882 140.104 26.5645 139.951 26.6409C139.797 26.7172 139.72 26.7172 139.644 26.7172C139.567 26.7172 139.49 26.6409 139.49 26.5645C139.49 26.5645 139.49 26.4882 139.567 26.3355L140.642 24.3508L139.951 24.1981ZM142.024 26.7935H142.331C142.561 26.7935 142.638 26.8699 142.638 27.0225C142.638 27.1752 142.561 27.3279 142.407 27.5569C142.254 27.7096 142.1 27.7859 141.87 27.7859C141.64 27.7859 141.563 27.7096 141.563 27.5569C141.563 27.4042 141.64 27.2515 141.716 27.0989C141.793 26.8699 141.947 26.7935 142.024 26.7935ZM145.478 26.7935H145.785C146.016 26.7935 146.092 26.8699 146.092 27.0225C146.092 27.1752 146.016 27.3279 145.862 27.5569C145.709 27.7096 145.555 27.7859 145.325 27.7859C145.094 27.7859 145.018 27.7096 145.018 27.5569C145.018 27.4042 145.094 27.2515 145.171 27.0989C145.248 26.8699 145.401 26.7935 145.478 26.7935ZM148.933 26.7935H149.24C149.47 26.7935 149.547 26.8699 149.547 27.0225C149.547 27.1752 149.47 27.3279 149.317 27.5569C149.163 27.7096 149.01 27.7859 148.779 27.7859C148.549 27.7859 148.472 27.7096 148.472 27.5569C148.472 27.4042 148.549 27.2515 148.626 27.0989C148.703 26.8699 148.856 26.7935 148.933 26.7935Z" fill="white"/>
</svg>
