<svg width="39" height="47" viewBox="0 0 39 47" fill="none" xmlns="http://www.w3.org/2000/svg">
<path fill-rule="evenodd" clip-rule="evenodd" d="M6.72026 15.796V46.9725H0.138562L0 20.9921L6.72026 15.796Z" fill="white"/>
<path fill-rule="evenodd" clip-rule="evenodd" d="M11.7768 43.3006L7.41211 46.6261V15.796L11.7075 19.1215L11.7768 43.3006Z" fill="white"/>
<path d="M19.0523 7.4823V46.9725H12.4706V43.647V43.2313V42.8156L12.4013 19.6065V19.1908V18.7751L12.332 12.6784L19.0523 7.4823Z" fill="white"/>
<path d="M23.6932 43.647L19.7441 46.6261V7.41302L23.5546 10.3921L23.6932 43.647Z" fill="white"/>
<path d="M30.9683 0V46.9725H24.3866V43.9934V43.1621L24.248 10.8771V10.4614V10.0457V5.19608L30.9683 0Z" fill="white"/>
<path d="M38.3824 5.19607L38.3131 41.6379L31.6621 46.6261V0L38.3824 5.19607Z" fill="white"/>
</svg>
