<svg width="156" height="15" viewBox="0 0 156 15" fill="none" xmlns="http://www.w3.org/2000/svg">
<path fill-rule="evenodd" clip-rule="evenodd" d="M13.8498 14.1356C13.9199 14.3536 13.8498 14.499 13.6397 14.499H11.959C11.7489 14.499 11.6088 14.3536 11.5388 14.1356L10.8385 11.4465H4.18545L2.71478 14.1356C2.57472 14.3536 2.36462 14.499 2.15453 14.499H0.543799C0.263672 14.499 0.19364 14.3536 0.333704 14.1356L7.54697 0.83566C7.68704 0.617628 7.8271 0.472273 8.10723 0.472273H9.85802C10.0681 0.472273 10.2082 0.617628 10.2782 0.83566L13.8498 14.1356ZM4.9558 10.0657H10.2782L8.52742 3.45205L4.9558 10.0657ZM29.0467 5.41433C28.9767 5.99575 28.7666 6.50449 28.4865 6.7952C28.2063 7.08591 27.7862 7.37662 27.2259 7.4493C27.7161 7.59465 28.0663 7.81268 28.2764 8.10339C28.4865 8.3941 28.5565 8.90284 28.4865 9.48426L28.1363 11.8826C27.9262 13.5542 26.9458 14.4263 25.335 14.4263H16.371C16.0908 14.4263 16.0208 14.281 16.0909 14.0629L17.9117 0.762984C17.9117 0.544952 18.0517 0.399597 18.3319 0.399597H27.2959C28.9067 0.399597 29.607 1.27172 29.3969 2.9433L29.0467 5.41433ZM25.6852 11.8826L26.0354 9.48426C26.1754 8.68481 25.8253 8.24874 25.0549 8.24874H19.3123L18.682 13.1181H24.4246C25.1249 13.0454 25.5451 12.6821 25.6852 11.8826ZM26.5256 5.55968L26.8757 3.16134C26.9458 2.36189 26.5956 1.92582 25.8953 1.92582H20.1527L19.5224 6.7952H25.265C25.9653 6.7952 26.4556 6.35913 26.5256 5.55968ZM45.2241 0.472273C45.4342 0.472273 45.5742 0.617628 45.5042 0.83566L43.6834 14.1356C43.6133 14.3536 43.5433 14.499 43.2632 14.499H41.5824C41.3023 14.499 41.2323 14.3536 41.3023 14.1356L42.773 3.16134L38.0108 9.62961C37.9408 9.70229 37.8707 9.77497 37.8007 9.77497C37.7307 9.77497 37.6606 9.70229 37.5906 9.62961L34.5792 3.16134L33.1086 14.1356C33.0385 14.3536 32.9685 14.499 32.6884 14.499H30.9376C30.6575 14.499 30.5874 14.3536 30.6575 14.1356L32.4783 0.83566C32.4783 0.617628 32.6183 0.472273 32.8985 0.472273H34.5792C34.7893 0.472273 34.9994 0.617628 35.1395 0.83566L38.1509 7.30394L42.913 0.83566C43.0531 0.617628 43.2632 0.472273 43.5433 0.472273H45.2241ZM65.2532 14.1356C65.3232 14.3536 65.2532 14.499 65.0431 14.499H63.2923C63.0822 14.499 62.9421 14.3536 62.8721 14.1356L60.0008 3.37936L54.1881 14.1356C54.0481 14.3536 53.838 14.499 53.6279 14.499H51.9471C51.667 14.499 51.597 14.3536 51.737 14.1356L58.9503 0.83566C59.0904 0.617628 59.2304 0.472273 59.5105 0.472273H61.2613C61.4714 0.472273 61.6115 0.617628 61.6815 0.83566L65.2532 14.1356ZM76.2481 4.32417C77.5787 4.32417 78.139 4.97827 77.9289 6.35914L77.0885 12.3913C76.8784 13.7722 76.1081 14.4263 74.8475 14.4263H69.0349C67.7043 14.4263 67.144 13.7722 67.3541 12.3913L68.1945 6.35914C68.4046 4.97827 69.1749 4.32417 70.4355 4.32417H76.2481ZM74.7074 12.3187L75.4778 6.50449C75.5478 5.99575 75.3377 5.77772 74.8475 5.77772H71.3459C70.9257 5.77772 70.6456 5.99575 70.5756 6.50449L69.8052 12.3187C69.7352 12.8274 69.9453 13.0454 70.4355 13.0454H73.9371C74.3573 13.0454 74.5674 12.8274 74.7074 12.3187ZM88.2936 4.32417C88.5037 4.32417 88.6438 4.46953 88.5737 4.68756L88.5037 5.41433C88.4337 5.63236 88.2936 5.77772 88.0835 5.77772H82.9712L81.8507 14.1356C81.7806 14.3536 81.7106 14.499 81.4305 14.499H79.6797C79.3996 14.499 79.3295 14.3536 79.3996 14.1356L80.6601 4.68756C80.6601 4.46953 80.8002 4.32417 81.0803 4.32417H88.2936ZM99.4286 4.32417C99.6387 4.32417 99.7788 4.46953 99.7088 4.68756L98.4482 14.1356C98.3782 14.3536 98.3081 14.499 98.028 14.499H96.2772C95.9971 14.499 95.9271 14.3536 95.9971 14.1356L96.9775 7.01323L91.5851 14.1356C91.375 14.3536 91.1649 14.499 90.9548 14.499H89.204C88.9239 14.499 88.8539 14.3536 88.9239 14.1356L90.1844 4.68756C90.1844 4.46953 90.3245 4.32417 90.6046 4.32417H92.3554C92.5655 4.32417 92.7056 4.46953 92.6356 4.68756L91.6551 11.8099L97.0476 4.68756C97.2577 4.46953 97.4678 4.32417 97.6779 4.32417H99.4286ZM109.233 13.0454C109.443 13.0454 109.583 13.1908 109.513 13.4088L109.443 14.1356C109.373 14.3536 109.303 14.499 109.023 14.499H102.93C101.6 14.499 101.039 13.8449 101.249 12.464L102.09 6.43181C102.3 5.05094 103.07 4.39685 104.331 4.39685H110.144C110.354 4.39685 110.494 4.5422 110.424 4.76023L110.354 5.48701C110.284 5.70504 110.144 5.85039 109.933 5.85039H105.311C104.891 5.85039 104.611 6.06842 104.541 6.57716L103.771 12.3913C103.701 12.9001 103.911 13.1181 104.401 13.1181H109.233V13.0454ZM120.298 4.32417C120.508 4.32417 120.648 4.46953 120.578 4.68756L120.508 5.41433C120.438 5.63236 120.298 5.77772 120.088 5.77772H117.007L115.886 14.1356C115.816 14.3536 115.746 14.499 115.466 14.499H113.715C113.435 14.499 113.365 14.3536 113.435 14.1356L114.556 5.77772H111.474C111.264 5.77772 111.124 5.63236 111.194 5.41433L111.264 4.68756C111.264 4.46953 111.404 4.32417 111.684 4.32417H120.298ZM131.433 4.32417C131.643 4.32417 131.783 4.46953 131.713 4.68756L130.453 14.1356C130.383 14.3536 130.313 14.499 130.033 14.499H128.282C128.002 14.499 127.932 14.3536 128.002 14.1356L128.982 7.01323L123.59 14.1356C123.38 14.3536 123.169 14.499 122.959 14.499H121.209C120.928 14.499 120.858 14.3536 120.928 14.1356L122.189 4.68756C122.189 4.46953 122.329 4.32417 122.609 4.32417H124.36C124.57 4.32417 124.71 4.46953 124.64 4.68756L123.66 11.8099L129.052 4.68756C129.262 4.46953 129.472 4.32417 129.682 4.32417H131.433ZM140.047 9.41158L142.988 14.1356C143.128 14.3536 143.058 14.499 142.848 14.499H140.747C140.467 14.499 140.327 14.3536 140.187 14.1356L137.736 10.1384H136.265L135.705 14.1356C135.635 14.3536 135.565 14.499 135.285 14.499H133.534C133.254 14.499 133.184 14.3536 133.254 14.1356L134.515 4.68756C134.515 4.46953 134.655 4.32417 134.935 4.32417H136.686C136.896 4.32417 137.036 4.46953 136.966 4.68756L136.405 8.68481H137.876L141.448 4.68756C141.658 4.46953 141.868 4.32417 142.078 4.32417H144.179C144.389 4.32417 144.389 4.46953 144.249 4.68756L140.047 9.41158ZM153.633 4.32417C154.964 4.32417 155.524 4.97827 155.314 6.35914L154.474 12.3913C154.264 13.7722 153.493 14.4263 152.233 14.4263H146.42C145.089 14.4263 144.529 13.7722 144.739 12.3913L144.879 11.4465C144.949 10.7924 145.229 10.2837 145.58 9.84764C145.93 9.48426 146.49 9.26622 147.19 9.12087L152.723 8.17607L152.933 6.43181C153.003 5.92307 152.793 5.70504 152.303 5.70504H146.91C146.7 5.70504 146.56 5.55969 146.63 5.34165L146.7 4.61488C146.7 4.39685 146.84 4.25149 147.12 4.25149H153.633V4.32417ZM152.093 12.3187L152.443 9.70229L148.171 10.4291C147.681 10.5017 147.4 10.7924 147.33 11.3012L147.19 12.246C147.12 12.7547 147.33 12.9728 147.821 12.9728H151.322C151.742 13.0454 152.023 12.8274 152.093 12.3187Z" fill="white"/>
</svg>
