<svg width="39" height="47" viewBox="0 0 39 47" fill="none" xmlns="http://www.w3.org/2000/svg">
<path fill-rule="evenodd" clip-rule="evenodd" d="M6.72026 15.7961V46.9726H0.138562L0 20.9922L6.72026 15.7961Z" fill="white"/>
<path fill-rule="evenodd" clip-rule="evenodd" d="M11.7778 43.3007L7.41309 46.6262V15.7961L11.7085 19.1216L11.7778 43.3007Z" fill="white"/>
<path d="M19.0523 7.48218V46.9724H12.4706V43.6469V43.2312V42.8155L12.4013 19.6064V19.1907V18.775L12.332 12.6783L19.0523 7.48218Z" fill="white"/>
<path d="M23.6941 43.647L19.7451 46.6261V7.41309L23.5556 10.3922L23.6941 43.647Z" fill="white"/>
<path d="M30.9685 0V46.9725H24.3869V43.9934V43.1621L24.2483 10.8771V10.4614V10.0457V5.19608L30.9685 0Z" fill="white"/>
<path d="M38.3816 5.19607L38.3124 41.6379L31.6614 46.6261V0L38.3816 5.19607Z" fill="white"/>
</svg>
