<svg width="34" height="42" viewBox="0 0 34 42" fill="none" xmlns="http://www.w3.org/2000/svg">
<path fill-rule="evenodd" clip-rule="evenodd" d="M0.318359 18.9119L6.62234 14.0592V41.4974H0.409066L0.318359 18.9119Z" fill="url(#paint0_linear)"/>
<path d="M6.89356 41.7696H0.136055L0 18.7759L6.89356 13.4697V41.7696ZM0.725638 41.2253H6.34934V14.6488L0.589579 19.048L0.725638 41.2253Z" fill="white"/>
<path fill-rule="evenodd" clip-rule="evenodd" d="M12.927 18.9119L6.62305 14.0592V41.4974H6.6684L12.8363 36.7808L12.927 18.9119Z" fill="url(#paint1_linear)"/>
<path d="M6.75821 41.7696H6.30469V13.4697L13.1983 18.7759L13.1075 36.9169L6.75821 41.7696ZM6.89427 14.6488V40.9986L12.5633 36.6901L12.654 19.0934L6.89427 14.6488Z" fill="white"/>
<path fill-rule="evenodd" clip-rule="evenodd" d="M10.8398 11.837L17.1438 6.93893V20.8621V34.3771V41.4975H10.9305L10.8398 11.837Z" fill="url(#paint2_linear)"/>
<path d="M17.4151 41.7696H10.6122L10.5215 11.7009L17.4151 6.39471V41.7696ZM11.2018 41.2254H16.8708V7.52852L11.1111 11.9731L11.2018 41.2254Z" fill="white"/>
<path fill-rule="evenodd" clip-rule="evenodd" d="M23.4466 11.7916L17.1426 6.89355V14.0592V34.3318V41.4974H17.1879L23.3559 36.7808L23.4466 11.7916Z" fill="url(#paint3_linear)"/>
<path d="M17.3246 41.7696H16.8711V6.30402L23.7647 11.6102L23.674 36.9169L17.3246 41.7696ZM17.4153 7.48318V40.9533L23.0844 36.6448L23.1751 11.9277L17.4153 7.48318Z" fill="white"/>
<path fill-rule="evenodd" clip-rule="evenodd" d="M21 5.44228L27.304 0.589569V15.4198V28.0278V41.4974H21.0907L21 5.44228Z" fill="url(#paint4_linear)"/>
<path d="M27.5752 41.7696H20.8177L20.6816 5.30623L27.5752 0V41.7696ZM21.3619 41.2253H27.031V1.13381L21.2712 5.57835L21.3619 41.2253Z" fill="white"/>
<path fill-rule="evenodd" clip-rule="evenodd" d="M33.6067 5.44228L27.3027 0.589569V14.0592V28.0278V41.4974H27.3481L33.516 36.7808L33.6067 5.44228Z" fill="url(#paint5_linear)"/>
<path d="M27.4379 41.7696H26.9844V0L33.8779 5.30623L33.7872 36.9169L27.4379 41.7696ZM27.574 1.13381V40.9532L33.243 36.6447L33.3337 5.57835L27.574 1.13381Z" fill="white"/>
<path fill-rule="evenodd" clip-rule="evenodd" d="M0.318359 18.9119L6.62234 14.0592V41.4974H0.409066L0.318359 18.9119Z" fill="url(#paint6_radial)"/>
<path d="M6.89356 41.7696H0.136055L0 18.7759L6.89356 13.4697V41.7696ZM0.725638 41.2253H6.34934V14.6488L0.589579 19.048L0.725638 41.2253Z" fill="white"/>
<path fill-rule="evenodd" clip-rule="evenodd" d="M12.927 18.9119L6.62305 14.0592V41.4974H6.6684L12.8363 36.7808L12.927 18.9119Z" fill="url(#paint7_radial)"/>
<path d="M6.75821 41.7696H6.30469V13.4697L13.1983 18.7759L13.1075 36.9169L6.75821 41.7696ZM6.89427 14.6488V40.9986L12.5633 36.6901L12.654 19.0934L6.89427 14.6488Z" fill="white"/>
<path fill-rule="evenodd" clip-rule="evenodd" d="M10.8398 11.837L17.1438 6.93893V20.8621V34.3771V41.4975H10.9305L10.8398 11.837Z" fill="url(#paint8_radial)"/>
<path d="M17.4151 41.7696H10.6122L10.5215 11.7009L17.4151 6.39471V41.7696ZM11.2018 41.2254H16.8708V7.52852L11.1111 11.9731L11.2018 41.2254Z" fill="white"/>
<path fill-rule="evenodd" clip-rule="evenodd" d="M23.4466 11.7916L17.1426 6.89355V14.0592V34.3318V41.4974H17.1879L23.3559 36.7808L23.4466 11.7916Z" fill="url(#paint9_radial)"/>
<path d="M17.3246 41.7696H16.8711V6.30402L23.7647 11.6102L23.674 36.9169L17.3246 41.7696ZM17.4153 7.48318V40.9533L23.0844 36.6448L23.1751 11.9277L17.4153 7.48318Z" fill="white"/>
<path fill-rule="evenodd" clip-rule="evenodd" d="M21 5.44228L27.304 0.589569V15.4198V28.0278V41.4974H21.0907L21 5.44228Z" fill="url(#paint10_radial)"/>
<path d="M27.5752 41.7696H20.8177L20.6816 5.30623L27.5752 0V41.7696ZM21.3619 41.2253H27.031V1.13381L21.2712 5.57835L21.3619 41.2253Z" fill="white"/>
<path fill-rule="evenodd" clip-rule="evenodd" d="M33.6067 5.44228L27.3027 0.589569V14.0592V28.0278V41.4974H27.3481L33.516 36.7808L33.6067 5.44228Z" fill="url(#paint11_radial)"/>
<path d="M27.4379 41.7696H26.9844V0L33.8779 5.30623L33.7872 36.9169L27.4379 41.7696ZM27.574 1.13381V40.9532L33.243 36.6447L33.3337 5.57835L27.574 1.13381Z" fill="white"/>
<defs>
<linearGradient id="paint0_linear" x1="-1.60281" y1="29.7121" x2="7.77883" y2="27.4986" gradientUnits="userSpaceOnUse">
<stop stop-color="#82CEE6"/>
<stop offset="1" stop-color="#0097AE"/>
</linearGradient>
<linearGradient id="paint1_linear" x1="4.21225" y1="28.3473" x2="12.8316" y2="26.3136" gradientUnits="userSpaceOnUse">
<stop stop-color="#82CEE6"/>
<stop offset="1" stop-color="#0097AE"/>
</linearGradient>
<linearGradient id="paint2_linear" x1="8.74302" y1="25.7976" x2="18.3277" y2="24.0011" gradientUnits="userSpaceOnUse">
<stop stop-color="#82CEE6"/>
<stop offset="1" stop-color="#0097AE"/>
</linearGradient>
<linearGradient id="paint3_linear" x1="14.7046" y1="24.657" x2="23.6755" y2="22.9782" gradientUnits="userSpaceOnUse">
<stop stop-color="#82CEE6"/>
<stop offset="1" stop-color="#0097AE"/>
</linearGradient>
<linearGradient id="paint4_linear" x1="18.8294" y1="22.3735" x2="28.4948" y2="20.8442" gradientUnits="userSpaceOnUse">
<stop stop-color="#82CEE6"/>
<stop offset="1" stop-color="#0097AE"/>
</linearGradient>
<linearGradient id="paint5_linear" x1="24.8414" y1="21.4268" x2="34.0071" y2="19.9765" gradientUnits="userSpaceOnUse">
<stop stop-color="#82CEE6"/>
<stop offset="1" stop-color="#0097AE"/>
</linearGradient>
<radialGradient id="paint6_radial" cx="0" cy="0" r="1" gradientUnits="userSpaceOnUse" gradientTransform="translate(5.48391 23.6561) scale(13.0572)">
<stop stop-color="#5BBECF"/>
<stop offset="1" stop-color="#0097AE"/>
</radialGradient>
<radialGradient id="paint7_radial" cx="0" cy="0" r="1" gradientUnits="userSpaceOnUse" gradientTransform="translate(9.4017 39.8443) scale(13.057)">
<stop stop-color="#5BBECF"/>
<stop offset="1" stop-color="#0097AE"/>
</radialGradient>
<radialGradient id="paint8_radial" cx="0" cy="0" r="1" gradientUnits="userSpaceOnUse" gradientTransform="translate(16.0132 19.0411) scale(16.3904)">
<stop stop-color="#5BBECF"/>
<stop offset="1" stop-color="#0097AE"/>
</radialGradient>
<radialGradient id="paint9_radial" cx="0" cy="0" r="1" gradientUnits="userSpaceOnUse" gradientTransform="translate(19.9291 39.4149) scale(16.4168)">
<stop stop-color="#5BBECF"/>
<stop offset="1" stop-color="#0097AE"/>
</radialGradient>
<radialGradient id="paint10_radial" cx="0" cy="0" r="1" gradientUnits="userSpaceOnUse" gradientTransform="translate(26.166 14.8954) scale(19.3912)">
<stop stop-color="#5BBECF"/>
<stop offset="1" stop-color="#0097AE"/>
</radialGradient>
<radialGradient id="paint11_radial" cx="0" cy="0" r="1" gradientUnits="userSpaceOnUse" gradientTransform="translate(30.0818 39.0356) scale(19.3912)">
<stop stop-color="#5BBECF"/>
<stop offset="1" stop-color="#0097AE"/>
</radialGradient>
</defs>
</svg>
