<svg width="154" height="15" viewBox="0 0 154 15" fill="none" xmlns="http://www.w3.org/2000/svg">
<path fill-rule="evenodd" clip-rule="evenodd" d="M14.3216 14.4317C14.3904 14.646 14.3216 14.7889 14.1151 14.7889H12.4629C12.2564 14.7889 12.1187 14.646 12.0499 14.4317L11.3615 11.7884H4.82179L3.37617 14.4317C3.23849 14.646 3.03197 14.7889 2.82545 14.7889H1.24215C0.966797 14.7889 0.897958 14.646 1.03564 14.4317L8.12607 1.35826C8.26375 1.14394 8.40142 1.00106 8.67678 1.00106H10.3978C10.6043 1.00106 10.742 1.14394 10.8108 1.35826L14.3216 14.4317ZM5.57902 10.4311H10.8108L9.08982 3.93009L5.57902 10.4311ZM29.2597 5.85896C29.1908 6.43048 28.9843 6.93055 28.709 7.21631C28.4336 7.50207 28.0206 7.78783 27.4699 7.85927C27.9517 8.00215 28.2959 8.21646 28.5025 8.50222C28.709 8.78798 28.7778 9.28806 28.709 9.85958L28.3648 12.2171C28.1583 13.8602 27.1945 14.7175 25.6112 14.7175H16.7998C16.5244 14.7175 16.4556 14.5746 16.5244 14.3603L18.3143 1.28682C18.3143 1.07251 18.4519 0.929626 18.7273 0.929626H27.5387C29.122 0.929626 29.8104 1.7869 29.6039 3.43001L29.2597 5.85896ZM25.9554 12.2171L26.2996 9.85958C26.4373 9.07374 26.0931 8.64511 25.3359 8.64511H19.691L19.0715 13.4316H24.7163C25.4047 13.3601 25.8177 13.0029 25.9554 12.2171ZM26.7815 6.00184L27.1257 3.64433C27.1945 2.8585 26.8503 2.42986 26.1619 2.42986H20.5171L19.8976 7.21631H25.5424C26.2308 7.21631 26.7126 6.78767 26.7815 6.00184ZM45.1615 1.00106C45.368 1.00106 45.5057 1.14394 45.4369 1.35826L43.6471 14.4317C43.5782 14.646 43.5094 14.7889 43.234 14.7889H41.5819C41.3065 14.7889 41.2377 14.646 41.3065 14.4317L42.7522 3.64433L38.0711 10.0025C38.0023 10.0739 37.9334 10.1453 37.8646 10.1453C37.7957 10.1453 37.7269 10.0739 37.6581 10.0025L34.698 3.64433L33.2524 14.4317C33.1835 14.646 33.1147 14.7889 32.8393 14.7889H31.1183C30.843 14.7889 30.7742 14.646 30.843 14.4317L32.6328 1.35826C32.6328 1.14394 32.7705 1.00106 33.0458 1.00106H34.698C34.9045 1.00106 35.111 1.14394 35.2487 1.35826L38.2088 7.71639L42.8898 1.35826C43.0275 1.14394 43.234 1.00106 43.5094 1.00106H45.1615ZM64.8495 14.4317C64.9184 14.646 64.8495 14.7889 64.643 14.7889H62.922C62.7155 14.7889 62.5778 14.646 62.509 14.4317L59.6866 3.85865L53.9729 14.4317C53.8353 14.646 53.6287 14.7889 53.4222 14.7889H51.7701C51.4947 14.7889 51.4259 14.646 51.5636 14.4317L58.654 1.35826C58.7917 1.14394 58.9294 1.00106 59.2047 1.00106H60.9257C61.1322 1.00106 61.2699 1.14394 61.3387 1.35826L64.8495 14.4317ZM75.6573 4.78737C76.9652 4.78737 77.5159 5.43032 77.3094 6.78768L76.4833 12.7172C76.2768 14.0745 75.5196 14.7175 74.2805 14.7175H68.5668C67.2589 14.7175 66.7082 14.0745 66.9147 12.7172L67.7408 6.78768C67.9473 5.43032 68.7045 4.78737 69.9436 4.78737H75.6573ZM74.1428 12.6457L74.9 6.93055C74.9689 6.43048 74.7624 6.21616 74.2805 6.21616H70.8385C70.4255 6.21616 70.1501 6.43048 70.0813 6.93055L69.3241 12.6457C69.2552 13.1458 69.4617 13.3601 69.9436 13.3601H73.3856C73.7986 13.3601 74.0051 13.1458 74.1428 12.6457ZM87.4976 4.78737C87.7041 4.78737 87.8418 4.93024 87.773 5.14456L87.7041 5.85896C87.6353 6.07328 87.4976 6.21616 87.2911 6.21616H82.2658L81.1644 14.4317C81.0956 14.646 81.0267 14.7889 80.7514 14.7889H79.0304C78.755 14.7889 78.6862 14.646 78.755 14.4317L79.9941 5.14456C79.9941 4.93024 80.1318 4.78737 80.4072 4.78737H87.4976ZM98.443 4.78737C98.6496 4.78737 98.7872 4.93024 98.7184 5.14456L97.4793 14.4317C97.4104 14.646 97.3416 14.7889 97.0663 14.7889H95.3453C95.0699 14.7889 95.0011 14.646 95.0699 14.4317L96.0337 7.43063L90.733 14.4317C90.5265 14.646 90.32 14.7889 90.1135 14.7889H88.3925C88.1172 14.7889 88.0483 14.646 88.1172 14.4317L89.3563 5.14456C89.3563 4.93024 89.4939 4.78737 89.7693 4.78737H91.4903C91.6968 4.78737 91.8345 4.93024 91.7656 5.14456L90.8019 12.1456L96.1025 5.14456C96.309 4.93024 96.5155 4.78737 96.7221 4.78737H98.443ZM108.081 13.3601C108.287 13.3601 108.425 13.503 108.356 13.7173L108.287 14.4317C108.218 14.646 108.149 14.7889 107.874 14.7889H101.885C100.577 14.7889 100.026 14.146 100.233 12.7886L101.059 6.85912C101.265 5.50176 102.023 4.8588 103.262 4.8588H108.975C109.182 4.8588 109.32 5.00168 109.251 5.216L109.182 5.9304C109.113 6.14472 108.975 6.2876 108.769 6.2876H104.226C103.812 6.2876 103.537 6.50192 103.468 7.00199L102.711 12.7172C102.642 13.2172 102.849 13.4316 103.331 13.4316H108.081V13.3601ZM118.957 4.78737C119.164 4.78737 119.301 4.93024 119.232 5.14456L119.164 5.85896C119.095 6.07328 118.957 6.21616 118.751 6.21616H115.722L114.62 14.4317C114.551 14.646 114.483 14.7889 114.207 14.7889H112.486C112.211 14.7889 112.142 14.646 112.211 14.4317L113.312 6.21616H110.283C110.077 6.21616 109.939 6.07328 110.008 5.85896L110.077 5.14456C110.077 4.93024 110.215 4.78737 110.49 4.78737H118.957ZM129.903 4.78737C130.109 4.78737 130.247 4.93024 130.178 5.14456L128.939 14.4317C128.87 14.646 128.801 14.7889 128.526 14.7889H126.805C126.529 14.7889 126.461 14.646 126.529 14.4317L127.493 7.43063L122.193 14.4317C121.986 14.646 121.78 14.7889 121.573 14.7889H119.852C119.577 14.7889 119.508 14.646 119.577 14.4317L120.816 5.14456C120.816 4.93024 120.953 4.78737 121.229 4.78737H122.95C123.156 4.78737 123.294 4.93024 123.225 5.14456L122.261 12.1456L127.562 5.14456C127.769 4.93024 127.975 4.78737 128.182 4.78737H129.903ZM138.37 9.78814L141.261 14.4317C141.399 14.646 141.33 14.7889 141.123 14.7889H139.058C138.783 14.7889 138.645 14.646 138.507 14.4317L136.098 10.5025H134.652L134.102 14.4317C134.033 14.646 133.964 14.7889 133.689 14.7889H131.968C131.692 14.7889 131.624 14.646 131.692 14.4317L132.931 5.14456C132.931 4.93024 133.069 4.78737 133.344 4.78737H135.065C135.272 4.78737 135.41 4.93024 135.341 5.14456L134.79 9.07374H136.236L139.747 5.14456C139.953 4.93024 140.16 4.78737 140.366 4.78737H142.431C142.638 4.78737 142.638 4.93024 142.5 5.14456L138.37 9.78814ZM151.725 4.78737C153.032 4.78737 153.583 5.43032 153.377 6.78768L152.551 12.7172C152.344 14.0745 151.587 14.7175 150.348 14.7175H144.634C143.326 14.7175 142.775 14.0745 142.982 12.7172L143.12 11.7884C143.188 11.1455 143.464 10.6454 143.808 10.2168C144.152 9.85958 144.703 9.64526 145.391 9.50238L150.83 8.57367L151.036 6.85912C151.105 6.35904 150.898 6.14472 150.417 6.14472H145.116C144.909 6.14472 144.772 6.00184 144.841 5.78752L144.909 5.07313C144.909 4.85881 145.047 4.71593 145.322 4.71593H151.725V4.78737ZM150.21 12.6457L150.554 10.0739L146.355 10.7883C145.873 10.8597 145.598 11.1455 145.529 11.6456L145.391 12.5743C145.322 13.0744 145.529 13.2887 146.011 13.2887H149.453C149.866 13.3601 150.141 13.1458 150.21 12.6457Z" fill="#4E5B74"/>
</svg>
