<svg width="201" height="40" viewBox="0 0 201 40" fill="none" xmlns="http://www.w3.org/2000/svg">
<path fill-rule="evenodd" clip-rule="evenodd" d="M20.1 20.9C20.2 21.2 20.1 21.4 19.8 21.4H17.3C17 21.4 16.7 21.2 16.6 20.9L15.5 17.1H5.8L3.7 20.9C3.5 21.2 3.2 21.4 2.9 21.4H0.4C0 21.4 -0.1 21.2 0.1 20.9L10.7 1.9C10.9 1.6 11.1 1.4 11.5 1.4H14.1C14.4 1.4 14.6 1.6 14.8 1.9L20.1 20.9ZM7 15H14.9L12.3 5.5L7 15ZM41.5 1.4C41.8 1.4 41.9 1.6 41.7 1.9L31.1 20.9C30.9 21.2 30.6 21.4 30.3 21.4H27.7C27.3 21.4 27.1 21.2 27 20.9L21.7 1.9C21.6 1.6 21.7 1.4 22.1 1.4H24.6C24.9 1.4 25.2 1.6 25.3 1.9L29.6 17.2L38.2 1.9C38.4 1.6 38.6 1.4 39 1.4H41.5ZM63.8 1.4C64.1 1.4 64.3 1.6 64.3 1.9L61.6 20.9C61.5 21.2 61.4 21.4 61 21.4H58.4C58 21.4 57.9 21.2 57.9 20.9L60.1 5.3L53.1 14.5C53 14.7 52.9 14.7 52.8 14.7C52.7 14.7 52.6 14.6 52.5 14.5L48.1 5.3L45.9 20.9C45.8 21.2 45.7 21.4 45.3 21.4H42.7C42.3 21.4 42.2 21.2 42.2 20.9L44.9 1.9C44.9 1.6 45.1 1.4 45.5 1.4H48.1C48.4 1.4 48.7 1.6 48.9 1.9L53.3 11.1L60.3 1.9C60.5 1.6 60.8 1.4 61.2 1.4H63.8ZM89.4 19.3C89.7 19.3 89.9 19.5 89.8 19.8L89.7 20.8C89.6 21.1 89.5 21.3 89.1 21.3H75.3C74.9 21.3 74.8 21.1 74.8 20.8L77.5 1.8C77.5 1.5 77.7 1.3 78.1 1.3H80.7C81 1.3 81.2 1.5 81.2 1.8L78.8 19.2H89.4V19.3ZM105.5 6.9C107.5 6.9 108.3 7.9 108 9.8L106.8 18.4C106.5 20.4 105.4 21.3 103.5 21.3H94.9C92.9 21.3 92.1 20.3 92.4 18.4L93.6 9.8C93.9 7.8 95 6.9 96.9 6.9H105.5ZM103.2 18.3L104.4 10C104.5 9.3 104.2 9 103.5 9H98.3C97.6 9 97.2 9.3 97.1 10L96 18.3C95.9 19 96.2 19.3 96.9 19.3H102.1C102.7 19.3 103.1 19 103.2 18.3ZM123.3 6.9C125.3 6.9 126.1 7.9 125.8 9.8L123.8 24C123.5 26 122.4 26.9 120.5 26.9H112.9C112.5 26.9 112.4 26.7 112.4 26.4L112.5 25.4C112.6 25.1 112.8 24.9 113.1 24.9H119C119.7 24.9 120.1 24.6 120.2 23.9L120.5 21.5H112.7C110.7 21.5 109.9 20.5 110.2 18.6L111.4 10C111.7 8 112.8 7.1 114.7 7.1H123.3V6.9ZM120.9 19.3L122.2 10C122.3 9.3 122 9 121.3 9H116.3C115.6 9 115.2 9.3 115.1 10L113.9 18.3C113.8 19 114.1 19.3 114.8 19.3H120.9ZM133.2 6.9C133.5 6.9 133.7 7.1 133.7 7.4L131.8 20.9C131.7 21.2 131.6 21.4 131.2 21.4H128.6C128.2 21.4 128.1 21.2 128.1 20.9L130 7.4C130 7.1 130.2 6.9 130.6 6.9H133.2ZM134.2 0C134.5 0 134.7 0.2 134.7 0.5L134.2 4C134.1 4.3 133.9 4.5 133.6 4.5H131C130.7 4.5 130.5 4.3 130.6 4L131.1 0.5C131.1 0.2 131.3 0 131.7 0H134.2ZM147.5 13.8C149.4 14.1 150.3 15.2 150 17.1L149.8 18.5C149.5 20.5 148.4 21.4 146.5 21.4H135.8C135.4 21.4 135.3 21.2 135.3 20.9L135.4 19.9C135.5 19.6 135.7 19.4 136 19.4H145C145.7 19.4 146.1 19.1 146.2 18.4L146.4 17C146.5 16.3 146.2 15.8 145.6 15.7L138.8 14.5C136.9 14.2 136.1 13.1 136.3 11.2L136.5 9.8C136.8 7.8 137.9 6.9 139.8 6.9H149.5C149.8 6.9 150 7.1 150 7.4L149.9 8.4C149.8 8.7 149.6 8.9 149.3 8.9H141.4C140.7 8.9 140.3 9.2 140.2 9.9L140 11.3C139.9 12 140.2 12.5 140.9 12.6L147.5 13.8ZM160.9 21.4H155.4C153.4 21.4 152.6 20.4 152.9 18.5L154.8 4.7C154.9 4.4 155.1 4.2 155.4 4.2H158C158.3 4.2 158.5 4.4 158.4 4.7L158 6.9H162.1C162.4 6.9 162.6 7.1 162.6 7.4L162.5 8.4C162.4 8.7 162.2 8.9 161.9 8.9H157.8L156.5 18.2C156.4 18.9 156.7 19.2 157.4 19.2H161.2C161.5 19.2 161.7 19.4 161.6 19.7L161.5 20.7C161.4 21.2 161.2 21.4 160.9 21.4ZM169.1 6.9C169.4 6.9 169.6 7.1 169.6 7.4L167.7 20.9C167.6 21.2 167.5 21.4 167.1 21.4H164.5C164.1 21.4 164 21.2 164 20.9L165.9 7.4C165.9 7.1 166.1 6.9 166.5 6.9H169.1ZM170.1 0C170.4 0 170.6 0.2 170.6 0.5L170 4C169.9 4.3 169.7 4.5 169.4 4.5H166.8C166.5 4.5 166.3 4.3 166.4 4L166.9 0.5C166.9 0.2 167.1 0 167.5 0H170.1ZM183.5 19.3C183.8 19.3 184 19.5 183.9 19.8L183.8 20.8C183.7 21.1 183.6 21.3 183.2 21.3H174.2C172.2 21.3 171.4 20.3 171.7 18.4L172.9 9.8C173.2 7.8 174.3 6.9 176.2 6.9H184.8C185.1 6.9 185.3 7.1 185.3 7.4L185.2 8.4C185.2 8.8 185 9 184.6 9H177.7C177 9 176.6 9.3 176.5 10L175.3 18.3C175.2 19 175.5 19.3 176.2 19.3H183.5ZM198.1 13.8C200 14.1 200.9 15.2 200.6 17.1L200.4 18.5C200.1 20.5 199 21.4 197.1 21.4H186.4C186 21.4 185.9 21.2 185.9 20.9L186 19.9C186.1 19.6 186.3 19.4 186.6 19.4H195.6C196.3 19.4 196.7 19.1 196.8 18.4L197 17C197.1 16.3 196.8 15.8 196.2 15.7L189.4 14.5C187.5 14.2 186.7 13.1 186.9 11.2L187.1 9.8C187.4 7.8 188.5 6.9 190.4 6.9H200.1C200.4 6.9 200.6 7.1 200.6 7.4L200.5 8.4C200.4 8.7 200.2 8.9 199.9 8.9H192C191.3 8.9 190.9 9.2 190.8 9.9L190.6 11.3C190.5 12 190.8 12.5 191.5 12.6L198.1 13.8Z" fill="#363D4A"/>
<path fill-rule="evenodd" clip-rule="evenodd" d="M12.7008 29.7C12.4008 30 12.2008 30.4 11.9008 30.7C11.7008 31.1 11.4008 31.5 11.2008 31.9C10.6008 33 10.2008 33.6 10.1008 33.9C9.70078 34.5 9.40078 34.9 9.10078 35.1C9.10078 35.1 9.00078 35.1 9.00078 35.2C9.00078 35.3 9.10078 35.3 9.40078 35.4C9.60078 35.5 9.90078 35.5 10.1008 35.5C10.7008 35.5 11.3008 35.3 11.9008 34.7C12.5008 34.2 13.0008 33.6 13.4008 32.8C13.8008 32 14.0008 31.3 14.1008 30.7C14.1008 29.9 13.9008 29.3 13.5008 28.9C13.0008 28.5 12.5008 28.3 12.0008 28.3C11.2008 28.3 10.4008 28.9 9.60078 30.2L8.60078 29.5C9.10078 28.9 9.60078 28.4 10.2008 28C10.7008 27.6 11.4008 27.5 12.1008 27.5C12.5008 27.5 12.9008 27.6 13.3008 27.7C13.7008 27.8 14.1008 28.1 14.4008 28.4C14.7008 28.7 15.0008 29.1 15.1008 29.5C15.3008 29.9 15.3008 30.4 15.3008 30.9C15.3008 31.6 15.2008 32.2 14.9008 32.9C14.6008 33.6 14.3008 34.2 13.8008 34.7C13.3008 35.2 12.8008 35.7 12.2008 36C11.6008 36.3 11.0008 36.5 10.4008 36.5C10.0008 36.5 9.70078 36.4 9.60078 36.4C9.50078 36.4 9.40078 36.3 9.30078 36.3C9.20078 36.3 9.10078 36.2 9.00078 36.2C8.90078 36.2 8.80078 36.1 8.70078 36.1C8.60078 36.1 8.50078 36 8.40078 36C8.00078 36.3 7.50078 36.5 7.00078 36.5C6.60078 36.5 6.40078 36.5 6.30078 36.3L6.20078 35.8C6.10078 35.6 6.30078 35.4 6.80078 35.2C7.20078 35 7.70078 34.9 8.10078 34.9C8.30078 34.9 8.40078 34.9 8.40078 34.9H8.50078C8.60078 34.9 8.80078 34.7 9.10078 34.3C9.40078 33.9 9.60078 33.6 9.70078 33.4C9.90078 33.1 10.0008 32.8 10.1008 32.6C10.2008 32.4 10.3008 32.2 10.4008 32C10.9008 31 11.6008 30.1 12.3008 29.4L12.7008 29.7ZM14.7008 34.7L14.4008 35.5L14.9008 35.2C14.9008 35.5 15.0008 35.7 15.3008 35.9C15.6008 36.1 15.9008 36.2 16.2008 36.2C16.6008 36.2 17.1008 36.1 17.6008 36C18.1008 35.8 18.5008 35.7 18.8008 35.4L19.1008 34.5C18.8008 34.7 18.4008 34.9 18.0008 35C17.6008 35.2 17.2008 35.3 16.9008 35.3C16.6008 35.3 16.4008 35.2 16.3008 35.1C16.2008 35 16.1008 34.8 16.2008 34.6C17.6008 34.2 18.6008 33.8 19.1008 33.3C19.7008 32.8 19.9008 32.4 19.9008 31.9C19.9008 31.7 19.8008 31.5 19.6008 31.3C19.4008 31.1 19.2008 31.1 18.9008 31.1C18.6008 31.1 18.2008 31.2 17.8008 31.3C17.4008 31.5 17.0008 31.7 16.6008 32C16.2008 32.3 15.9008 32.7 15.6008 33C15.3008 33.4 15.1008 33.8 15.0008 34.2L14.7008 34.7ZM16.4008 34C16.6008 33.5 16.9008 33.1 17.4008 32.7C17.8008 32.3 18.2008 32.1 18.5008 32.1C18.7008 32.1 18.7008 32.2 18.7008 32.3C18.7008 32.5 18.5008 32.8 18.0008 33.2C17.5008 33.6 17.0008 33.9 16.4008 34ZM23.4008 31.1L24.3008 31.5L23.5008 33.2C23.4008 33.3 23.4008 33.5 23.3008 33.6C23.2008 33.7 23.2008 33.9 23.1008 34C23.0008 34.2 22.9008 34.4 22.9008 34.5C22.9008 34.6 22.9008 34.7 22.9008 34.8C22.9008 35 23.0008 35.1 23.1008 35.1C23.3008 35.1 23.7008 35 24.3008 34.6L24.0008 35.5C23.2008 36 22.6008 36.3 22.4008 36.3C22.2008 36.3 22.1008 36.2 21.9008 36.1C21.8008 36 21.7008 35.8 21.7008 35.6C21.7008 35.3 21.8008 34.9 22.1008 34.4C22.1008 34.4 22.2008 34.3 22.2008 34.2C22.2008 34.2 22.2008 34.1 22.3008 34L22.2008 33.9C22.2008 33.9 22.2008 33.9 22.1008 34C22.1008 34 22.1008 34 22.0008 34.1C21.9008 34.2 21.9008 34.3 21.8008 34.4C21.3008 35 20.9008 35.5 20.5008 35.8C20.1008 36.1 19.7008 36.3 19.3008 36.3C18.7008 36.3 18.4008 36 18.4008 35.5C18.4008 35.3 18.4008 35.1 18.5008 35L19.5008 34.5C19.5008 34.6 19.5008 34.8 19.5008 34.9C19.5008 35 19.5008 35.1 19.5008 35.2C19.5008 35.3 19.6008 35.3 19.7008 35.3C20.1008 35.3 20.6008 34.8 21.4008 33.8C22.3008 32.8 22.9008 31.9 23.4008 31.1ZM29.5008 31.5L30.4008 32L29.3008 34.2C29.1008 34.6 29.0008 34.8 29.0008 35C29.0008 35.1 29.1008 35.2 29.2008 35.2C29.3008 35.2 29.5008 35.1 29.9008 34.9C30.3008 34.7 30.5008 34.6 30.6008 34.6L30.3008 35.5C29.6008 36 29.0008 36.3 28.6008 36.3C28.4008 36.3 28.2008 36.2 28.1008 36.1C28.0008 36 27.9008 35.8 27.9008 35.6C27.9008 35.5 27.9008 35.2 28.1008 34.9C28.1008 34.9 28.1008 34.9 28.1008 34.8V34.7H28.0008C28.0008 34.7 28.0008 34.7 27.9008 34.8C27.5008 35.2 27.1008 35.6 26.7008 35.8C26.3008 36 25.9008 36.2 25.6008 36.2C25.3008 36.2 25.1008 36.1 24.9008 35.9C24.7008 35.7 24.6008 35.4 24.6008 34.9C24.6008 34.4 24.8008 33.9 25.3008 33.3C25.7008 32.7 26.2008 32.2 26.8008 31.8C27.4008 31.4 27.9008 31.2 28.3008 31.2C28.8008 31.2 29.1008 31.3 29.4008 31.7L29.5008 31.5ZM29.0008 32.3C28.9008 32.1 28.7008 32 28.4008 32C28.1008 32 27.7008 32.2 27.3008 32.5C26.9008 32.8 26.5008 33.2 26.2008 33.6C25.9008 34 25.7008 34.4 25.7008 34.7C25.7008 35 25.8008 35.2 26.1008 35.2C26.3008 35.2 26.5008 35.1 26.9008 34.9C27.2008 34.7 27.5008 34.4 27.8008 34.1C28.1008 33.8 28.3008 33.6 28.4008 33.4L29.0008 32.3ZM40.4008 31.6L41.3008 32.1C40.3008 33.9 39.5008 35.5 38.8008 36.8C38.2008 38.1 37.8008 39 37.6008 39.4L36.4008 39C36.8008 38.2 37.1008 37.6 37.4008 37.1C37.7008 36.6 38.0008 36.1 38.3008 35.6C38.4008 35.5 38.4008 35.4 38.5008 35.3C38.5008 35.3 38.5008 35.3 38.5008 35.2V35.1C38.5008 35.1 38.5008 35 38.6008 35C38.6008 35 38.5008 35 38.5008 35.1L38.4008 35.2L38.3008 35.3C37.5008 36 36.8008 36.4 36.2008 36.4C35.9008 36.4 35.7008 36.3 35.5008 36.2C35.3008 36 35.2008 35.8 35.1008 35.4C35.1008 34.9 35.3008 34.3 35.7008 33.7C36.1008 33.1 36.7008 32.6 37.4008 32.1C38.1008 31.7 38.7008 31.5 39.2008 31.5C39.6008 31.5 39.9008 31.7 40.2008 32L40.4008 31.6ZM39.9008 32.4C39.8008 32.2 39.6008 32.1 39.4008 32.1C39.1008 32.1 38.8008 32.3 38.3008 32.6C37.8008 32.9 37.4008 33.3 37.1008 33.7C36.8008 34.1 36.6008 34.5 36.6008 34.9C36.6008 35.1 36.7008 35.3 36.9008 35.3C37.1008 35.3 37.4008 35.2 37.8008 35C38.2008 34.8 38.5008 34.4 38.9008 34C39.3008 33.5 39.6008 33 39.9008 32.4ZM44.7008 31C43.6008 31.4 42.7008 31.9 42.0008 32.7C41.3008 33.4 40.9008 34.2 40.9008 35C40.9008 35.9 41.4008 36.4 42.3008 36.4C42.9008 36.4 43.4008 36.2 44.0008 35.8C44.6008 35.4 45.0008 34.9 45.3008 34.2C45.6008 33.5 45.7008 32.8 45.6008 32.1L44.4008 32.4C44.5008 33 44.4008 33.5 44.2008 34C44.0008 34.5 43.8008 34.9 43.5008 35.1C43.2008 35.4 42.9008 35.5 42.7008 35.5C42.4008 35.5 42.2008 35.3 42.2008 35C42.1008 34.7 42.2008 34.3 42.4008 33.9C42.6008 33.5 43.0008 33 43.4008 32.6C43.9008 32.2 44.4008 31.9 44.9008 31.7L44.7008 31ZM47.8008 31.2L48.6008 31.7L47.2008 34.2L47.3008 34.1L47.4008 34C47.5008 33.9 47.6008 33.8 47.7008 33.8C47.8008 33.7 47.8008 33.6 47.9008 33.6C48.3008 33.2 48.7008 32.8 49.2008 32.4C49.7008 32 50.2008 31.6 50.9008 31.2L51.4008 32C50.9008 32.2 50.3008 32.5 49.8008 32.9C49.3008 33.2 48.8008 33.6 48.5008 33.9V34C48.6008 34 48.7008 34 48.8008 34C49.1008 34 49.2008 34.2 49.1008 34.5C49.1008 34.6 49.0008 34.7 48.9008 34.9C48.9008 35 48.8008 35.1 48.8008 35.2V35.3C48.8008 35.4 48.9008 35.5 49.0008 35.6C49.2008 35.6 49.5008 35.5 49.8008 35.3C50.2008 35.1 50.5008 34.9 50.8008 34.6L50.5008 35.5C49.7008 36.2 49.0008 36.5 48.3008 36.5C47.8008 36.5 47.6008 36.2 47.6008 35.7C47.6008 35.5 47.6008 35.3 47.7008 35.1C47.7008 35.1 47.7008 35 47.8008 35C47.8008 35 47.8008 34.9 47.9008 34.9V34.8C47.9008 34.7 47.9008 34.7 47.8008 34.7C47.7008 34.7 47.4008 34.9 47.0008 35.3C46.6008 35.7 46.3008 36.1 46.0008 36.4L45.1008 36.2L47.8008 31.2ZM56.2008 31.5L56.0008 31.8C55.7008 31.5 55.4008 31.3 54.9008 31.3C54.5008 31.3 53.9008 31.5 53.4008 31.9C52.8008 32.3 52.3008 32.8 51.9008 33.4C51.5008 34 51.3008 34.5 51.2008 35C51.2008 35.4 51.3008 35.8 51.5008 36C51.7008 36.2 52.0008 36.3 52.2008 36.3C52.5008 36.3 52.9008 36.2 53.3008 35.9C53.7008 35.7 54.1008 35.3 54.5008 34.9C54.6008 34.8 54.6008 34.8 54.6008 34.8H54.7008V34.9C54.7008 34.9 54.7008 34.9 54.7008 35C54.5008 35.3 54.5008 35.6 54.5008 35.7C54.5008 35.9 54.6008 36.1 54.7008 36.2C54.8008 36.3 55.0008 36.4 55.2008 36.4C55.6008 36.4 56.2008 36.1 56.9008 35.6L57.2008 34.7C57.1008 34.8 56.9008 34.9 56.5008 35C56.1008 35.2 55.9008 35.3 55.8008 35.3C55.7008 35.3 55.6008 35.2 55.6008 35.1C55.6008 35 55.7008 34.7 55.9008 34.3L57.0008 32.1L56.2008 31.5ZM55.8008 32.3L55.2008 33.5C55.1008 33.7 54.9008 33.9 54.6008 34.2C54.3008 34.5 54.0008 34.7 53.7008 35C53.4008 35.3 53.1008 35.3 52.9008 35.3C52.6008 35.3 52.5008 35.1 52.5008 34.8C52.5008 34.5 52.7008 34.1 53.0008 33.7C53.3008 33.3 53.7008 32.9 54.1008 32.6C54.5008 32.3 54.9008 32.1 55.2008 32.1C55.4008 32 55.6008 32.1 55.8008 32.3ZM58.8008 31.8C59.2008 31.5 59.6008 31.3 59.9008 31.2C60.2008 31.1 60.4008 31.1 60.5008 31.1C61.1008 31.1 61.4008 31.4 61.3008 32C61.3008 32.4 61.1008 32.9 60.7008 33.4C60.7008 33.4 60.6008 33.5 60.6008 33.6C60.6008 33.6 60.6008 33.7 60.5008 33.7C60.5008 33.7 60.5008 33.8 60.4008 33.8H60.5008C60.8008 33.5 61.2008 33.2 61.7008 32.7C62.1008 32.2 62.5008 31.8 62.8008 31.4L63.4008 31.8L62.7008 33.1C62.5008 33.5 62.4008 33.7 62.4008 33.8H62.5008C62.6008 33.7 62.8008 33.6 63.1008 33.3C63.4008 33.1 63.7008 32.8 63.9008 32.7C64.1008 32.5 64.4008 32.3 64.7008 32.1C65.0008 31.9 65.4008 31.7 65.7008 31.5L66.1008 32.2C65.2008 32.7 64.6008 33.1 64.3008 33.6C64.0008 34 63.8008 34.4 63.8008 34.7C63.8008 35 63.9008 35.2 64.1008 35.2C64.2008 35.2 64.8008 35 65.8008 34.4L65.5008 35.3C64.7008 35.8 64.0008 36.1 63.6008 36.1C63.2008 36.1 63.0008 36 62.9008 35.8C62.8008 35.6 62.8008 35.4 62.8008 35.2C62.8008 34.8 62.9008 34.5 63.1008 34.2C63.1008 34.2 63.1008 34.2 63.1008 34.1C63.1008 34.1 63.1008 34.1 63.1008 34C63.1008 34 63.1008 34 63.1008 33.9C62.7008 34.2 62.3008 34.6 62.0008 35C61.7008 35.4 61.4008 35.8 61.2008 36.2L60.5008 35.9L61.7008 33.6H61.6008C61.5008 33.7 61.4008 33.8 61.4008 33.8C61.3008 33.9 61.2008 34 61.0008 34.2C59.6008 35.5 58.6008 36.2 57.9008 36.2C57.6008 36.2 57.4008 36.1 57.2008 35.9C57.0008 35.7 56.9008 35.4 56.9008 35.1C56.9008 34.9 56.9008 34.7 57.0008 34.6L58.0008 34.2C57.9008 34.4 57.9008 34.6 57.8008 34.8C57.8008 35 57.8008 35.1 57.9008 35.2C58.0008 35.3 58.1008 35.3 58.2008 35.3C58.4008 35.3 58.7008 35.1 59.1008 34.7C59.4008 34.3 59.8008 33.8 60.0008 33.3C60.3008 32.8 60.4008 32.4 60.4008 32.2C60.4008 32 60.3008 31.9 60.1008 31.9C60.0008 31.9 59.7008 32 59.2008 32.3L58.8008 31.8ZM67.8008 31.1C67.4008 31.9 66.9008 32.7 66.4008 33.6C65.9008 34.5 65.7008 35.2 65.7008 35.6C65.7008 36.1 65.9008 36.3 66.3008 36.3C66.8008 36.4 67.6008 35.8 68.8008 34.6H68.9008C68.7008 34.9 68.6008 35.1 68.4008 35.4C68.3008 35.5 68.1008 35.9 67.7008 36.5C67.2008 37.4 66.9008 38.2 66.6008 39L67.7008 39.2C68.3008 37.5 69.5008 35.1 71.1008 32.1L70.2008 31.7C70.2008 31.8 70.1008 31.9 70.0008 31.9C70.0008 32 70.0008 32.1 70.0008 32.1C69.8008 32.5 69.5008 32.8 69.3008 33.1C68.9008 33.6 68.5008 34 68.1008 34.5C67.6008 34.9 67.3008 35.1 67.1008 35.1C67.0008 35.1 66.9008 35 66.9008 34.9V34.8C66.9008 34.7 66.9008 34.7 67.0008 34.6C67.1008 34.4 67.1008 34.3 67.2008 34.2C67.2008 34.2 67.2008 34.1 67.3008 34.1C67.3008 34.1 67.3008 34 67.4008 34C67.4008 34 67.4008 33.9 67.5008 33.9V33.8L68.7008 31.6L67.8008 31.1ZM72.7008 31.2L73.6008 31.7L72.6008 33.6L72.7008 33.7C72.9008 33.5 73.1008 33.4 73.2008 33.2C73.4008 33 73.5008 32.9 73.5008 32.9C73.9008 32.5 74.2008 32.2 74.4008 32.1C74.7008 31.9 74.9008 31.8 75.2008 31.8C75.4008 31.8 75.5008 31.9 75.7008 32C75.8008 32.1 75.9008 32.2 75.9008 32.4C75.9008 32.5 75.9008 32.7 75.8008 32.8C75.8008 32.9 75.6008 33.1 75.4008 33.4C75.3008 33.5 75.2008 33.7 75.2008 33.8V33.9C75.2008 33.9 75.2008 33.9 75.1008 34L75.2008 34.1C75.9008 33.4 76.4008 33 76.8008 32.8C77.1008 32.6 77.4008 32.5 77.5008 32.6C77.8008 32.6 78.0008 32.8 78.0008 33.1C78.0008 33.4 77.8008 33.8 77.5008 34.3C77.5008 34.4 77.4008 34.4 77.3008 34.6C77.2008 34.7 77.2008 34.8 77.1008 34.9C77.0008 35.1 76.9008 35.3 76.9008 35.3C76.9008 35.4 76.9008 35.4 77.0008 35.4C77.0008 35.4 77.0008 35.4 77.1008 35.4C77.3008 35.4 77.5008 35.3 77.9008 35.1C78.0008 35.1 78.1008 35 78.2008 35C78.3008 35 78.4008 34.9 78.6008 34.8L78.3008 35.7C78.1008 35.8 77.9008 35.9 77.6008 36C77.3008 36.2 77.1008 36.3 76.9008 36.4C76.6008 36.5 76.4008 36.5 76.2008 36.5C76.0008 36.5 75.8008 36.4 75.7008 36.3C75.6008 36.2 75.6008 36 75.6008 35.7C75.7008 35.5 75.9008 35.1 76.2008 34.5L76.3008 34.4L76.4008 34.3C76.5008 34.1 76.5008 34 76.5008 34C76.5008 33.9 76.5008 33.9 76.4008 33.9C76.2008 33.9 75.8008 34.2 75.2008 34.8C74.6008 35.4 74.1008 36 73.7008 36.6L72.8008 36.3L74.2008 33.6C74.2008 33.5 74.2008 33.4 74.2008 33.4C74.2008 33.4 74.0008 33.5 73.9008 33.6C73.7008 33.7 73.6008 33.9 73.4008 34.1C73.0008 34.5 72.8008 34.7 72.6008 34.9C72.3008 35.2 72.1008 35.5 71.8008 35.9C71.6008 36.2 71.4008 36.5 71.3008 36.6L70.3008 36.3L72.7008 31.2ZM74.2008 31L74.6008 31.6C75.8008 30.9 76.9008 30.5 78.0008 30.5C78.4008 30.5 78.7008 30.5 78.9008 30.6L79.4008 29.4C77.7008 29.4 75.9008 30 74.2008 31ZM85.3008 31.2L86.1008 31.6L85.0008 33.7L85.1008 33.8C85.1008 33.7 85.2008 33.7 85.2008 33.7L85.3008 33.6C85.3008 33.6 85.4008 33.5 85.4008 33.4C85.9008 32.8 86.4008 32.4 86.7008 32.1C87.1008 31.8 87.3008 31.7 87.6008 31.7C87.7008 31.7 87.9008 31.7 88.0008 31.8C88.1008 31.9 88.2008 32 88.3008 32.1C88.4008 32.2 88.4008 32.4 88.3008 32.5C88.3008 32.6 88.2008 32.9 87.9008 33.4C87.8008 33.5 87.8008 33.7 87.7008 33.8C87.6008 34 87.5008 34.1 87.5008 34.2C87.3008 34.6 87.2008 34.8 87.2008 34.9C87.2008 35 87.3008 35.1 87.4008 35.1C87.4008 35.1 87.5008 35.1 87.7008 35C87.8008 35 87.9008 34.9 88.0008 34.9C88.4008 34.7 88.6008 34.6 88.7008 34.6L88.4008 35.5C88.1008 35.7 87.7008 35.9 87.4008 36C87.1008 36.2 86.8008 36.2 86.7008 36.2C86.3008 36.2 86.0008 36 86.0008 35.5C86.0008 35.2 86.2008 34.8 86.5008 34.2C86.6008 34 86.7008 33.8 86.8008 33.6C87.0008 33.3 87.0008 33.1 87.0008 33.1C87.0008 33 86.9008 33 86.8008 33C86.6008 33 86.5008 33.1 86.2008 33.4C85.9008 33.7 85.7008 33.9 85.6008 34C85.3008 34.3 85.1008 34.6 84.9008 34.8C84.8008 34.9 84.7008 35.1 84.3008 35.5C84.2008 35.6 84.1008 35.7 84.0008 35.9C83.9008 36.1 83.7008 36.2 83.5008 36.4L82.7008 36.1L85.3008 31.2ZM92.8008 31L93.0008 31.7C92.4008 31.9 91.9008 32.2 91.5008 32.6C91.0008 33 90.7008 33.4 90.5008 33.9C90.3008 34.3 90.2008 34.7 90.3008 35C90.4008 35.3 90.5008 35.5 90.8008 35.5C91.0008 35.5 91.3008 35.4 91.6008 35.1C91.9008 34.8 92.1008 34.4 92.3008 34C92.5008 33.5 92.5008 33 92.5008 32.4L93.7008 32.1C93.8008 32.8 93.7008 33.5 93.4008 34.2C93.1008 34.9 92.7008 35.4 92.1008 35.8C91.5008 36.2 91.0008 36.4 90.4008 36.4C89.5008 36.4 89.0008 35.9 89.0008 35C89.0008 34.2 89.4008 33.5 90.1008 32.7C90.8008 31.9 91.7008 31.4 92.8008 31ZM95.2008 31L96.0008 31.4L95.2008 33C95.2008 33.1 95.1008 33.1 95.1008 33.2C95.1008 33.2 95.1008 33.2 95.1008 33.3C95.1008 33.3 95.1008 33.3 95.1008 33.4C95.1008 33.4 95.1008 33.4 95.1008 33.5C95.1008 33.6 95.1008 33.7 95.3008 33.7C95.5008 33.7 95.8008 33.5 96.3008 33.1C96.7008 32.7 97.1008 32.3 97.5008 31.7L98.2008 32.1L97.1008 34.4C96.9008 34.7 96.9008 35 96.9008 35.1C96.9008 35.2 96.9008 35.3 97.0008 35.3C97.0008 35.3 97.1008 35.3 97.2008 35.3C97.4008 35.2 97.7008 35.1 97.9008 35C98.0008 34.9 98.1008 34.9 98.2008 34.8C98.3008 34.8 98.4008 34.7 98.5008 34.7L98.2008 35.6C97.4008 36.1 96.8008 36.4 96.4008 36.4C95.9008 36.4 95.7008 36.2 95.7008 35.8C95.7008 35.5 95.9008 35 96.4008 34.3C96.5008 34.1 96.6008 34 96.6008 34C96.7008 33.9 96.7008 33.8 96.7008 33.8H96.6008C96.3008 34.1 95.9008 34.3 95.6008 34.5C95.3008 34.7 94.9008 34.8 94.7008 34.8C94.5008 34.8 94.3008 34.7 94.2008 34.6C94.0008 34.2 94.0008 34 94.0008 33.8C94.0008 33.6 94.1008 33.4 94.2008 33.2L95.2008 31ZM98.3008 34.7L98.0008 35.5L98.5008 35.2C98.5008 35.5 98.6008 35.7 98.9008 35.9C99.2008 36.1 99.5008 36.2 99.8008 36.2C100.201 36.2 100.701 36.1 101.201 36C101.701 35.8 102.101 35.7 102.401 35.4L102.701 34.5C102.401 34.7 102.001 34.9 101.601 35C101.201 35.2 100.801 35.3 100.501 35.3C100.201 35.3 100.001 35.2 99.9008 35.1C99.8008 35 99.7008 34.8 99.8008 34.6C101.201 34.2 102.201 33.8 102.701 33.3C103.301 32.8 103.501 32.4 103.501 31.9C103.501 31.7 103.401 31.5 103.201 31.3C103.001 31.1 102.801 31.1 102.501 31.1C102.201 31.1 101.801 31.2 101.401 31.3C101.001 31.5 100.601 31.7 100.201 32C99.8008 32.3 99.5008 32.7 99.2008 33C98.9008 33.4 98.7008 33.8 98.6008 34.2L98.3008 34.7ZM100.001 34C100.201 33.5 100.501 33.1 101.001 32.7C101.501 32.3 101.801 32.1 102.101 32.1C102.301 32.1 102.301 32.2 102.301 32.3C102.301 32.5 102.101 32.8 101.601 33.2C101.101 33.6 100.601 33.9 100.001 34ZM107.201 31.1L108.001 31.6L106.901 33.9C106.701 34.3 106.501 34.6 106.501 34.7V34.8C106.501 34.8 106.501 34.9 106.601 34.9C106.701 34.9 107.001 34.7 107.401 34.4C107.801 34 108.201 33.6 108.601 33C109.001 32.5 109.401 32 109.601 31.5L110.401 32L109.201 34.2C109.201 34.3 109.101 34.4 109.001 34.6C108.901 34.8 108.901 34.9 108.901 35C108.901 35.2 109.001 35.2 109.101 35.2C109.101 35.2 109.201 35.2 109.301 35.2C109.401 35.2 109.401 35.1 109.501 35.1C109.601 35.1 109.701 35 109.801 35C109.901 34.9 110.001 34.9 110.101 34.8C110.201 34.8 110.301 34.7 110.301 34.7L110.001 35.6C109.101 36.1 108.501 36.4 108.201 36.4C107.801 36.4 107.601 36.2 107.601 35.8C107.601 35.5 107.801 35.1 108.201 34.4L108.101 34.3C106.801 35.6 106.001 36.3 105.601 36.4C105.501 36.4 105.301 36.4 105.201 36.3C105.101 36.2 105.001 36.1 105.001 35.9C105.001 35.6 105.101 35.2 105.501 34.7C105.501 34.7 105.501 34.6 105.601 34.6C105.601 34.6 105.601 34.5 105.701 34.5C105.701 34.5 105.701 34.4 105.801 34.4V34.3L105.701 34.2C105.601 34.3 105.601 34.3 105.501 34.4C105.401 34.5 105.401 34.5 105.301 34.6C105.201 34.7 105.101 34.9 105.001 35C104.901 35.1 104.801 35.2 104.701 35.3C104.001 36 103.401 36.4 102.901 36.4C102.701 36.4 102.501 36.3 102.301 36.2C102.101 36.1 102.001 35.9 102.001 35.6C102.001 35.4 102.001 35.2 102.101 35.1L103.101 34.6C103.101 34.7 103.101 34.9 103.101 35C103.101 35.1 103.101 35.2 103.101 35.3C103.101 35.4 103.201 35.4 103.301 35.4C103.501 35.4 103.801 35.2 104.101 34.9C104.401 34.6 104.801 34.2 105.201 33.7C105.601 33.2 106.001 32.7 106.301 32.2C106.801 31.5 107.101 31.2 107.201 31.1ZM112.501 31.1L113.401 31.6L112.201 33.8V33.9C112.201 33.9 112.201 34 112.101 34C112.101 34 112.101 34.1 112.001 34.1C112.001 34.1 112.001 34.2 111.901 34.2C111.901 34.3 111.801 34.4 111.701 34.6C111.701 34.7 111.601 34.8 111.601 34.8V34.9C111.601 35 111.701 35.1 111.801 35.1C112.001 35.1 112.301 34.9 112.801 34.5C113.301 34.1 113.701 33.6 114.001 33.1C114.201 32.8 114.401 32.5 114.701 32.1C114.701 32.1 114.701 32 114.801 31.9C114.901 31.8 114.901 31.7 115.001 31.7L115.901 32.1C114.201 35.1 113.101 37.5 112.501 39.2L111.401 39C111.601 38.2 112.001 37.4 112.501 36.5C112.901 35.9 113.101 35.5 113.201 35.4C113.301 35.2 113.501 34.9 113.701 34.6H113.601C112.501 35.8 111.601 36.3 111.101 36.3C110.701 36.3 110.501 36 110.501 35.6C110.501 35.2 110.701 34.6 111.201 33.6C111.601 32.7 112.001 31.8 112.501 31.1ZM122.001 31.2L122.901 31.6L121.901 33.6H122.001H122.101C122.201 33.6 122.301 33.6 122.401 33.5C122.501 33.5 122.601 33.5 122.701 33.4C122.801 33.4 122.901 33.4 123.001 33.4C123.101 33.4 123.201 33.4 123.301 33.4H123.401H123.501L124.301 31.7L125.201 32.1L124.001 34.5C124.001 34.5 123.901 34.7 123.801 34.9V35V35.1C123.801 35.1 123.801 35.1 123.801 35.2C123.801 35.2 123.801 35.2 123.801 35.3C123.801 35.4 123.901 35.5 124.001 35.5C124.101 35.5 124.301 35.4 124.501 35.3C124.501 35.3 124.601 35.3 124.601 35.2C124.601 35.2 124.701 35.2 124.701 35.1C124.701 35.1 124.801 35.1 124.801 35C124.901 35 125.001 34.9 125.001 34.9C125.101 34.9 125.201 34.8 125.301 34.8L125.001 35.7C124.101 36.2 123.501 36.5 123.101 36.5C122.901 36.5 122.701 36.4 122.501 36.3C122.401 36.2 122.301 36 122.301 35.8C122.301 35.6 122.401 35.4 122.501 35.2C122.601 35 122.701 34.8 122.801 34.6C122.801 34.5 122.801 34.5 122.901 34.4C122.901 34.4 123.001 34.3 123.001 34.2C122.401 34.3 121.801 34.4 121.201 34.6L120.301 36.5L119.201 36.2L122.001 31.2Z" fill="#363D4A"/>
<path fill-rule="evenodd" clip-rule="evenodd" d="M130.701 31.4999L131.601 31.9999L130.501 34.1999C130.301 34.5999 130.201 34.7999 130.201 34.9999C130.201 35.0999 130.301 35.1999 130.401 35.1999C130.501 35.1999 130.701 35.0999 131.101 34.8999C131.501 34.6999 131.701 34.5999 131.801 34.5999L131.501 35.4999C130.801 35.9999 130.201 36.2999 129.801 36.2999C129.601 36.2999 129.401 36.1999 129.301 36.0999C129.201 35.9999 129.101 35.7999 129.101 35.5999C129.101 35.4999 129.101 35.1999 129.301 34.8999C129.301 34.8999 129.301 34.8999 129.301 34.7999V34.6999H129.201C129.201 34.6999 129.201 34.6999 129.101 34.7999C128.701 35.1999 128.301 35.5999 127.901 35.7999C127.501 35.9999 127.101 36.1999 126.801 36.1999C126.501 36.1999 126.301 36.0999 126.101 35.8999C125.901 35.6999 125.801 35.3999 125.801 34.8999C125.801 34.3999 126.001 33.8999 126.501 33.2999C126.901 32.6999 127.401 32.1999 128.001 31.7999C128.601 31.3999 129.101 31.1999 129.501 31.1999C130.001 31.1999 130.301 31.2999 130.601 31.6999L130.701 31.4999ZM130.301 32.2999C130.201 32.0999 130.001 31.9999 129.701 31.9999C129.401 31.9999 129.001 32.1999 128.601 32.4999C128.201 32.7999 127.801 33.1999 127.501 33.5999C127.201 33.9999 127.001 34.3999 127.001 34.6999C127.001 34.9999 127.101 35.1999 127.401 35.1999C127.601 35.1999 127.801 35.0999 128.201 34.8999C128.501 34.6999 128.801 34.3999 129.101 34.0999C129.401 33.7999 129.601 33.5999 129.701 33.3999L130.301 32.2999ZM136.101 31.0999C136.001 31.1999 135.801 31.5999 135.401 32.0999C135.001 32.5999 134.601 33.0999 134.301 33.5999C133.901 34.0999 133.501 34.4999 133.201 34.7999C132.901 35.0999 132.601 35.2999 132.401 35.2999C132.301 35.2999 132.201 35.2999 132.201 35.1999C132.201 35.0999 132.201 34.9999 132.201 34.8999C132.201 34.6999 132.201 34.5999 132.201 34.4999L131.201 34.9999C131.101 35.1999 131.101 35.2999 131.101 35.4999C131.101 35.7999 131.201 35.9999 131.401 36.0999C131.601 36.1999 131.801 36.2999 132.001 36.2999C132.501 36.2999 133.101 35.8999 133.801 35.1999C133.901 35.0999 134.001 34.9999 134.101 34.8999C134.201 34.7999 134.301 34.6999 134.401 34.4999C134.501 34.3999 134.501 34.3999 134.601 34.2999C134.701 34.1999 134.701 34.1999 134.801 34.0999L134.901 34.1999V34.2999C134.901 34.2999 134.901 34.3999 134.801 34.3999C134.801 34.3999 134.801 34.4999 134.701 34.4999C134.701 34.4999 134.701 34.5999 134.601 34.5999C134.301 35.0999 134.101 35.5999 134.101 35.7999C134.101 35.9999 134.201 36.0999 134.301 36.1999C134.401 36.2999 134.501 36.2999 134.701 36.2999C135.101 36.2999 135.901 35.5999 137.201 34.1999L137.301 34.2999C136.901 34.8999 136.701 35.3999 136.701 35.6999C136.701 36.0999 136.901 36.2999 137.301 36.2999C137.601 36.2999 138.201 35.9999 139.101 35.4999L139.401 34.5999C139.301 34.5999 139.301 34.6999 139.201 34.6999C139.101 34.6999 139.001 34.7999 138.901 34.8999C138.801 34.9999 138.601 34.9999 138.601 34.9999C138.501 34.9999 138.501 35.0999 138.401 35.0999C138.301 35.0999 138.201 35.0999 138.201 35.0999C138.101 35.0999 138.001 34.9999 138.001 34.8999C138.001 34.8999 138.001 34.6999 138.101 34.4999C138.201 34.2999 138.301 34.1999 138.301 34.0999L139.501 31.8999L138.701 31.3999C138.401 31.7999 138.101 32.2999 137.701 32.8999C137.301 33.3999 136.901 33.8999 136.501 34.2999C136.101 34.6999 135.901 34.7999 135.701 34.7999C135.701 34.7999 135.601 34.7999 135.601 34.6999V34.5999C135.601 34.4999 135.701 34.1999 136.001 33.7999L137.101 31.4999L136.101 31.0999ZM146.001 31.1999L146.801 31.5999L145.701 33.6999L145.801 33.7999C145.801 33.6999 145.901 33.6999 145.901 33.6999L146.001 33.5999C146.001 33.5999 146.101 33.4999 146.101 33.3999C146.601 32.7999 147.101 32.3999 147.401 32.0999C147.801 31.7999 148.001 31.6999 148.301 31.6999C148.401 31.6999 148.601 31.6999 148.701 31.7999C148.801 31.8999 148.901 31.9999 149.001 32.0999C149.101 32.1999 149.101 32.3999 149.001 32.4999C149.001 32.5999 148.901 32.8999 148.601 33.3999C148.501 33.4999 148.501 33.6999 148.401 33.7999C148.301 33.9999 148.201 34.0999 148.201 34.1999C148.001 34.5999 147.901 34.7999 147.901 34.8999C147.901 34.9999 148.001 35.0999 148.101 35.0999C148.101 35.0999 148.201 35.0999 148.401 34.9999C148.501 34.9999 148.601 34.8999 148.701 34.8999C149.101 34.6999 149.301 34.5999 149.401 34.5999L149.101 35.4999C148.801 35.6999 148.401 35.8999 148.101 35.9999C147.801 36.1999 147.501 36.1999 147.401 36.1999C147.001 36.1999 146.701 35.9999 146.701 35.4999C146.701 35.1999 146.901 34.7999 147.201 34.1999C147.301 33.9999 147.401 33.7999 147.501 33.5999C147.701 33.2999 147.701 33.0999 147.701 33.0999C147.701 32.9999 147.601 32.9999 147.501 32.9999C147.301 32.9999 147.201 33.0999 146.901 33.3999C146.601 33.6999 146.401 33.8999 146.301 33.9999C146.001 34.2999 145.801 34.5999 145.601 34.7999C145.501 34.8999 145.401 35.0999 145.001 35.4999C144.901 35.5999 144.801 35.6999 144.701 35.8999C144.601 36.0999 144.401 36.1999 144.201 36.3999L143.401 36.0999L146.001 31.1999ZM153.501 30.9999L153.701 31.6999C153.101 31.8999 152.601 32.1999 152.201 32.5999C151.701 32.9999 151.401 33.3999 151.201 33.8999C151.001 34.2999 150.901 34.6999 151.001 34.9999C151.101 35.2999 151.201 35.4999 151.501 35.4999C151.701 35.4999 152.001 35.3999 152.301 35.0999C152.601 34.7999 152.801 34.3999 153.001 33.9999C153.201 33.4999 153.201 32.9999 153.201 32.3999L154.401 32.0999C154.501 32.7999 154.401 33.4999 154.101 34.1999C153.801 34.8999 153.401 35.3999 152.801 35.7999C152.201 36.1999 151.701 36.3999 151.101 36.3999C150.201 36.3999 149.701 35.8999 149.701 34.9999C149.701 34.1999 150.101 33.4999 150.801 32.6999C151.501 31.8999 152.401 31.3999 153.501 30.9999ZM161.001 31.1999L161.801 31.5999L160.701 33.6999L160.801 33.7999C160.801 33.6999 160.901 33.6999 160.901 33.6999L161.001 33.5999C161.001 33.5999 161.101 33.4999 161.101 33.3999C161.601 32.7999 162.101 32.3999 162.401 32.0999C162.801 31.7999 163.001 31.6999 163.301 31.6999C163.401 31.6999 163.601 31.6999 163.701 31.7999C163.801 31.8999 163.901 31.9999 164.001 32.0999C164.101 32.1999 164.101 32.3999 164.001 32.4999C164.001 32.5999 163.901 32.8999 163.601 33.3999C163.501 33.4999 163.501 33.6999 163.401 33.7999C163.301 33.9999 163.201 34.0999 163.201 34.1999C163.001 34.5999 162.901 34.7999 162.901 34.8999C162.901 34.9999 163.001 35.0999 163.101 35.0999C163.101 35.0999 163.201 35.0999 163.401 34.9999C163.501 34.9999 163.601 34.8999 163.701 34.8999C164.101 34.6999 164.301 34.5999 164.401 34.5999L164.101 35.4999C163.801 35.6999 163.401 35.8999 163.101 35.9999C162.801 36.1999 162.501 36.1999 162.401 36.1999C162.001 36.1999 161.701 35.9999 161.701 35.4999C161.701 35.1999 161.901 34.7999 162.201 34.1999C162.301 33.9999 162.401 33.7999 162.501 33.5999C162.701 33.2999 162.701 33.0999 162.701 33.0999C162.701 32.9999 162.601 32.9999 162.501 32.9999C162.301 32.9999 162.201 33.0999 161.901 33.3999C161.601 33.6999 161.401 33.8999 161.301 33.9999C161.001 34.2999 160.801 34.5999 160.601 34.7999C160.501 34.8999 160.401 35.0999 160.001 35.4999C159.901 35.5999 159.801 35.6999 159.701 35.8999C159.601 36.0999 159.401 36.1999 159.201 36.3999L158.401 36.0999L161.001 31.1999ZM166.601 31.0999L167.501 31.5999L166.301 33.7999V33.8999C166.301 33.8999 166.301 33.9999 166.201 33.9999C166.201 33.9999 166.201 34.0999 166.101 34.0999C166.101 34.0999 166.101 34.1999 166.001 34.1999C166.001 34.2999 165.901 34.3999 165.801 34.5999C165.801 34.6999 165.701 34.7999 165.701 34.7999V34.8999C165.701 34.9999 165.801 35.0999 165.901 35.0999C166.101 35.0999 166.401 34.8999 166.901 34.4999C167.401 34.0999 167.801 33.5999 168.101 33.0999C168.301 32.7999 168.501 32.4999 168.801 32.0999C168.801 32.0999 168.801 31.9999 168.901 31.8999C169.001 31.7999 169.001 31.6999 169.101 31.6999L170.001 32.0999C168.301 35.0999 167.201 37.4999 166.601 39.1999L165.501 38.9999C165.701 38.1999 166.101 37.3999 166.601 36.4999C167.001 35.8999 167.201 35.4999 167.301 35.3999C167.401 35.1999 167.601 34.8999 167.801 34.5999H167.701C166.601 35.7999 165.701 36.2999 165.201 36.2999C164.801 36.2999 164.601 35.9999 164.601 35.5999C164.601 35.1999 164.801 34.5999 165.301 33.5999C165.701 32.6999 166.201 31.7999 166.601 31.0999ZM171.601 31.1999L169.101 36.0999L170.101 36.3999C170.201 36.2999 170.301 36.0999 170.601 35.6999C170.801 35.3999 171.101 34.9999 171.401 34.6999C171.601 34.4999 171.801 34.1999 172.201 33.8999C172.401 33.6999 172.601 33.4999 172.701 33.3999C172.901 33.2999 173.001 33.1999 173.001 33.1999C173.101 33.1999 173.101 33.2999 173.001 33.3999L171.601 36.0999L172.501 36.3999C172.901 35.7999 173.401 35.1999 174.001 34.5999C174.601 33.9999 175.001 33.6999 175.201 33.6999C175.301 33.6999 175.301 33.6999 175.301 33.7999C175.301 33.7999 175.301 33.8999 175.201 34.0999L175.101 34.1999L175.001 34.2999C174.701 34.7999 174.501 35.1999 174.401 35.4999C174.401 35.6999 174.401 35.8999 174.501 36.0999C174.601 36.1999 174.801 36.2999 175.001 36.2999C175.201 36.2999 175.401 36.2999 175.701 36.1999C175.901 36.0999 176.201 35.9999 176.401 35.7999C176.701 35.6999 176.901 35.4999 177.101 35.4999L177.401 34.5999C177.301 34.6999 177.101 34.6999 177.001 34.7999C176.901 34.7999 176.801 34.8999 176.701 34.8999C176.401 34.9999 176.101 35.0999 175.901 35.1999H175.801C175.701 35.1999 175.701 35.1999 175.701 35.0999C175.701 35.0999 175.801 34.8999 175.901 34.6999C176.001 34.5999 176.001 34.4999 176.101 34.3999C176.201 34.2999 176.201 34.1999 176.301 34.0999C176.601 33.4999 176.801 33.0999 176.801 32.8999C176.801 32.5999 176.601 32.3999 176.301 32.3999C176.201 32.3999 175.901 32.4999 175.601 32.5999C175.301 32.7999 174.701 33.1999 174.001 33.8999L173.901 33.7999L174.001 33.6999C174.001 33.6999 174.001 33.6999 174.001 33.5999C174.101 33.4999 174.201 33.3999 174.201 33.1999C174.401 32.8999 174.501 32.6999 174.601 32.5999C174.701 32.3999 174.701 32.2999 174.701 32.1999C174.701 31.9999 174.601 31.8999 174.501 31.7999C174.401 31.6999 174.201 31.5999 174.001 31.5999C173.801 31.5999 173.501 31.6999 173.201 31.8999C173.001 31.9999 172.701 32.2999 172.301 32.6999C172.301 32.6999 172.201 32.7999 172.001 32.9999C171.801 33.1999 171.601 33.2999 171.501 33.4999L171.401 33.3999L172.401 31.4999L171.601 31.1999ZM173.101 30.9999C174.801 29.9999 176.501 29.3999 178.401 29.3999L177.901 30.5999C177.701 30.4999 177.401 30.4999 177.001 30.4999C175.901 30.4999 174.801 30.8999 173.601 31.5999L173.101 30.9999ZM182.301 31.6999C181.901 32.3999 181.201 33.1999 180.301 33.9999C180.201 34.0999 180.101 34.1999 180.001 34.2999C179.901 34.3999 179.801 34.4999 179.801 34.4999C179.601 34.5999 179.501 34.7999 179.401 34.7999C179.301 34.8999 179.201 34.8999 179.101 34.8999C179.001 34.8999 179.001 34.7999 179.001 34.7999V34.6999C179.001 34.5999 179.001 34.4999 179.101 34.3999L180.601 31.5999L179.701 31.0999C178.801 32.6999 178.301 33.7999 178.001 34.3999C177.701 34.9999 177.601 35.3999 177.601 35.5999C177.601 35.9999 177.801 36.1999 178.101 36.1999C178.601 36.1999 179.401 35.6999 180.501 34.5999C180.601 34.4999 180.801 34.2999 181.001 34.1999C181.001 34.1999 181.001 34.0999 181.101 34.0999C180.901 34.3999 180.701 34.5999 180.601 34.8999C180.501 35.0999 180.401 35.2999 180.401 35.4999C180.401 35.5999 180.401 35.5999 180.401 35.6999C180.401 35.9999 180.601 36.1999 181.001 36.1999C181.301 36.1999 181.901 35.8999 182.901 35.3999L183.201 34.4999C183.001 34.5999 182.801 34.6999 182.701 34.6999C182.701 34.6999 182.501 34.7999 182.301 34.8999C182.101 34.9999 182.001 34.9999 181.901 34.9999C181.801 34.9999 181.701 34.8999 181.701 34.7999C181.701 34.7999 181.701 34.6999 181.801 34.4999L183.201 31.8999L182.301 31.6999ZM185.001 35.0999H185.401C185.701 35.0999 185.801 35.1999 185.801 35.3999C185.801 35.5999 185.701 35.7999 185.501 36.0999C185.301 36.2999 185.101 36.3999 184.801 36.3999C184.501 36.3999 184.401 36.2999 184.401 36.0999C184.401 35.8999 184.501 35.6999 184.601 35.4999C184.701 35.1999 184.901 35.0999 185.001 35.0999ZM189.501 35.0999H189.901C190.201 35.0999 190.301 35.1999 190.301 35.3999C190.301 35.5999 190.201 35.7999 190.001 36.0999C189.801 36.2999 189.601 36.3999 189.301 36.3999C189.001 36.3999 188.901 36.2999 188.901 36.0999C188.901 35.8999 189.001 35.6999 189.101 35.4999C189.201 35.1999 189.401 35.0999 189.501 35.0999ZM194.001 35.0999H194.401C194.701 35.0999 194.801 35.1999 194.801 35.3999C194.801 35.5999 194.701 35.7999 194.501 36.0999C194.301 36.2999 194.101 36.3999 193.801 36.3999C193.501 36.3999 193.401 36.2999 193.401 36.0999C193.401 35.8999 193.501 35.6999 193.601 35.4999C193.701 35.1999 193.901 35.0999 194.001 35.0999Z" fill="#363D4A"/>
</svg>
