<?xml version="1.0" encoding="utf-8"?><svg viewBox="0 0 24 17" xmlns="http://www.w3.org/2000/svg" xmlns:xlink="http://www.w3.org/1999/xlink"><style>:root>svg{display:none}:root>svg:target{display:block}</style><svg fill="none" viewBox="0 0 12 7" id="ic_arrow_down" xmlns="http://www.w3.org/2000/svg"><path d="M1 1l5 5 5-5" stroke="currentColor" stroke-width="1.5" stroke-linecap="round" stroke-linejoin="round"/></svg><svg fill="none" viewBox="0 0 24 6" id="ic_arrow_right" xmlns="http://www.w3.org/2000/svg"><path d="M0 4V2h21V0l3 3-3 3V4H0z" fill="currentColor"/></svg><svg fill="none" viewBox="0 0 16 17" id="ic_date" xmlns="http://www.w3.org/2000/svg"><ellipse cx="8.048" cy="8.5" rx="7.048" ry="7" stroke="currentColor" stroke-width="1.5" stroke-linecap="round" stroke-linejoin="round"/><path d="M8.049 4.5v4h4.027" stroke="currentColor" stroke-width="1.5" stroke-linecap="round" stroke-linejoin="round"/></svg><svg fill="none" viewBox="0 0 14 11" id="ic_email" xmlns="http://www.w3.org/2000/svg"><path d="M2.234 0h9.282a2.235 2.235 0 0 1 2.23 2.108l.004.126v6.532a2.234 2.234 0 0 1-2.108 2.23l-.126.004H2.234a2.234 2.234 0 0 1-2.23-2.108L0 8.766V2.234A2.234 2.234 0 0 1 2.108.004L2.234 0h9.282-9.282zM12.72 3.694l-5.603 2.95a.516.516 0 0 1-.415.029l-.066-.029-5.604-2.95v5.072a1.203 1.203 0 0 0 1.104 1.199l.1.004h9.28a1.203 1.203 0 0 0 1.2-1.105l.004-.098V3.694zM11.516 1.03H2.234a1.203 1.203 0 0 0-1.199 1.104l-.004.1v.294l5.844 3.075 5.844-3.075v-.295a1.203 1.203 0 0 0-1.105-1.199l-.098-.004z" fill="currentColor"/></svg><svg fill="none" viewBox="0 0 11 15" id="ic_location" xmlns="http://www.w3.org/2000/svg"><path d="M5.434 3.438a2 2 0 1 0 0 4 2 2 0 0 0 0-4zm0 3a1 1 0 1 1 0-2 1 1 0 0 1 0 2z" fill="currentColor"/><path d="M9.278 1.591A5.435 5.435 0 0 0 .88 8.401l3.778 5.8a.926.926 0 0 0 1.551 0l3.779-5.8a5.435 5.435 0 0 0-.711-6.81zM9.15 7.855L5.435 13.56 1.718 7.855a4.456 4.456 0 0 1 .58-5.556 4.435 4.435 0 0 1 6.273 0 4.456 4.456 0 0 1 .58 5.556z" fill="currentColor"/></svg><svg fill="none" viewBox="0 0 10 16" id="ic_phone" xmlns="http://www.w3.org/2000/svg"><path d="M4 12a.5.5 0 0 0 0 1h2a.5.5 0 0 0 0-1H4z" fill="currentColor"/><path d="M2 0a2 2 0 0 0-2 2v12a2 2 0 0 0 2 2h6a2 2 0 0 0 2-2V2a2 2 0 0 0-2-2H2zM1 2a1 1 0 0 1 1-1h6a1 1 0 0 1 1 1v12a1 1 0 0 1-1 1H2a1 1 0 0 1-1-1V2z" fill="currentColor"/></svg></svg>